<svg width="32" height="32" viewBox="0 0 32 32" fill="none" xmlns="http://www.w3.org/2000/svg">
<g clip-path="url(#clip0_488_13251)">
<g filter="url(#filter0_d_488_13251)">
<path d="M27 15.5C27 21.8513 21.8513 27 15.5 27C9.14873 27 4 21.8513 4 15.5C4 9.14873 9.14873 4 15.5 4C21.8513 4 27 9.14873 27 15.5Z" fill="white"/>
<path d="M10 14.4951L14.8405 10.2483C15.2178 9.91723 15.7822 9.91723 16.1595 10.2483L21 14.4951V20.6364H17V16.0227H14V20.6364H10V14.4951Z" fill="#222222"/>
</g>
<path fill-rule="evenodd" clip-rule="evenodd" d="M23 4.91556C22.505 4.34879 21.7625 4 20.975 4C19.58 4 18.5 5.04627 18.5 6.39781C18.5 8.03203 19.989 9.34827 22.2541 11.3506C22.285 11.378 22.3162 11.4055 22.3474 11.4331L23 12L23.6526 11.4331C23.6838 11.4055 23.7148 11.3781 23.7458 11.3507C26.011 9.34836 27.5 8.03209 27.5 6.39781C27.5 5.04627 26.42 4 25.025 4C24.2375 4 23.4951 4.34879 23 4.91556Z" fill="#FF385C"/>
<path d="M20.975 4C21.7625 4 22.505 4.34879 23 4.91556C23.4951 4.34879 24.2375 4 25.025 4C26.42 4 27.5 5.04627 27.5 6.39781C27.5 8.0544 25.97 9.38423 23.6526 11.4331L23 12L22.3474 11.4331C20.03 9.38421 18.5 8.05438 18.5 6.39781C18.5 5.04627 19.58 4 20.975 4ZM22.7223 10.8595L22.8136 10.9402L23 11.1021L23.1864 10.9402L23.2776 10.8596C24.3683 9.89542 25.3104 9.06267 25.9331 8.31808C26.538 7.5949 26.8077 7.00267 26.8077 6.39781C26.8077 5.92146 26.6255 5.48258 26.2946 5.16206C25.9649 4.8426 25.514 4.66667 25.025 4.66667C24.4596 4.66667 23.9006 4.92015 23.5298 5.34469L23 5.95127L22.4702 5.34469C22.0994 4.92015 21.5404 4.66667 20.975 4.66667C20.486 4.66667 20.0351 4.8426 19.7054 5.16204C19.3745 5.48258 19.1923 5.92144 19.1923 6.39781C19.1923 7.00267 19.462 7.59487 20.0668 8.31804C20.6896 9.06262 21.6315 9.89531 22.7223 10.8595Z" fill="white"/>
</g>
<defs>
<filter id="filter0_d_488_13251" x="0" y="3" width="31" height="31" filterUnits="userSpaceOnUse" color-interpolation-filters="sRGB">
<feFlood flood-opacity="0" result="BackgroundImageFix"/>
<feColorMatrix in="SourceAlpha" type="matrix" values="0 0 0 0 0 0 0 0 0 0 0 0 0 0 0 0 0 0 127 0" result="hardAlpha"/>
<feOffset dy="3"/>
<feGaussianBlur stdDeviation="2"/>
<feComposite in2="hardAlpha" operator="out"/>
<feColorMatrix type="matrix" values="0 0 0 0 0 0 0 0 0 0 0 0 0 0 0 0 0 0 0.1 0"/>
<feBlend mode="normal" in2="BackgroundImageFix" result="effect1_dropShadow_488_13251"/>
<feBlend mode="normal" in="SourceGraphic" in2="effect1_dropShadow_488_13251" result="shape"/>
</filter>
<clipPath id="clip0_488_13251">
<rect width="32" height="32" fill="white"/>
</clipPath>
</defs>
</svg>
