<svg width="9" height="9" viewBox="0 0 9 9" fill="none" xmlns="http://www.w3.org/2000/svg">
<path d="M2.35254 4.61133C2.35254 3.36523 3.3623 2.36621 4.6084 2.36621C5.68262 2.36621 6.58496 3.11816 6.73535 4.12793H5.80078C5.69336 3.6123 5.17773 3.24707 4.6084 3.24707C3.85645 3.24707 3.24414 3.85938 3.24414 4.61133C3.24414 5.36328 3.85645 5.97559 4.6084 5.97559C5.17773 5.97559 5.61816 5.61035 5.72559 5.09473H6.64941C6.50977 6.10449 5.68262 6.85645 4.6084 6.85645C3.3623 6.85645 2.35254 5.85742 2.35254 4.61133ZM4.56543 8.61816C2.36328 8.61816 0.547852 6.82422 0.558594 4.61133C0.558594 2.3877 2.36328 0.604492 4.56543 0.604492C6.78906 0.604492 8.57227 2.3877 8.57227 4.61133C8.58301 6.82422 6.78906 8.61816 4.56543 8.61816ZM4.56543 7.72656C6.29492 7.72656 7.69141 6.33008 7.68066 4.61133C7.66992 2.88184 6.28418 1.49609 4.56543 1.49609C2.85742 1.49609 1.46094 2.89258 1.4502 4.61133C1.43945 6.31934 2.84668 7.72656 4.56543 7.72656Z" fill="#222222"/>
</svg>
