<svg width="11" height="10" viewBox="0 0 11 10" fill="none" xmlns="http://www.w3.org/2000/svg">
<path d="M5.8125 4.75L7.75 3.65625L8.66875 3.14375C8.75039 3.09885 8.81843 3.03278 8.86572 2.9525C8.91301 2.87221 8.93781 2.78068 8.9375 2.6875V0.83125C8.9375 0.693669 8.88285 0.561723 8.78556 0.464438C8.68828 0.367154 8.55633 0.3125 8.41875 0.3125H2.58125C2.44367 0.3125 2.31172 0.367154 2.21444 0.464438C2.11715 0.561723 2.0625 0.693669 2.0625 0.83125V2.6875C2.0625 2.875 2.1625 3.05625 2.33125 3.14375L4.20625 4.19375L5.1875 4.74375C5.40625 4.86875 5.59375 4.86875 5.8125 4.74375V4.75ZM5.5 5.3125C5.21273 5.3125 4.92828 5.36908 4.66288 5.47901C4.39748 5.58895 4.15633 5.75008 3.9532 5.9532C3.75008 6.15633 3.58895 6.39748 3.47901 6.66288C3.36908 6.92828 3.3125 7.21273 3.3125 7.5C3.3125 7.78727 3.36908 8.07172 3.47901 8.33712C3.58895 8.60252 3.75008 8.84367 3.9532 9.0468C4.15633 9.24992 4.39748 9.41105 4.66288 9.52099C4.92828 9.63092 5.21273 9.6875 5.5 9.6875C6.08016 9.6875 6.63656 9.45703 7.0468 9.0468C7.45703 8.63656 7.6875 8.08016 7.6875 7.5C7.6875 6.91984 7.45703 6.36344 7.0468 5.9532C6.63656 5.54297 6.08016 5.3125 5.5 5.3125Z" fill="#222222"/>
</svg>
