<svg width="291" height="76" viewBox="0 0 291 76" fill="none" xmlns="http://www.w3.org/2000/svg">
<path d="M11.25 1.125C11.5343 1.1242 11.8084 1.23108 12.0171 1.42414C12.2258 1.6172 12.3537 1.88212 12.375 2.16563V3.375H15.75C16.1806 3.37423 16.5951 3.53805 16.9088 3.83294C17.2225 4.12783 17.4117 4.53148 17.4375 4.96125V15.1875C17.4383 15.6181 17.2745 16.0326 16.9796 16.3463C16.6847 16.66 16.281 16.8492 15.8513 16.875H2.25C1.81945 16.8758 1.40489 16.712 1.09118 16.4171C0.777466 16.1222 0.588335 15.7185 0.562503 15.2888V5.0625C0.561727 4.63195 0.725552 4.21739 1.02044 3.90368C1.31533 3.58997 1.71898 3.40084 2.14875 3.375H5.625V2.25C5.6242 1.9657 5.73108 1.69163 5.92414 1.48291C6.1172 1.2742 6.38212 1.14633 6.66563 1.125H6.75H11.25ZM15.75 4.5H2.25C2.11181 4.49901 1.97808 4.54892 1.87434 4.64021C1.77059 4.73151 1.70408 4.85781 1.6875 4.995V6.75C1.68673 7.18055 1.85055 7.59512 2.14544 7.90883C2.44033 8.22254 2.84398 8.41167 3.27375 8.4375H7.3125V9.5625H3.375C2.76633 9.56332 2.17395 9.36586 1.6875 9V15.1875C1.6865 15.3257 1.73641 15.4594 1.82771 15.5632C1.91901 15.6669 2.0453 15.7334 2.1825 15.75H15.75C15.8882 15.751 16.0219 15.7011 16.1257 15.6098C16.2294 15.5185 16.2959 15.3922 16.3125 15.255V9C15.8738 9.33188 15.3338 9.53438 14.7488 9.5625H10.7156V8.4375H14.625C15.0556 8.43828 15.4701 8.27446 15.7838 7.97957C16.0975 7.68468 16.2867 7.28103 16.3125 6.85125V5.0625C16.3135 4.92431 16.2636 4.79059 16.1723 4.68684C16.081 4.58309 15.9547 4.51658 15.8175 4.5H15.75ZM10.125 6.75C10.2632 6.74901 10.3969 6.79892 10.5007 6.89021C10.6044 6.98151 10.6709 7.1078 10.6875 7.245V10.6875C10.6885 10.8257 10.6386 10.9594 10.5473 11.0632C10.456 11.1669 10.3297 11.2334 10.1925 11.25H7.875C7.73681 11.251 7.60308 11.2011 7.49934 11.1098C7.39559 11.0185 7.32908 10.8922 7.3125 10.755V7.3125C7.3115 7.17431 7.36141 7.04059 7.45271 6.93684C7.54401 6.83309 7.6703 6.76658 7.8075 6.75H7.875H10.125ZM9.5625 7.875H8.4375V10.125H9.5625V7.875ZM11.25 2.25H6.75V3.375H11.25V2.25Z" fill="#222222"/>
<path d="M31.2773 5.38281C31.2773 6.73047 32.2852 8.01953 33.9023 8.53516L33.3281 9.40234C32.1211 9.00391 31.207 8.17188 30.7383 7.11719C30.2637 8.25977 29.332 9.16211 28.0781 9.60156L27.5039 8.74609C29.1328 8.18359 30.1406 6.8125 30.1523 5.38281V5.08984H27.7969V4.1875H33.5859V5.08984H31.2773V5.38281ZM36.0938 3.49609V9.83594H34.9805V3.49609H36.0938ZM36.0938 10.3633V13.9961H34.9805V11.2656H28.9805V10.3633H36.0938ZM41.1641 3.97656C42.5469 3.96484 43.6133 4.76758 43.8477 5.94531H45.8984V3.49609H47.0117V9.13281H45.8984V6.85938H43.8594C43.6309 8.06641 42.5586 8.875 41.1641 8.875C39.5586 8.875 38.4102 7.86719 38.4102 6.41406C38.4102 4.98438 39.5586 3.96484 41.1641 3.97656ZM41.1641 4.90234C40.168 4.90234 39.4766 5.51172 39.4766 6.41406C39.4766 7.31641 40.168 7.9375 41.1641 7.9375C42.1367 7.9375 42.8281 7.31641 42.8281 6.41406C42.8281 5.51172 42.1367 4.90234 41.1641 4.90234ZM41.2695 9.63672V10.8555H45.8984V9.63672H47.0117V13.8672H40.168V9.63672H41.2695ZM41.2695 12.9531H45.8984V11.7344H41.2695V12.9531ZM50.3242 11.9102C49.8672 11.9102 49.4805 11.5352 49.4922 11.0781C49.4805 10.6211 49.8672 10.2461 50.3242 10.2461C50.7695 10.2461 51.1562 10.6211 51.1562 11.0781C51.1562 11.5352 50.7695 11.9102 50.3242 11.9102ZM50.3242 7.28125C49.8672 7.28125 49.4805 6.90625 49.4922 6.44922C49.4805 5.99219 49.8672 5.61719 50.3242 5.61719C50.7695 5.61719 51.1562 5.99219 51.1562 6.44922C51.1562 6.90625 50.7695 7.28125 50.3242 7.28125ZM64.918 3.49609V8.89844H63.8164V3.49609H64.918ZM64.9297 9.40234V12.0273H59.1406V13H65.2812V13.8906H58.0625V11.1836H63.8281V10.2812H58.0273V9.40234H64.9297ZM60.043 4.58594C60.0312 5.99219 61.0508 7.26953 62.6562 7.77344L62.1055 8.64062C60.8809 8.24219 59.9609 7.41016 59.4922 6.34375C59.0117 7.49219 58.0742 8.40625 56.8203 8.83984L56.2578 7.96094C57.8984 7.41016 58.9062 6.03906 58.9062 4.58594V3.77734H60.043V4.58594ZM75.8477 3.49609V14.0195H74.7461V8.24219H72.4258V11.418H67.5039V4.30469H68.6289V6.98828H71.3359V4.30469H72.4258V7.32812H74.7461V3.49609H75.8477ZM68.6289 10.5039H71.3359V7.86719H68.6289V10.5039ZM86.6367 3.49609V10.0586H85.5234V3.49609H86.6367ZM77.8945 8.18359C79.2539 8.18359 80.8887 8.1543 82.5 8.04297C82.5996 7.58594 82.6699 7.16406 82.7227 6.77734L78.7969 7.05859L78.6328 6.14453L82.8047 5.94531C82.8223 5.57031 82.8281 5.23633 82.8281 4.9375H78.8555V4.03516H83.9062V4.72656C83.9062 5.51172 83.9062 6.53711 83.625 7.96094C84.0234 7.92578 84.416 7.87891 84.7969 7.83203L84.8672 8.62891C83.9121 8.79297 82.9043 8.89258 81.9141 8.95703V10.5625H86.6367V13.9961H85.5234V11.4531H79.4414V10.5625H80.8125V9.02734C79.8281 9.07422 78.8848 9.08594 78.0469 9.09766L77.8945 8.18359Z" fill="#222222"/>
<path d="M3.20602 30.7314L4.89352 32.4189L4.52227 32.8239C3.37092 34.1099 2.75597 35.7882 2.80385 37.5136C2.85173 39.239 3.5588 40.8806 4.77969 42.1007C6.00059 43.3209 7.64254 44.027 9.368 44.0739C11.0935 44.1207 12.7713 43.5048 14.0566 42.3527L14.4616 41.9758L16.1491 43.6633L15.3504 44.4621L14.411 43.5171C13.1788 44.4819 11.686 45.0559 10.1248 45.1652V46.3127H11.8123V47.4377H7.31227V46.3127H8.99977V45.1652C7.1046 45.0328 5.32181 44.2174 3.98227 42.8702C2.62766 41.5098 1.81663 39.7015 1.70165 37.7852C1.58667 35.8688 2.17566 33.9765 3.3579 32.4639L2.4129 31.5246L3.20602 30.7314ZM13.4323 33.2289L13.5504 33.3471L13.6685 33.4708C14.6687 34.548 15.2075 35.974 15.1696 37.4434C15.1317 38.9129 14.52 40.3092 13.4655 41.3333C12.411 42.3575 10.9976 42.9282 9.52759 42.9232C8.05763 42.9183 6.64801 42.3381 5.60043 41.3069C4.55286 40.2757 3.95057 38.8754 3.92249 37.4057C3.89441 35.936 4.44277 34.5137 5.45019 33.4432C6.45761 32.3728 7.84405 31.7392 9.31275 31.6781C10.7814 31.617 12.2157 32.1333 13.3085 33.1164L13.4323 33.2289ZM8.17852 39.4896L6.8004 40.8677C7.43323 41.3602 8.18616 41.6746 8.98128 41.7784C9.7764 41.8822 10.5848 41.7717 11.3229 41.4583C10.1543 41.0176 9.08535 40.3483 8.17852 39.4896ZM10.9404 36.7277L8.97165 38.6964C10.5748 40.1252 12.3916 40.8452 12.7404 40.4964C13.0948 40.1533 12.3691 38.3308 10.9404 36.7277ZM5.42227 35.5464L5.37727 35.6533C5.08843 36.3814 4.99462 37.1722 5.10511 37.9476C5.2156 38.723 5.52657 39.4562 6.00727 40.0746L7.3854 38.6964C6.52578 37.7881 5.85641 36.7172 5.41665 35.5464H5.42227ZM13.1173 34.5564L11.7391 35.9289C12.5982 36.8377 13.2675 37.9086 13.7079 39.0789C14.0224 38.3401 14.1335 37.5306 14.0296 36.7344C13.9258 35.9382 13.6108 35.1842 13.1173 34.5508V34.5564ZM6.37852 34.1289C6.02977 34.4777 6.74977 36.3002 8.17852 37.8977L10.1473 35.9289C8.54415 34.5002 6.7329 33.7802 6.37852 34.1289ZM7.80727 33.1727C8.79165 33.5046 9.91665 34.2021 10.946 35.1358L12.3185 33.7577C11.6855 33.2698 10.9345 32.9586 10.1419 32.8558C9.34937 32.7531 8.54375 32.8624 7.80727 33.1727Z" fill="#222222"/>
<path d="M36.1289 33.4961V43.9961H35.0273V38.5703H32.6719V37.6562H35.0273V33.4961H36.1289ZM32.707 34.6211C32.6953 37.668 31.5117 40.2812 27.9492 42.0508L27.3633 41.1719C30.1465 39.8125 31.3828 37.9199 31.582 35.5117H27.832V34.6211H32.707ZM47.832 39.4141V40.3164H43.5664V43.9844H42.4766V40.3164H38.2578V39.4141H47.832ZM46.9297 34.1172V35.0078H43.6836C43.7012 36.3086 45.3184 37.4688 47.3047 37.7383L46.8945 38.6172C45.1719 38.3477 43.6836 37.498 43.0508 36.2969C42.4004 37.498 40.918 38.3477 39.2188 38.6172L38.7969 37.7383C40.7598 37.4688 42.377 36.3086 42.418 35.0078H39.1484V34.1172H46.9297ZM52.9961 36.5898C52.9961 38.3477 54.1445 40.1641 55.7617 40.8555L55.1523 41.7227C53.916 41.1777 52.9316 40.0234 52.4453 38.6172C51.959 40.1172 50.9688 41.3945 49.75 41.9922L49.1055 41.1133C50.6875 40.375 51.8594 38.3945 51.8711 36.5898V35.4766H49.4688V34.5508H55.3867V35.4766H52.9961V36.5898ZM57.8242 33.4961V43.9961H56.7109V33.4961H57.8242ZM61.1953 41.9102C60.7383 41.9102 60.3516 41.5352 60.3633 41.0781C60.3516 40.6211 60.7383 40.2461 61.1953 40.2461C61.6406 40.2461 62.0273 40.6211 62.0273 41.0781C62.0273 41.5352 61.6406 41.9102 61.1953 41.9102ZM61.1953 37.2812C60.7383 37.2812 60.3516 36.9062 60.3633 36.4492C60.3516 35.9922 60.7383 35.6172 61.1953 35.6172C61.6406 35.6172 62.0273 35.9922 62.0273 36.4492C62.0273 36.9062 61.6406 37.2812 61.1953 37.2812ZM67.5742 43V34.5156H68.8633V38.1953H73.082V34.5156H74.3711V43H73.082V39.2969H68.8633V43H67.5742ZM77.8711 43L76.0078 36.6367H77.2969L78.5391 41.3008H78.6094L79.8516 36.6367H81.1406L82.3711 41.2773H82.4414L83.6719 36.6367H84.9609L83.0977 43H81.8203L80.5312 38.418H80.4375L79.1602 43H77.8711ZM86.1992 41.207C86.1992 39.7539 87.4297 39.3789 88.5781 39.2969C89 39.2676 89.9551 39.2148 90.2539 39.2031L90.2422 38.6992C90.2422 37.9844 89.8086 37.5625 88.9531 37.5625C88.2148 37.5625 87.7695 37.9023 87.6406 38.3711H86.3984C86.5156 37.3164 87.5 36.5547 89 36.5547C90.0078 36.5547 91.4961 36.9297 91.4961 38.7695V43H90.2773V42.1328H90.2305C89.9844 42.6133 89.3984 43.1406 88.3438 43.1406C87.1367 43.1406 86.1992 42.4492 86.1992 41.207ZM87.418 41.2188C87.418 41.8281 87.9219 42.1445 88.625 42.1445C89.6445 42.1445 90.2539 41.4648 90.2539 40.7031V40.1172L88.7539 40.2227C87.9336 40.2812 87.418 40.5859 87.418 41.2188ZM96.2031 43.1289C94.3516 43.1289 93.2266 41.7578 93.2266 39.8477C93.2266 37.9023 94.3867 36.5547 96.1797 36.5547C97.6328 36.5547 98.6875 37.4102 98.8164 38.6992H97.5977C97.4688 38.1016 96.9883 37.5977 96.2031 37.5977C95.1719 37.5977 94.4805 38.4531 94.4805 39.8125C94.4805 41.207 95.1602 42.0625 96.2031 42.0625C96.9062 42.0625 97.4453 41.6758 97.5977 40.9844H98.8164C98.6758 42.2148 97.7031 43.1289 96.2031 43.1289ZM101.754 39.2266V43H100.5V34.5156H101.73V37.6797H101.812C102.117 36.9883 102.703 36.5547 103.699 36.5547C105.012 36.5547 105.879 37.3633 105.879 38.957V43H104.625V39.1094C104.625 38.1719 104.121 37.6328 103.277 37.6328C102.398 37.6328 101.754 38.207 101.754 39.2266ZM110.633 43.1289C108.758 43.1289 107.609 41.8398 107.609 39.8594C107.609 37.9023 108.781 36.5547 110.551 36.5547C112.004 36.5547 113.375 37.457 113.375 39.7539V40.1992H108.852C108.887 41.4062 109.596 42.0977 110.645 42.0977C111.359 42.0977 111.816 41.793 112.027 41.4062H113.293C113.012 42.4375 112.027 43.1289 110.633 43.1289ZM108.863 39.2617H112.145C112.145 38.2891 111.523 37.5859 110.562 37.5859C109.561 37.5859 108.91 38.3594 108.863 39.2617ZM117.812 43.1289C116.008 43.1289 114.836 41.8164 114.836 39.8477C114.836 37.8672 116.008 36.5547 117.812 36.5547C119.605 36.5547 120.777 37.8672 120.777 39.8477C120.777 41.8164 119.605 43.1289 117.812 43.1289ZM117.812 42.0859C118.961 42.0859 119.512 41.0664 119.512 39.8477C119.512 38.6289 118.961 37.5859 117.812 37.5859C116.641 37.5859 116.09 38.6289 116.09 39.8477C116.09 41.0664 116.641 42.0859 117.812 42.0859ZM123.762 39.2266V43H122.508V36.6367H123.715V37.6797H123.785C124.09 37 124.711 36.5547 125.66 36.5547C126.973 36.5547 127.828 37.375 127.828 38.957V43H126.586V39.1094C126.586 38.1836 126.082 37.6328 125.238 37.6328C124.383 37.6328 123.762 38.207 123.762 39.2266ZM133.602 38.875V39.9531H129.84V38.875H133.602ZM138.285 45.5195C136.68 45.5195 135.625 44.8047 135.508 43.6211H136.785C136.902 44.2188 137.465 44.5117 138.297 44.5117C139.293 44.5117 139.926 44.0898 139.926 43.0938V41.8398H139.844C139.621 42.25 139.164 42.9062 137.992 42.9062C136.492 42.9062 135.332 41.7812 135.332 39.7539C135.332 37.7266 136.469 36.5547 138.004 36.5547C139.188 36.5547 139.621 37.2695 139.855 37.668H139.938V36.6367H141.156V43.1406C141.156 44.7695 139.926 45.5195 138.285 45.5195ZM138.273 41.875C139.34 41.875 139.938 41.0898 139.938 39.7773C139.938 38.4883 139.352 37.6211 138.273 37.6211C137.16 37.6211 136.609 38.5586 136.609 39.7773C136.609 41.0195 137.184 41.875 138.273 41.875ZM147.223 40.3516V36.6367H148.465V43H147.246V41.8984H147.176C146.883 42.5781 146.227 43.082 145.277 43.082C144.047 43.082 143.18 42.2617 143.18 40.6797V36.6367H144.434V40.5273C144.434 41.3945 144.961 41.9453 145.723 41.9453C146.414 41.9453 147.223 41.4414 147.223 40.3516ZM151.742 39.2266V43H150.488V36.6367H151.695V37.6797H151.766C152.07 37 152.691 36.5547 153.641 36.5547C154.953 36.5547 155.809 37.375 155.809 38.957V43H154.566V39.1094C154.566 38.1836 154.062 37.6328 153.219 37.6328C152.363 37.6328 151.742 38.207 151.742 39.2266ZM159.344 42.1914L158.406 45.4258H157.41L158.031 42.1914H159.344ZM172.707 33.5078V36.8828H174.23V37.8086H172.707V41.3594H171.594V33.5078H172.707ZM170.727 34.7266V35.6289H164.469V34.7266H167.047V33.4961H168.16V34.7266H170.727ZM167.598 36.1328C169.109 36.1328 170.141 36.918 170.141 38.1133C170.141 39.3086 169.109 40.082 167.598 40.082C166.074 40.082 165.043 39.3086 165.043 38.1133C165.043 36.918 166.074 36.1328 167.598 36.1328ZM167.598 36.9883C166.707 36.9883 166.109 37.4219 166.121 38.1133C166.109 38.793 166.707 39.2148 167.598 39.2148C168.488 39.2148 169.086 38.793 169.098 38.1133C169.086 37.4219 168.488 36.9883 167.598 36.9883ZM173.152 42.8711V43.7734H166.051V40.7383H167.164V42.8711H173.152ZM183.719 33.9883V34.7734C183.719 35.5469 183.719 36.4727 183.484 37.6914H184.938V38.5938H180.672V40.3867H183.766V43.9961H182.652V41.2773H176.312V40.3867H179.559V38.5938H175.328V37.6914H182.359C182.605 36.5195 182.617 35.6406 182.617 34.8906H176.535V33.9883H183.719Z" fill="#222222"/>
<path d="M5.71875 60.4688V61.3945H2.02734V66.5156C3.79102 66.5039 4.99219 66.4395 6.375 66.1758L6.50391 67.0898C4.99219 67.377 3.71484 67.4414 1.73438 67.4414H0.902344V60.4688H5.71875ZM5.12109 64.1719V63.2461H8.03906V59.4961H9.15234V70.0195H8.03906V64.1719H5.12109ZM24.2969 67.7695V68.6953H14.6875V67.7695H18.918V65.6133H15.7891V60.2109H16.9023V62.0156H22.0586V60.2109H23.1602V65.6133H20.0195V67.7695H24.2969ZM16.9023 64.7109H22.0586V62.918H16.9023V64.7109ZM34.2891 59.4961V69.9961H33.1641V59.4961H34.2891ZM25.6641 67.1836C28.4531 65.8535 29.8184 63.9609 30.0352 61.5117H26.168V60.6211H31.1602C31.1602 63.6973 29.8535 66.3574 26.25 68.0859L25.6641 67.1836Z" fill="#222222"/>
<path d="M0 70.8809H35.543V71.7891H0V70.8809Z" fill="#222222"/>
<path fill-rule="evenodd" clip-rule="evenodd" d="M40.9065 61.76C40.8653 61.7185 40.8328 61.6694 40.8106 61.6154C40.7884 61.5613 40.7771 61.5035 40.7773 61.4451C40.7776 61.3867 40.7893 61.3289 40.8118 61.275C40.8343 61.2211 40.8673 61.1722 40.9087 61.1311C40.9501 61.0899 40.9993 61.0574 41.0533 61.0352C41.1073 61.013 41.1652 61.0017 41.2236 61.002C41.282 61.0022 41.3398 61.0139 41.3937 61.0364C41.4475 61.0589 41.4964 61.0919 41.5376 61.1333L45.0931 64.6889C45.1759 64.7721 45.2224 64.8848 45.2224 65.0022C45.2224 65.1196 45.1759 65.2323 45.0931 65.3155L41.5376 68.8711C41.4964 68.9125 41.4475 68.9455 41.3937 68.968C41.3398 68.9905 41.282 69.0022 41.2236 69.0024C41.1652 69.0027 41.1073 68.9914 41.0533 68.9692C40.9993 68.947 40.9501 68.9145 40.9087 68.8733C40.8673 68.8322 40.8343 68.7833 40.8118 68.7294C40.7893 68.6755 40.7776 68.6177 40.7773 68.5593C40.7771 68.5009 40.7884 68.4431 40.8106 68.389C40.8328 68.335 40.8653 68.2859 40.9065 68.2444L44.1465 65.0044L40.9065 61.76Z" fill="#222222"/>
</svg>
