<svg width="18" height="18" viewBox="0 0 18 18" fill="none" xmlns="http://www.w3.org/2000/svg">
<path fill-rule="evenodd" clip-rule="evenodd" d="M4.94949 6.3831C4.89769 6.33167 4.83627 6.29094 4.76873 6.26324C4.70119 6.23555 4.62885 6.22143 4.55586 6.22168C4.48286 6.22194 4.41063 6.23657 4.34329 6.26475C4.27594 6.29292 4.21481 6.33408 4.16338 6.38588C4.11194 6.43768 4.07121 6.4991 4.04352 6.56664C4.01582 6.63418 4.0017 6.70651 4.00196 6.77951C4.00221 6.85251 4.01685 6.92474 4.04502 6.99208C4.07319 7.05942 4.11436 7.12056 4.16615 7.17199L8.6106 11.6164C8.71469 11.7199 8.8555 11.778 9.00227 11.778C9.14904 11.778 9.28984 11.7199 9.39393 11.6164L13.8384 7.17199C13.8902 7.12056 13.9313 7.05942 13.9595 6.99208C13.9877 6.92474 14.0023 6.85251 14.0026 6.77951C14.0028 6.70652 13.9887 6.63418 13.961 6.56664C13.9333 6.4991 13.8926 6.43768 13.8412 6.38588C13.7897 6.33408 13.7286 6.29292 13.6612 6.26475C13.5939 6.23657 13.5217 6.22194 13.4487 6.22168C13.3757 6.22143 13.3033 6.23555 13.2358 6.26324C13.1683 6.29094 13.1068 6.33167 13.055 6.3831L9.00504 10.4331L4.94949 6.3831Z" fill="#222222"/>
</svg>
