<svg width="14" height="14" viewBox="0 0 14 14" fill="none" xmlns="http://www.w3.org/2000/svg">
<path fill-rule="evenodd" clip-rule="evenodd" d="M4.90648 3.75998C4.86534 3.71854 4.83275 3.6694 4.8106 3.61537C4.78844 3.56134 4.77714 3.50347 4.77735 3.44508C4.77755 3.38668 4.78926 3.32889 4.8118 3.27502C4.83434 3.22115 4.86727 3.17224 4.9087 3.13109C4.95014 3.08994 4.99928 3.05736 5.05331 3.0352C5.10735 3.01305 5.16521 3.00175 5.22361 3.00196C5.28201 3.00216 5.33979 3.01387 5.39367 3.03641C5.44754 3.05895 5.49645 3.09187 5.53759 3.13331L9.09315 6.68887C9.17593 6.77214 9.22239 6.88479 9.22239 7.0022C9.22239 7.11962 9.17593 7.23226 9.09315 7.31554L5.53759 10.8711C5.49645 10.9125 5.44754 10.9455 5.39367 10.968C5.33979 10.9905 5.28201 11.0022 5.22361 11.0024C5.16521 11.0027 5.10735 10.9914 5.05331 10.9692C4.99928 10.947 4.95014 10.9145 4.9087 10.8733C4.86727 10.8322 4.83434 10.7833 4.8118 10.7294C4.78926 10.6755 4.77755 10.6177 4.77735 10.5593C4.77714 10.5009 4.78844 10.4431 4.8106 10.389C4.83275 10.335 4.86534 10.2859 4.90648 10.2444L8.14648 7.00443L4.90648 3.75998Z" fill="#222222"/>
</svg>
