<svg width="18" height="18" viewBox="0 0 18 18" fill="none" xmlns="http://www.w3.org/2000/svg">
<path d="M11.4069 13.7925L14.3319 16.7175C13.9904 16.855 13.6204 16.9063 13.2544 16.8671C12.8884 16.8278 12.5377 16.6992 12.2332 16.4924C11.9286 16.2857 11.6796 16.0072 11.508 15.6816C11.3365 15.3559 11.2477 14.9931 11.2494 14.625C11.2494 14.3325 11.3056 14.0513 11.4069 13.7925ZM6.61437 9L7.63812 10.0294L5.2925 12.375H9.98937L11.1144 13.5H6.44562C6.6698 13.8895 6.77219 14.3373 6.73959 14.7855C6.70699 15.2338 6.5409 15.662 6.26272 16.015C5.98454 16.368 5.60702 16.6296 5.17882 16.766C4.75061 16.9025 4.29135 16.9077 3.8602 16.7808C3.42906 16.6539 3.0458 16.4007 2.75982 16.054C2.47383 15.7073 2.29823 15.2829 2.25564 14.8355C2.21305 14.3881 2.30543 13.9382 2.52086 13.5438C2.7363 13.1493 3.06492 12.8285 3.46437 12.6225L3.50375 12.5831L3.5375 12.5381L5.96187 10.125H5.06187C4.65436 10.1254 4.26075 10.2732 3.95375 10.5413L3.875 10.62L1.72062 12.7744L0.921875 11.9756L3.07625 9.82125C3.56782 9.33185 4.2229 9.04138 4.91562 9.00563L5.06187 9H6.61437ZM2.23812 1.44L16.5594 15.7613L15.7606 16.56L1.43937 2.23875L2.23812 1.44ZM4.49937 13.5C4.20101 13.5 3.91486 13.6185 3.70388 13.8295C3.4929 14.0405 3.37437 14.3266 3.37437 14.625C3.37437 14.9234 3.4929 15.2095 3.70388 15.4205C3.91486 15.6315 4.20101 15.75 4.49937 15.75C4.79774 15.75 5.08389 15.6315 5.29487 15.4205C5.50585 15.2095 5.62437 14.9234 5.62437 14.625C5.62437 14.3266 5.50585 14.0405 5.29487 13.8295C5.08389 13.6185 4.79774 13.5 4.49937 13.5ZM17.4369 1.125V2.25H16.1206C15.7112 2.24903 15.3153 2.39697 15.0069 2.66625L14.9281 2.745L14.6244 3.04312V10.6875C14.6244 11.1375 14.5175 11.565 14.3319 11.9419L13.4544 11.07C13.4712 11.0138 13.4825 10.9462 13.4881 10.8844L13.4937 10.7887L13.4994 10.6875V4.16812L10.0287 7.63875L9.23 6.84562L8.49875 6.0525C8.19236 5.73486 7.98642 5.33394 7.90668 4.89988C7.82693 4.46582 7.87693 4.01789 8.05042 3.61209C8.2239 3.2063 8.51317 2.86065 8.88205 2.61838C9.25093 2.37612 9.68305 2.24798 10.1244 2.25C10.6002 2.25112 11.0635 2.40309 11.4476 2.68406C11.8316 2.96504 12.1167 3.36055 12.2619 3.81375L14.1294 1.94625C14.6209 1.45685 15.276 1.16637 15.9687 1.13062L16.1206 1.125H17.4369ZM10.1244 3.375C9.97244 3.37663 9.82242 3.40901 9.68334 3.4702C9.54427 3.53139 9.41903 3.62012 9.31518 3.73103C9.21134 3.84194 9.13103 3.97274 9.07912 4.11554C9.0272 4.25833 9.00475 4.41016 9.01311 4.56187C9.02148 4.71358 9.06049 4.86202 9.12779 4.99825C9.19509 5.13447 9.28929 5.25564 9.4047 5.35447C9.52011 5.45329 9.65434 5.52771 9.7993 5.57324C9.94426 5.61877 10.0969 5.63446 10.2481 5.61937L10.3494 5.6025L10.4225 5.58563L10.4394 5.58C10.59 5.53647 10.7298 5.46195 10.8499 5.3612C10.9701 5.26046 11.0678 5.13573 11.1369 4.995L11.1762 4.905L11.2156 4.78125L11.2325 4.69688L11.2437 4.6125V4.59562L11.2494 4.5C11.2502 4.21569 11.1433 3.94162 10.9502 3.73291C10.7572 3.5242 10.4923 3.39632 10.2087 3.375H10.1244Z" fill="#999999"/>
</svg>
