<svg width="14" height="15" viewBox="0 0 14 15" fill="none" xmlns="http://www.w3.org/2000/svg">
<rect y="0.5" width="14" height="14" rx="1" fill="#222222"/>
<path fill-rule="evenodd" clip-rule="evenodd" d="M12 5.5C12 4.94772 11.5523 4.5 11 4.5H3C2.44772 4.5 2 4.94772 2 5.5V9.625C2 10.1773 2.44772 10.625 3 10.625H5.30706C5.64309 10.625 5.95666 10.7938 6.14173 11.0743L6.16533 11.11C6.56057 11.709 7.43943 11.709 7.83467 11.11L7.85827 11.0743C8.04334 10.7938 8.35691 10.625 8.69294 10.625H11C11.5523 10.625 12 10.1773 12 9.625V5.5Z" fill="white"/>
<path d="M4.17871 6.37891H4.6123V7.17578H4.62402C4.66211 7.09473 4.71729 7.02686 4.78955 6.97217C4.86182 6.9165 4.95801 6.88867 5.07812 6.88867C5.19824 6.88867 5.30713 6.91992 5.40479 6.98242C5.50342 7.04395 5.58154 7.13623 5.63916 7.25928C5.69678 7.38135 5.72559 7.53027 5.72559 7.70605C5.72559 7.87793 5.69727 8.02588 5.64062 8.1499C5.58398 8.27295 5.50684 8.3667 5.40918 8.43115C5.31152 8.49463 5.20117 8.52637 5.07812 8.52637C4.95996 8.52637 4.86377 8.49951 4.78955 8.4458C4.71631 8.39111 4.66113 8.32422 4.62402 8.24512H4.60645V8.5H4.17871V6.37891ZM4.60352 7.70312C4.60352 7.79883 4.6167 7.88281 4.64307 7.95508C4.66943 8.02637 4.70801 8.08203 4.75879 8.12207C4.80957 8.16113 4.87012 8.18066 4.94043 8.18066C5.04883 8.18066 5.13232 8.13721 5.19092 8.05029C5.25049 7.96338 5.28027 7.84766 5.28027 7.70312C5.28027 7.56055 5.25049 7.44678 5.19092 7.36182C5.13232 7.27686 5.04883 7.23438 4.94043 7.23438C4.83301 7.23438 4.75 7.27637 4.69141 7.36035C4.63281 7.44336 4.60352 7.55762 4.60352 7.70312ZM6.3775 8.5H5.94391V6.37891H6.3775V8.5ZM7.36926 8.53223C7.21105 8.53223 7.07336 8.49805 6.95617 8.42969C6.83898 8.36133 6.74865 8.26514 6.68518 8.14111C6.6217 8.01611 6.58996 7.87207 6.58996 7.70898C6.58996 7.5459 6.62121 7.40234 6.68371 7.27832C6.74719 7.1543 6.83752 7.05859 6.95471 6.99121C7.07287 6.92285 7.21105 6.88867 7.36926 6.88867C7.52746 6.88867 7.66564 6.92285 7.78381 6.99121C7.90197 7.05859 7.99279 7.1543 8.05627 7.27832C8.11975 7.40234 8.15148 7.5459 8.15148 7.70898C8.15148 7.87207 8.11975 8.01611 8.05627 8.14111C7.99279 8.26514 7.90197 8.36133 7.78381 8.42969C7.66564 8.49805 7.52746 8.53223 7.36926 8.53223ZM7.37219 8.19531C7.44445 8.19531 7.50598 8.1748 7.55676 8.13379C7.60754 8.0918 7.64563 8.03418 7.67102 7.96094C7.69641 7.8877 7.7091 7.80371 7.7091 7.70898C7.7091 7.61426 7.69641 7.53027 7.67102 7.45703C7.64563 7.38281 7.60754 7.32471 7.55676 7.28271C7.50598 7.24072 7.44445 7.21973 7.37219 7.21973C7.29895 7.21973 7.23645 7.24072 7.18469 7.28271C7.13391 7.32471 7.09533 7.38281 7.06896 7.45703C7.0426 7.53027 7.02941 7.61426 7.02941 7.70898C7.02941 7.80273 7.0426 7.88672 7.06896 7.96094C7.09533 8.03418 7.13391 8.0918 7.18469 8.13379C7.23645 8.1748 7.29895 8.19531 7.37219 8.19531ZM9.07879 9.12988C8.93426 9.12988 8.80828 9.10938 8.70086 9.06836C8.59344 9.02734 8.50897 8.96924 8.44744 8.89404C8.38689 8.81982 8.35223 8.73242 8.34344 8.63184H8.77117C8.78289 8.69336 8.81609 8.73926 8.87078 8.76953C8.92645 8.80078 8.99871 8.81641 9.08758 8.81641C9.19402 8.81641 9.27654 8.7915 9.33514 8.7417C9.39471 8.69287 9.42449 8.61523 9.42449 8.50879V8.21875H9.40398C9.37078 8.29199 9.31609 8.35352 9.23992 8.40332C9.16473 8.45215 9.06805 8.47656 8.94988 8.47656C8.82684 8.47656 8.71648 8.44775 8.61883 8.39014C8.52117 8.33154 8.44402 8.24365 8.38738 8.12646C8.33074 8.00928 8.30242 7.86523 8.30242 7.69434C8.30242 7.52051 8.33123 7.37305 8.38885 7.25195C8.44647 7.13086 8.5241 7.04004 8.62176 6.97949C8.72039 6.91895 8.82977 6.88867 8.94988 6.88867C9.07 6.88867 9.16668 6.9165 9.23992 6.97217C9.31316 7.02783 9.36785 7.0957 9.40398 7.17578H9.42156V6.90918H9.85223V8.51758C9.85223 8.64941 9.81951 8.76123 9.75408 8.85303C9.68865 8.94482 9.59783 9.01367 9.48162 9.05957C9.36541 9.10645 9.23113 9.12988 9.07879 9.12988ZM9.08465 8.15137C9.19207 8.15137 9.27557 8.11182 9.33514 8.03271C9.39471 7.95264 9.42449 7.8418 9.42449 7.7002C9.42449 7.55664 9.39471 7.44336 9.33514 7.36035C9.27557 7.27637 9.19207 7.23438 9.08465 7.23438C8.97723 7.23438 8.89422 7.27686 8.83563 7.36182C8.77703 7.4458 8.74773 7.55859 8.74773 7.7002C8.74773 7.83984 8.77654 7.9502 8.83416 8.03125C8.89275 8.11133 8.97625 8.15137 9.08465 8.15137Z" fill="#222222"/>
</svg>
