<svg width="12" height="12" viewBox="0 0 12 12" fill="none" xmlns="http://www.w3.org/2000/svg">
<path fill-rule="evenodd" clip-rule="evenodd" d="M2.15385 8.69231C2.45987 8.69231 2.75335 8.81387 2.96974 9.03026C3.18613 9.24665 3.30769 9.54014 3.30769 9.84615C3.30769 10.1522 3.18613 10.4457 2.96974 10.662C2.75335 10.8784 2.45987 11 2.15385 11C1.84783 11 1.55434 10.8784 1.33795 10.662C1.12157 10.4457 1 10.1522 1 9.84615C1 9.54014 1.12157 9.24665 1.33795 9.03026C1.55434 8.81387 1.84783 8.69231 2.15385 8.69231ZM6 8.69231C6.30602 8.69231 6.5995 8.81387 6.81589 9.03026C7.03228 9.24665 7.15385 9.54014 7.15385 9.84615C7.15385 10.1522 7.03228 10.4457 6.81589 10.662C6.5995 10.8784 6.30602 11 6 11C5.69398 11 5.4005 10.8784 5.18411 10.662C4.96772 10.4457 4.84615 10.1522 4.84615 9.84615C4.84615 9.54014 4.96772 9.24665 5.18411 9.03026C5.4005 8.81387 5.69398 8.69231 6 8.69231ZM9.84615 8.69231C10.1522 8.69231 10.4457 8.81387 10.662 9.03026C10.8784 9.24665 11 9.54014 11 9.84615C11 10.1522 10.8784 10.4457 10.662 10.662C10.4457 10.8784 10.1522 11 9.84615 11C9.54014 11 9.24665 10.8784 9.03026 10.662C8.81387 10.4457 8.69231 10.1522 8.69231 9.84615C8.69231 9.54014 8.81387 9.24665 9.03026 9.03026C9.24665 8.81387 9.54014 8.69231 9.84615 8.69231ZM2.15385 4.84615C2.45987 4.84615 2.75335 4.96772 2.96974 5.18411C3.18613 5.4005 3.30769 5.69398 3.30769 6C3.30769 6.30602 3.18613 6.5995 2.96974 6.81589C2.75335 7.03228 2.45987 7.15385 2.15385 7.15385C1.84783 7.15385 1.55434 7.03228 1.33795 6.81589C1.12157 6.5995 1 6.30602 1 6C1 5.69398 1.12157 5.4005 1.33795 5.18411C1.55434 4.96772 1.84783 4.84615 2.15385 4.84615ZM6 4.84615C6.30602 4.84615 6.5995 4.96772 6.81589 5.18411C7.03228 5.4005 7.15385 5.69398 7.15385 6C7.15385 6.30602 7.03228 6.5995 6.81589 6.81589C6.5995 7.03228 6.30602 7.15385 6 7.15385C5.69398 7.15385 5.4005 7.03228 5.18411 6.81589C4.96772 6.5995 4.84615 6.30602 4.84615 6C4.84615 5.69398 4.96772 5.4005 5.18411 5.18411C5.4005 4.96772 5.69398 4.84615 6 4.84615ZM9.84615 4.84615C10.1522 4.84615 10.4457 4.96772 10.662 5.18411C10.8784 5.4005 11 5.69398 11 6C11 6.30602 10.8784 6.5995 10.662 6.81589C10.4457 7.03228 10.1522 7.15385 9.84615 7.15385C9.54014 7.15385 9.24665 7.03228 9.03026 6.81589C8.81387 6.5995 8.69231 6.30602 8.69231 6C8.69231 5.69398 8.81387 5.4005 9.03026 5.18411C9.24665 4.96772 9.54014 4.84615 9.84615 4.84615ZM2.15385 1C2.45987 1 2.75335 1.12157 2.96974 1.33795C3.18613 1.55434 3.30769 1.84783 3.30769 2.15385C3.30769 2.45987 3.18613 2.75335 2.96974 2.96974C2.75335 3.18613 2.45987 3.30769 2.15385 3.30769C1.84783 3.30769 1.55434 3.18613 1.33795 2.96974C1.12157 2.75335 1 2.45987 1 2.15385C1 1.84783 1.12157 1.55434 1.33795 1.33795C1.55434 1.12157 1.84783 1 2.15385 1ZM6 1C6.30602 1 6.5995 1.12157 6.81589 1.33795C7.03228 1.55434 7.15385 1.84783 7.15385 2.15385C7.15385 2.45987 7.03228 2.75335 6.81589 2.96974C6.5995 3.18613 6.30602 3.30769 6 3.30769C5.69398 3.30769 5.4005 3.18613 5.18411 2.96974C4.96772 2.75335 4.84615 2.45987 4.84615 2.15385C4.84615 1.84783 4.96772 1.55434 5.18411 1.33795C5.4005 1.12157 5.69398 1 6 1ZM9.84615 1C10.1522 1 10.4457 1.12157 10.662 1.33795C10.8784 1.55434 11 1.84783 11 2.15385C11 2.45987 10.8784 2.75335 10.662 2.96974C10.4457 3.18613 10.1522 3.30769 9.84615 3.30769C9.54014 3.30769 9.24665 3.18613 9.03026 2.96974C8.81387 2.75335 8.69231 2.45987 8.69231 2.15385C8.69231 1.84783 8.81387 1.55434 9.03026 1.33795C9.24665 1.12157 9.54014 1 9.84615 1Z" fill="#222222"/>
</svg>
