<svg width="32" height="32" viewBox="0 0 32 32" fill="none" xmlns="http://www.w3.org/2000/svg">
<path d="M15.7525 4C18.8695 4 21.8587 5.23821 24.0628 7.44223C26.2668 9.64625 27.505 12.6355 27.505 15.7525C27.505 18.8695 26.2668 21.8587 24.0628 24.0628C21.8587 26.2668 18.8695 27.505 15.7525 27.505C12.6355 27.505 9.64625 26.2668 7.44223 24.0628C5.23821 21.8587 4 18.8695 4 15.7525C4 12.6355 5.23821 9.64625 7.44223 7.44223C9.64625 5.23821 12.6355 4 15.7525 4ZM15.7525 5.5C14.4061 5.5 13.0729 5.76519 11.829 6.28042C10.5851 6.79566 9.45492 7.55085 8.50289 8.50289C7.55085 9.45492 6.79566 10.5851 6.28042 11.829C5.76519 13.0729 5.5 14.4061 5.5 15.7525C5.5 17.0989 5.76519 18.4321 6.28042 19.676C6.79566 20.9199 7.55085 22.0501 8.50289 23.0021C9.45492 23.9541 10.5851 24.7093 11.829 25.2246C13.0729 25.7398 14.4061 26.005 15.7525 26.005C18.4716 26.005 21.0794 24.9248 23.0021 23.0021C24.9248 21.0794 26.005 18.4716 26.005 15.7525C26.005 13.0334 24.9248 10.4256 23.0021 8.50289C21.0794 6.58017 18.4716 5.5 15.7525 5.5ZM16.5025 7.75V15.325L23.0575 19.105L22.3075 20.4025L15.0025 16.1875V7.75H16.5025Z" fill="#222222"/>
</svg>
