<svg width="10" height="10" viewBox="0 0 10 10" fill="none" xmlns="http://www.w3.org/2000/svg">
<g clip-path="url(#clip0_1221_6945)">
<path fill-rule="evenodd" clip-rule="evenodd" d="M4.71789 0.493482L3.42726 3.26848L0.346011 3.66536C0.2864 3.67281 0.2302 3.69728 0.18414 3.73585C0.138081 3.77442 0.104114 3.82544 0.0863081 3.88282C0.068502 3.94019 0.067611 4.00149 0.083742 4.05936C0.0998729 4.11722 0.132342 4.16922 0.177261 4.20911L2.45851 6.26223L1.84289 9.34036C1.83129 9.39921 1.83688 9.46015 1.85898 9.51591C1.88108 9.57168 1.91876 9.6199 1.96753 9.65483C2.0163 9.68975 2.07408 9.70991 2.13399 9.71288C2.1939 9.71586 2.2534 9.70153 2.30539 9.67161L4.99914 8.10911L7.69601 9.67161C7.748 9.70153 7.8075 9.71586 7.86741 9.71288C7.92732 9.70991 7.9851 9.68975 8.03387 9.65483C8.08263 9.6199 8.12032 9.57168 8.14242 9.51591C8.16452 9.46015 8.17011 9.39921 8.15851 9.34036L7.54289 6.26223L9.82414 4.20911C9.86815 4.16884 9.89973 4.11681 9.91512 4.05918C9.93052 4.00154 9.92909 3.9407 9.91102 3.88385C9.89294 3.827 9.85897 3.77651 9.81312 3.73834C9.76727 3.70018 9.71145 3.67594 9.65226 3.66848L6.57101 3.26848L5.28351 0.493482C5.25865 0.438923 5.21863 0.392666 5.1682 0.36023C5.11778 0.327794 5.05909 0.310547 4.99914 0.310547C4.93918 0.310547 4.88049 0.327794 4.83007 0.36023C4.77965 0.392666 4.73962 0.438923 4.71476 0.493482H4.71789Z" fill="#222222"/>
</g>
<defs>
<clipPath id="clip0_1221_6945">
<rect width="10" height="10" fill="white"/>
</clipPath>
</defs>
</svg>
