<svg width="24" height="24" viewBox="0 0 24 24" fill="none" xmlns="http://www.w3.org/2000/svg">
<path d="M9.625 3V3.93938H14.4963V3H15.6213V3.93938H18.9963C19.2806 3.93857 19.5546 4.04545 19.7633 4.23851C19.9721 4.43157 20.0999 4.69649 20.1213 4.98V14.0194C20.1218 14.2822 20.0302 14.537 19.8625 14.7394L19.795 14.8125L14.8731 19.7344C14.6862 19.9218 14.4393 20.0373 14.1756 20.0606H6.8125C6.08754 20.0613 5.3903 19.7821 4.86627 19.2811C4.34224 18.7801 4.0319 18.0961 4 17.3719V5.06438C3.9992 4.78007 4.10608 4.506 4.29914 4.29728C4.4922 4.08857 4.75712 3.9607 5.04063 3.93938H8.5V3H9.625ZM18.9963 9.56438H5.125V17.2481C5.12423 17.6787 5.28805 18.0932 5.58294 18.407C5.87783 18.7207 6.28148 18.9098 6.71125 18.9356H13V15.7519C12.9993 15.0269 13.2786 14.3297 13.7795 13.8056C14.2805 13.2816 14.9645 12.9713 15.6888 12.9394H18.9963V9.56438ZM18.9513 14.0644H15.8125C15.382 14.0636 14.9674 14.2274 14.6537 14.5223C14.34 14.8172 14.1508 15.2209 14.125 15.6506V18.8906L18.9513 14.0644ZM8.5 5.06438H5.125V8.43938H18.9963V5.06438H15.6213V5.99813H14.4963V5.06438H9.625V5.99813H8.5V5.06438Z" fill="#222222"/>
</svg>
