<svg width="18" height="18" viewBox="0 0 18 18" fill="none" xmlns="http://www.w3.org/2000/svg">
<path d="M1.15312 3.54375L2.25 4.62938V14.0625C2.24922 14.4931 2.41305 14.9076 2.70794 15.2213C3.00283 15.535 3.40647 15.7242 3.83625 15.75H13.365L14.4619 16.8469C14.3719 16.8581 14.2762 16.8694 14.1806 16.8694L14.0625 16.875H3.9375C3.21253 16.8757 2.5153 16.5964 1.99127 16.0955C1.46724 15.5945 1.1569 14.9105 1.125 14.1863V3.9375C1.125 3.8025 1.13625 3.6675 1.15312 3.54375ZM2.08688 1.29375L16.7119 15.9188L15.9131 16.7063L1.28812 2.08125L2.08688 1.29375ZM14.0625 1.125C14.7875 1.1243 15.4847 1.40357 16.0087 1.90454C16.5328 2.40551 16.8431 3.08949 16.875 3.81375V14.0625C16.8749 14.1942 16.8655 14.3258 16.8469 14.4563L15.75 13.3706V3.9375C15.7508 3.50695 15.587 3.09239 15.2921 2.77868C14.9972 2.46496 14.5935 2.27583 14.1637 2.25H4.635L3.54375 1.15313C3.63375 1.14188 3.72938 1.13063 3.825 1.13063L3.9375 1.125H14.0625ZM6.24375 9.5625C6.35398 10.103 6.62073 10.5992 7.01079 10.9892C7.40085 11.3793 7.897 11.646 8.4375 11.7563V12.8981C7.59588 12.7768 6.81614 12.3864 6.21488 11.7851C5.61362 11.1839 5.22316 10.4041 5.10187 9.5625H6.24375ZM9.5625 11.9475L10.3219 12.7125C10.0756 12.7996 9.82119 12.8618 9.5625 12.8981V11.9475ZM11.9475 9.5625H12.8981C12.8588 9.82688 12.7969 10.08 12.7069 10.3219L11.9475 9.5625ZM9.5625 5.10188C10.4041 5.22316 11.1839 5.61363 11.7851 6.21488C12.3864 6.81614 12.7768 7.59589 12.8981 8.4375H11.7562C11.646 7.897 11.3793 7.40085 10.9892 7.01079C10.5992 6.62073 10.103 6.35398 9.5625 6.24375V5.10188ZM5.2875 7.67813L6.0525 8.4375H5.10187C5.14125 8.17313 5.20312 7.92 5.2875 7.67813ZM8.4375 5.10188V6.0525L7.67812 5.2875C7.92441 5.20041 8.17881 5.13822 8.4375 5.10188ZM12.9375 4.5C13.0867 4.5 13.2298 4.55926 13.3352 4.66475C13.4407 4.77024 13.5 4.91332 13.5 5.0625C13.5 5.21169 13.4407 5.35476 13.3352 5.46025C13.2298 5.56574 13.0867 5.625 12.9375 5.625C12.7883 5.625 12.6452 5.56574 12.5398 5.46025C12.4343 5.35476 12.375 5.21169 12.375 5.0625C12.375 4.91332 12.4343 4.77024 12.5398 4.66475C12.6452 4.55926 12.7883 4.5 12.9375 4.5Z" fill="#999999"/>
</svg>
