<svg width="18" height="18" viewBox="0 0 18 18" fill="none" xmlns="http://www.w3.org/2000/svg">
<path d="M14.625 10.6875C14.625 10.8367 14.5657 10.9798 14.4602 11.0852C14.3548 11.1907 14.2117 11.25 14.0625 11.25C13.9133 11.25 13.7702 11.1907 13.6648 11.0852C13.5593 10.9798 13.5 10.8367 13.5 10.6875C13.5 10.5383 13.5593 10.3952 13.6648 10.2898C13.7702 10.1843 13.9133 10.125 14.0625 10.125C14.2117 10.125 14.3548 10.1843 14.4602 10.2898C14.5657 10.3952 14.625 10.5383 14.625 10.6875ZM3.9375 10.125C3.78832 10.125 3.64524 10.1843 3.53975 10.2898C3.43426 10.3952 3.375 10.5383 3.375 10.6875C3.375 10.8367 3.43426 10.9798 3.53975 11.0852C3.64524 11.1907 3.78832 11.25 3.9375 11.25C4.08668 11.25 4.22976 11.1907 4.33525 11.0852C4.44074 10.9798 4.5 10.8367 4.5 10.6875C4.5 10.5383 4.44074 10.3952 4.33525 10.2898C4.22976 10.1843 4.08668 10.125 3.9375 10.125ZM15.5813 7.3125L15.8119 7.9425C16.1417 8.20297 16.4086 8.53447 16.5927 8.91233C16.7768 9.29019 16.8733 9.7047 16.875 10.125V15.1875C16.875 15.4859 16.7565 15.772 16.5455 15.983C16.3345 16.194 16.0484 16.3125 15.75 16.3125H14.625C14.3266 16.3125 14.0405 16.194 13.8295 15.983C13.6185 15.772 13.5 15.4859 13.5 15.1875V14.0625H4.5V15.1875C4.5 15.4859 4.38147 15.772 4.1705 15.983C3.95952 16.194 3.67337 16.3125 3.375 16.3125H2.25C1.95163 16.3125 1.66548 16.194 1.4545 15.983C1.24353 15.772 1.125 15.4859 1.125 15.1875V10.125C1.125 9.24188 1.54688 8.46 2.18813 7.9425L2.41875 7.3125H1.125V6.1875H2.8125V6.27187L3.83625 3.54375C3.91637 3.32932 4.05999 3.14444 4.24794 3.01378C4.43589 2.88312 4.65922 2.8129 4.88812 2.8125H13.1119C13.5787 2.8125 14.0006 3.105 14.1637 3.54375L15.1875 6.27187V6.1875H16.875V7.3125H15.5813ZM3.375 14.0625H2.25V15.1875H3.375V14.0625ZM15.75 14.0625H14.625V15.1875H15.75V14.0625ZM15.75 12.9375V10.125C15.75 9.67745 15.5722 9.24822 15.2557 8.93176C14.9393 8.61529 14.5101 8.4375 14.0625 8.4375H3.9375C3.48995 8.4375 3.06072 8.61529 2.74426 8.93176C2.42779 9.24822 2.25 9.67745 2.25 10.125V12.9375H15.75ZM14.0625 7.3125H14.3775L13.1062 3.9375H4.88812L3.6225 7.3125H14.0625ZM5.625 11.25H12.375V10.125H5.625V11.25Z" fill="#222222"/>
</svg>
