<svg width="24" height="24" viewBox="0 0 24 24" fill="none" xmlns="http://www.w3.org/2000/svg">
<path d="M16.3093 3L21.0723 8.557L11.9993 20.5175L2.92578 8.557L7.68878 3H16.3093Z" fill="#E31C5F" fill-opacity="0.2"/>
<path d="M17.2295 1L23.6417 8.48085L11.9995 23.8273L0.357422 8.48085L6.76958 1H17.2295ZM8.27092 9H2.00692L11.1364 21.0345L8.27092 9ZM21.9914 9H15.7274L12.8624 21.0345L21.9914 9ZM14.6999 9H9.29892L11.9995 20.342L14.6999 9ZM6.73992 2.57L2.08592 8H8.03292L6.73992 2.57ZM16.3664 1.9995H7.63242L9.06092 8H14.9379L16.3664 1.9995ZM17.2584 2.57L15.9654 8H21.9124L17.2584 2.57Z" fill="#E31C5F"/>
</svg>
