<svg width="32" height="32" viewBox="0 0 32 32" fill="none" xmlns="http://www.w3.org/2000/svg">
<path d="M7.025 6L26.525 25.5L25.475 26.55L5.975 7.05L7.025 6ZM13.1525 16.3575L14.2325 17.4375L11.45 21.375C11.277 21.6177 11.1801 21.9064 11.1719 22.2043C11.1636 22.5022 11.2443 22.7959 11.4037 23.0478C11.563 23.2996 11.7938 23.4983 12.0665 23.6185C12.3392 23.7387 12.6416 23.7749 12.935 23.7225L13.0625 23.6925L16.0625 22.89C16.1552 22.8643 16.2519 22.8567 16.3475 22.8675L16.445 22.89L19.445 23.6925C19.7693 23.7771 20.1125 23.7507 20.42 23.6175L21.515 24.72C21.1792 24.9478 20.8007 25.1052 20.4024 25.1825C20.004 25.2599 19.5941 25.2556 19.1975 25.17L19.0475 25.14L16.25 24.39L13.4525 25.14C12.711 25.3378 11.9219 25.2438 11.2475 24.8775L11.0975 24.795L10.9475 24.6975C10.3194 24.2546 9.8853 23.5876 9.73459 22.8341C9.58387 22.0805 9.72809 21.2979 10.1375 20.6475L10.22 20.5125L13.1525 16.3575ZM24.5 13.275C25.2956 13.275 26.0587 13.5911 26.6213 14.1537C27.1839 14.7163 27.5 15.4794 27.5 16.275C27.5 17.0706 27.1839 17.8337 26.6213 18.3963C26.0587 18.9589 25.2956 19.275 24.5 19.275C23.7044 19.275 22.9413 18.9589 22.3787 18.3963C21.8161 17.8337 21.5 17.0706 21.5 16.275C21.5 15.4794 21.8161 14.7163 22.3787 14.1537C22.9413 13.5911 23.7044 13.275 24.5 13.275ZM8 13.275C8.79565 13.275 9.55871 13.5911 10.1213 14.1537C10.6839 14.7163 11 15.4794 11 16.275C11 17.0706 10.6839 17.8337 10.1213 18.3963C9.55871 18.9589 8.79565 19.275 8 19.275C7.20435 19.275 6.44129 18.9589 5.87868 18.3963C5.31607 17.8337 5 17.0706 5 16.275C5 15.4794 5.31607 14.7163 5.87868 14.1537C6.44129 13.5911 7.20435 13.275 8 13.275ZM24.5 14.775C24.1022 14.775 23.7206 14.933 23.4393 15.2143C23.158 15.4956 23 15.8772 23 16.275C23 16.6728 23.158 17.0544 23.4393 17.3357C23.7206 17.617 24.1022 17.775 24.5 17.775C24.8978 17.775 25.2794 17.617 25.5607 17.3357C25.842 17.0544 26 16.6728 26 16.275C26 15.8772 25.842 15.4956 25.5607 15.2143C25.2794 14.933 24.8978 14.775 24.5 14.775ZM8 14.775C7.60218 14.775 7.22064 14.933 6.93934 15.2143C6.65804 15.4956 6.5 15.8772 6.5 16.275C6.5 16.6728 6.65804 17.0544 6.93934 17.3357C7.22064 17.617 7.60218 17.775 8 17.775C8.39782 17.775 8.77936 17.617 9.06066 17.3357C9.34196 17.0544 9.5 16.6728 9.5 16.275C9.5 15.8772 9.34196 15.4956 9.06066 15.2143C8.77936 14.933 8.39782 14.775 8 14.775ZM20 7.275C20.7956 7.275 21.5587 7.59107 22.1213 8.15368C22.6839 8.71629 23 9.47935 23 10.275C23 11.0706 22.6839 11.8337 22.1213 12.3963C21.5587 12.9589 20.7956 13.275 20 13.275C19.2044 13.275 18.4413 12.9589 17.8787 12.3963C17.3161 11.8337 17 11.0706 17 10.275C17 9.47935 17.3161 8.71629 17.8787 8.15368C18.4413 7.59107 19.2044 7.275 20 7.275ZM12.5 7.275C13.0371 7.27492 13.5643 7.41901 14.0266 7.69223C14.489 7.96545 14.8696 8.35778 15.1285 8.82826C15.3875 9.29874 15.5155 9.83012 15.499 10.3669C15.4826 10.9037 15.3223 11.4263 15.035 11.88L13.9175 10.755C14.0065 10.4899 14.0196 10.2052 13.9554 9.93311C13.8912 9.66096 13.7522 9.41219 13.5541 9.21486C13.356 9.01753 13.1066 8.87951 12.8342 8.81636C12.5618 8.75322 12.2772 8.76746 12.0125 8.8575L10.895 7.725C11.3764 7.42563 11.9331 7.26955 12.5 7.275ZM20 8.775C19.6022 8.775 19.2206 8.93304 18.9393 9.21434C18.658 9.49564 18.5 9.87718 18.5 10.275C18.5 10.6728 18.658 11.0544 18.9393 11.3357C19.2206 11.617 19.6022 11.775 20 11.775C20.3978 11.775 20.7794 11.617 21.0607 11.3357C21.342 11.0544 21.5 10.6728 21.5 10.275C21.5 9.87718 21.342 9.49564 21.0607 9.21434C20.7794 8.93304 20.3978 8.775 20 8.775Z" fill="#999999"/>
</svg>
