<svg width="12" height="12" viewBox="0 0 12 12" fill="none" xmlns="http://www.w3.org/2000/svg">
<g clip-path="url(#clip0_108_4673)">
<path d="M10.5 2.25024H6.375V1.50024C6.375 1.30133 6.29598 1.11057 6.15533 0.969914C6.01468 0.829262 5.82391 0.750244 5.625 0.750244H1.125V11.2502H1.875V6.75024H5.625V7.50024C5.625 7.69916 5.70402 7.88992 5.84467 8.03057C5.98532 8.17123 6.17609 8.25024 6.375 8.25024H10.545C10.5993 8.24379 10.6516 8.22553 10.6981 8.19675C10.7446 8.16796 10.7843 8.12934 10.8143 8.08361C10.8443 8.03787 10.864 7.98612 10.8718 7.93199C10.8797 7.87785 10.8757 7.82265 10.86 7.77024L10.14 5.25024L10.86 2.73024C10.8763 2.67436 10.8794 2.61544 10.869 2.55816C10.8585 2.50088 10.8349 2.44682 10.8 2.40024C10.7651 2.35367 10.7198 2.31587 10.6677 2.28983C10.6156 2.2638 10.5582 2.25024 10.5 2.25024Z" fill="#222222"/>
</g>
<defs>
<clipPath id="clip0_108_4673">
<rect width="12" height="12" fill="white" transform="translate(0 0.000244141)"/>
</clipPath>
</defs>
</svg>
