<svg width="18" height="18" viewBox="0 0 18 18" fill="none" xmlns="http://www.w3.org/2000/svg">
<path d="M8.76937 1.07447L9.34313 1.52447C12.4706 3.9601 14.0625 6.44635 14.0625 8.98885C14.0666 9.56701 13.9714 10.1416 13.7812 10.6876H17.4375V11.8126H16.3125V16.8751C16.3135 17.0133 16.2636 17.147 16.1723 17.2508C16.081 17.3545 15.9547 17.421 15.8175 17.4376H2.25C2.11181 17.4386 1.97808 17.3887 1.87433 17.2974C1.77059 17.2061 1.70408 17.0798 1.6875 16.9426V11.8126H0.5625V10.6876H4.17375C4.01625 10.1813 3.9375 9.61322 3.9375 8.99447C3.9375 7.72885 4.55625 6.28322 5.77688 4.6351L5.92875 4.43822L6.23812 4.0276L7.23938 4.6576L8.775 1.06885L8.76937 1.07447ZM15.1875 11.8126H2.8125V16.3126H15.1875V11.8126ZM9.225 2.86885L7.7625 6.3001L6.51937 5.52947L6.42375 5.66447C5.55188 6.91885 5.10187 7.9876 5.0625 8.87072L5.05687 8.98885C5.05687 9.6076 5.1525 10.1363 5.32688 10.592L5.36625 10.6876H7.05375C7.03377 10.5328 7.02437 10.3768 7.02562 10.2207C7.02562 9.36572 7.50938 8.42635 8.44313 7.36885L8.57812 7.21697L8.99438 6.76135L9.41062 7.21135C10.4344 8.33635 10.9631 9.32635 10.9631 10.2207C10.9631 10.3895 10.9519 10.5413 10.935 10.6876H12.6562L12.5775 10.6482C12.8202 10.1292 12.9414 9.56172 12.9319 8.98885C12.9319 7.0651 11.79 5.09072 9.46125 3.07697L9.21937 2.87447L9.225 2.86885ZM9 8.4601L8.955 8.51635C8.44875 9.1576 8.19 9.70322 8.16188 10.1363L8.15625 10.2207C8.15625 10.4176 8.17313 10.5751 8.20687 10.6876H9.79313C9.82687 10.5751 9.84375 10.4176 9.84375 10.2207C9.84375 9.77635 9.585 9.20822 9.045 8.51072L9 8.45447V8.4601Z" fill="#222222"/>
</svg>
