<svg width="18" height="18" viewBox="0 0 18 18" fill="none" xmlns="http://www.w3.org/2000/svg">
<g clip-path="url(#clip0_341_10420)">
<path d="M1.96267 4.34813L2.77267 5.15813C2.0598 6.31254 1.68378 7.64322 1.68705 9C1.68679 10.3015 2.0339 11.5795 2.69255 12.7021C3.3512 13.8246 4.29751 14.751 5.4338 15.3857C6.57009 16.0203 7.85517 16.3402 9.15638 16.3123C10.4576 16.2844 11.7278 15.9097 12.8358 15.2269L13.6514 16.0369C12.2727 16.9519 10.6543 17.4391 8.99955 17.4375C7.47546 17.4371 5.97995 17.0238 4.67187 16.2417C3.36379 15.4595 2.29199 14.3377 1.57032 12.9953C0.848641 11.6529 0.504044 10.1401 0.573127 8.61755C0.642211 7.09503 1.1224 5.61965 1.96267 4.34813ZM2.08642 1.28813L16.7114 15.9131L15.9127 16.7119L1.28767 2.08688L2.08642 1.28813ZM8.99955 0.562501C10.5241 0.561919 12.0204 0.974421 13.3292 1.75617C14.6381 2.53791 15.7107 3.65968 16.4331 5.00226C17.1554 6.34483 17.5005 7.85804 17.4317 9.38105C17.3628 10.9041 16.8826 12.38 16.0421 13.6519L15.2264 12.8363C15.9383 11.6835 16.3143 10.3549 16.312 9C16.312 7.06061 15.5416 5.20064 14.1703 3.82928C12.7989 2.45792 10.9389 1.6875 8.99955 1.6875C7.64277 1.68423 6.31209 2.06025 5.15767 2.77313L4.3533 1.96875C5.72985 1.05285 7.34614 0.563656 8.99955 0.562501ZM6.2433 9.5625C6.35353 10.103 6.62028 10.5992 7.01033 10.9892C7.40039 11.3793 7.89655 11.646 8.43705 11.7563V12.8981C7.59543 12.7768 6.81569 12.3864 6.21443 11.7851C5.61317 11.1839 5.22271 10.4041 5.10142 9.5625H6.2433ZM9.56205 11.9475L10.3214 12.7125C10.0751 12.7996 9.82074 12.8618 9.56205 12.8981V11.9475ZM11.9471 9.5625H12.8977C12.8583 9.82688 12.7964 10.08 12.7064 10.3219L11.9471 9.5625ZM9.56205 5.10188C10.4037 5.22316 11.1834 5.61363 11.7847 6.21488C12.3859 6.81614 12.7764 7.59589 12.8977 8.4375H11.7558C11.6456 7.897 11.3788 7.40085 10.9888 7.01079C10.5987 6.62073 10.1026 6.35398 9.56205 6.24375V5.10188ZM5.28705 7.67813L6.05205 8.4375H5.10142C5.1408 8.17313 5.20267 7.92 5.28705 7.67813ZM8.43705 5.10188V6.0525L7.67767 5.2875C7.92396 5.20041 8.17836 5.13822 8.43705 5.10188ZM12.937 4.5C13.0862 4.5 13.2293 4.55926 13.3348 4.66475C13.4403 4.77024 13.4995 4.91332 13.4995 5.0625C13.4995 5.21168 13.4403 5.35476 13.3348 5.46025C13.2293 5.56574 13.0862 5.625 12.937 5.625C12.7879 5.625 12.6448 5.56574 12.5393 5.46025C12.4338 5.35476 12.3745 5.21168 12.3745 5.0625C12.3745 4.91332 12.4338 4.77024 12.5393 4.66475C12.6448 4.55926 12.7879 4.5 12.937 4.5Z" fill="#999999"/>
</g>
<defs>
<clipPath id="clip0_341_10420">
<rect width="18" height="18" fill="white"/>
</clipPath>
</defs>
</svg>
