<svg width="24" height="24" viewBox="0 0 24 24" fill="none" xmlns="http://www.w3.org/2000/svg">
<path fill-rule="evenodd" clip-rule="evenodd" d="M12 5.83113C11.0099 4.69758 9.525 4 7.95 4C5.15991 4 3 6.09254 3 8.79563C3 12.0641 5.97797 14.6965 10.5081 18.7012C10.5701 18.7559 10.6323 18.8109 10.6948 18.8662L12 20L13.3052 18.8662C13.3676 18.811 13.4297 18.7561 13.4915 18.7015C18.0219 14.6967 21 12.0642 21 8.79563C21 6.09254 18.8401 4 16.05 4C14.475 4 12.9901 4.69758 12 5.83113Z" fill="#FF385C"/>
<path d="M7.95 4C9.525 4 11.0099 4.69758 12 5.83113C12.9901 4.69758 14.475 4 16.05 4C18.8401 4 21 6.09254 21 8.79563C21 12.1088 17.9401 14.7685 13.3052 18.8662L12 20L10.6948 18.8662C6.05996 14.7684 3 12.1088 3 8.79563C3 6.09254 5.15991 4 7.95 4ZM11.4446 17.719L11.6271 17.8804L12 18.2043L12.3728 17.8805L12.5551 17.7192C14.7367 15.7908 16.6208 14.1253 17.8663 12.6362C19.0759 11.1898 19.6154 10.0053 19.6154 8.79563C19.6154 7.84292 19.251 6.96517 18.5893 6.32413C17.9297 5.68521 17.028 5.33333 16.05 5.33333C14.9192 5.33333 13.8013 5.84029 13.0597 6.68937L12 7.90254L10.9404 6.68937C10.1987 5.84029 9.08084 5.33333 7.95 5.33333C6.97198 5.33333 6.07025 5.68521 5.4107 6.32408C4.74903 6.96517 4.38461 7.84288 4.38461 8.79563C4.38461 10.0053 4.92405 11.1897 6.13364 12.6361C7.37911 14.1252 9.26309 15.7906 11.4446 17.719Z" fill="white"/>
</svg>
