<svg width="14" height="14" viewBox="0 0 14 14" fill="none" xmlns="http://www.w3.org/2000/svg">
<path d="M7 12.25C10.0625 10.1806 13.125 7.87496 13.125 4.81246C13.1262 4.40996 13.0477 4.01121 12.8942 3.63912C12.7407 3.26704 12.5152 2.92898 12.2306 2.64437C11.946 2.35976 11.6079 2.13422 11.2358 1.98072C10.8638 1.82723 10.465 1.7488 10.0625 1.74996C9.275 1.74996 8.49625 2.04746 7.89688 2.64683L7 3.54371L6.10313 2.64683C5.81933 2.36137 5.4819 2.13484 5.11024 1.98026C4.73858 1.82567 4.34003 1.74609 3.9375 1.74609C3.53498 1.74609 3.13642 1.82567 2.76476 1.98026C2.3931 2.13484 2.05567 2.36137 1.77188 2.64683C1.48712 2.93095 1.26129 3.26852 1.10738 3.64017C0.953467 4.01181 0.874496 4.4102 0.875002 4.81246C0.875002 7.87496 3.9375 10.1806 7 12.25Z" fill="#FF385C" stroke="#FF385C" stroke-width="0.875"/>
</svg>
