<svg width="14" height="15" viewBox="0 0 14 15" fill="none" xmlns="http://www.w3.org/2000/svg">
<rect y="0.5" width="14" height="14" rx="1" fill="#222222"/>
<path d="M4.92924 2.53497C4.39723 2.56007 4.03393 2.64497 3.71633 2.76977C3.38762 2.89787 3.10902 3.06977 2.83182 3.34797C2.55461 3.62617 2.38391 3.90497 2.25671 4.23417C2.13361 4.55248 2.05021 4.91608 2.02671 5.44838C2.00321 5.98068 1.99801 6.15178 2.00061 7.50959C2.00321 8.86739 2.00921 9.03759 2.03501 9.57099C2.06041 10.1029 2.14501 10.4661 2.26981 10.7838C2.39811 11.1125 2.56981 11.391 2.84812 11.6683C3.12642 11.9456 3.40502 12.1159 3.73503 12.2433C4.05303 12.3662 4.41673 12.45 4.94894 12.4733C5.48114 12.4966 5.65245 12.502 7.00986 12.4994C8.36727 12.4968 8.53817 12.4908 9.07148 12.4655C9.60478 12.4402 9.96609 12.355 10.2839 12.2308C10.6126 12.1022 10.8913 11.9308 11.1684 11.6524C11.4455 11.374 11.6161 11.095 11.7432 10.7656C11.8664 10.4476 11.9501 10.0839 11.9732 9.55209C11.9965 9.01839 12.002 8.84799 11.9994 7.49039C11.9968 6.13278 11.9907 5.96258 11.9654 5.42938C11.9401 4.89618 11.8554 4.53408 11.7307 4.21617C11.6022 3.88747 11.4307 3.60917 11.1525 3.33167C10.8743 3.05417 10.5951 2.88367 10.2658 2.75687C9.94759 2.63377 9.58408 2.54987 9.05188 2.52687C8.51967 2.50387 8.34837 2.49797 6.99046 2.50057C5.63255 2.50317 5.46254 2.50897 4.92924 2.53497ZM4.98764 11.5738C4.50013 11.5526 4.23543 11.4716 4.05903 11.4038C3.82543 11.3138 3.65902 11.205 3.48322 11.0309C3.30742 10.8568 3.19942 10.6898 3.10822 10.4567C3.03972 10.2803 2.95722 10.0159 2.93442 9.52839C2.90962 9.00149 2.90442 8.84329 2.90152 7.50839C2.89862 6.17348 2.90372 6.01548 2.92682 5.48838C2.94762 5.00128 3.02912 4.73628 3.09682 4.55998C3.18682 4.32608 3.29522 4.15997 3.46972 3.98427C3.64422 3.80857 3.81073 3.70037 4.04403 3.60917C4.22023 3.54037 4.48463 3.45857 4.97194 3.43537C5.49924 3.41037 5.65725 3.40537 6.99196 3.40247C8.32667 3.39957 8.48507 3.40457 9.01258 3.42777C9.49968 3.44897 9.76479 3.52967 9.94089 3.59777C10.1746 3.68777 10.3409 3.79587 10.5166 3.97067C10.6923 4.14547 10.8006 4.31138 10.8918 4.54518C10.9607 4.72088 11.0425 4.98518 11.0655 5.47278C11.0906 6.00008 11.0963 6.15818 11.0987 7.49279C11.1011 8.82739 11.0964 8.98589 11.0733 9.51279C11.052 10.0003 10.9712 10.2651 10.9033 10.4417C10.8133 10.6752 10.7048 10.8417 10.5302 11.0173C10.3556 11.1929 10.1893 11.3011 9.95589 11.3923C9.77989 11.461 9.51518 11.543 9.02828 11.5662C8.50097 11.591 8.34297 11.5962 7.00776 11.5991C5.67255 11.602 5.51504 11.5966 4.98774 11.5738M9.06378 4.82768C9.06398 4.94635 9.09937 5.06231 9.16547 5.16087C9.23157 5.25944 9.32542 5.33618 9.43514 5.38141C9.54487 5.42663 9.66554 5.4383 9.78189 5.41494C9.89825 5.39158 10.0051 5.33423 10.0888 5.25016C10.1726 5.16609 10.2295 5.05907 10.2525 4.94263C10.2754 4.82619 10.2633 4.70556 10.2177 4.596C10.1721 4.48645 10.095 4.39288 9.99615 4.32714C9.89735 4.2614 9.78126 4.22644 9.66259 4.22667C9.50349 4.22699 9.35103 4.29048 9.23874 4.40319C9.12645 4.51589 9.06351 4.66858 9.06378 4.82768ZM4.43273 7.50499C4.43553 8.92299 5.58714 10.0699 7.00486 10.0672C8.42257 10.0645 9.57028 8.91299 9.56758 7.49499C9.56488 6.07698 8.41297 4.92978 6.99506 4.93258C5.57714 4.93538 4.43003 6.08718 4.43273 7.50499ZM5.33334 7.50319C5.33269 7.17354 5.4298 6.85111 5.6124 6.57666C5.795 6.30221 6.05488 6.08807 6.35918 5.96132C6.66349 5.83457 6.99854 5.8009 7.32198 5.86457C7.64542 5.92824 7.94271 6.08639 8.17627 6.31902C8.40982 6.55165 8.56915 6.84831 8.6341 7.17149C8.69905 7.49468 8.66671 7.82986 8.54116 8.13466C8.41562 8.43946 8.2025 8.70019 7.92878 8.88387C7.65505 9.06755 7.333 9.16594 7.00336 9.16659C6.78447 9.16705 6.56764 9.12439 6.36525 9.04104C6.16286 8.95769 5.97887 8.83529 5.82379 8.68082C5.66871 8.52635 5.54557 8.34285 5.46142 8.14079C5.37727 7.93873 5.33375 7.72207 5.33334 7.50319Z" fill="white"/>
</svg>
