<svg width="12" height="12" viewBox="0 0 12 12" fill="none" xmlns="http://www.w3.org/2000/svg">
<g clip-path="url(#clip0_670_7899)">
<path d="M6 0.1875C7.54425 0.191474 9.02378 0.808224 10.1136 1.90228C11.2035 2.99634 11.8145 4.47825 11.8125 6.0225C11.8073 7.53075 11.2161 8.97793 10.1637 10.0583C9.11126 11.1387 7.68009 11.7677 6.1725 11.8125H5.985C4.47671 11.8093 3.02872 11.22 1.94691 10.169C0.865101 9.11795 0.234205 7.68757 0.1875 6.18V5.9925C0.189487 4.45223 0.802751 2.97572 1.89259 1.88729C2.98243 0.798856 4.45973 0.187499 6 0.1875ZM7.4625 6.5625H4.5375C4.65 8.7375 5.415 10.5675 5.9475 10.6875H6C6.51 10.6875 7.29 8.91 7.4475 6.765L7.4625 6.5625ZM10.6575 6.5625H8.5875C8.52 8.0325 8.19 9.3975 7.7025 10.3725C8.46295 10.0752 9.13272 9.58465 9.64567 8.94937C10.1586 8.3141 10.497 7.55603 10.6275 6.75L10.6575 6.5625ZM3.405 6.5625H1.35C1.45201 7.40541 1.78069 8.20489 2.30105 8.87581C2.82141 9.54673 3.51397 10.064 4.305 10.3725C3.7897 9.26484 3.49424 8.06772 3.435 6.8475L3.4125 6.5625H3.405ZM4.305 1.6275L4.215 1.665C3.4445 1.98233 2.77233 2.49901 2.26752 3.16198C1.76271 3.82496 1.44344 4.61035 1.3425 5.4375H3.405C3.4725 4.065 3.765 2.7825 4.2 1.83L4.305 1.6275ZM5.9925 1.3125C5.4675 1.3125 4.6575 3.195 4.5375 5.4375H7.4625C7.35 3.2625 6.5775 1.4325 6.045 1.3125H5.9925ZM7.7025 1.635L7.725 1.6725C8.26167 2.8571 8.55496 4.13741 8.5875 5.4375H10.65C10.5458 4.59728 10.2171 3.80068 9.69838 3.13152C9.17969 2.46236 8.49021 1.94539 7.7025 1.635Z" fill="#222222"/>
</g>
<defs>
<clipPath id="clip0_670_7899">
<rect width="12" height="12" fill="white"/>
</clipPath>
</defs>
</svg>
