<svg width="24" height="24" viewBox="0 0 24 24" fill="none" xmlns="http://www.w3.org/2000/svg">
<path d="M12.505 18.31V16.3975L12.3587 16.4481C11.8075 16.6281 11.2169 16.735 10.6094 16.7575H10.2156C8.5811 16.7162 7.02483 16.0489 5.86816 14.8933C4.71148 13.7377 4.04273 12.182 4 10.5475V10.2156C4.04132 8.58016 4.70944 7.02308 5.86626 5.86626C7.02308 4.70944 8.58016 4.04132 10.2156 4H10.5475C13.9394 4.09 16.6731 6.82375 16.7575 10.2156V10.5981C16.7301 11.3803 16.5585 12.1508 16.2513 12.8706L16.1781 13.0394L20.6275 17.4831V20.6331H17.4888L15.1656 18.31H12.505ZM8.83187 7.09375C9.06882 7.08028 9.30603 7.11531 9.52896 7.19671C9.75189 7.27812 9.95586 7.40417 10.1284 7.56715C10.3009 7.73014 10.4383 7.92662 10.5322 8.14457C10.6262 8.36253 10.6746 8.59736 10.6746 8.83469C10.6746 9.07202 10.6262 9.30685 10.5322 9.5248C10.4383 9.74275 10.3009 9.93924 10.1284 10.1022C9.95586 10.2652 9.75189 10.3913 9.52896 10.4727C9.30603 10.5541 9.06882 10.5891 8.83187 10.5756C8.3694 10.5756 7.92587 10.3919 7.59886 10.0649C7.27184 9.73788 7.08812 9.29435 7.08812 8.83187C7.08812 8.3694 7.27184 7.92587 7.59886 7.59886C7.92587 7.27184 8.3694 7.08812 8.83187 7.08812V7.09375ZM8.83187 8.2525C8.67822 8.2525 8.53085 8.31354 8.42219 8.42219C8.31354 8.53085 8.2525 8.67822 8.2525 8.83187C8.2525 8.98553 8.31354 9.1329 8.42219 9.24155C8.53085 9.35021 8.67822 9.41125 8.83187 9.41125C8.98553 9.41125 9.1329 9.35021 9.24155 9.24155C9.35021 9.1329 9.41125 8.98553 9.41125 8.83187C9.41125 8.67822 9.35021 8.53085 9.24155 8.42219C9.1329 8.31354 8.98553 8.2525 8.83187 8.2525ZM15.6494 17.1513L17.9669 19.4744H19.4688V17.9725L14.7606 13.2644L14.9688 12.8819L15.0588 12.7131C15.3737 12.0662 15.565 11.3519 15.5988 10.5925V10.2325C15.5592 8.90237 15.0131 7.63756 14.0722 6.6966C13.1312 5.75563 11.8664 5.20956 10.5363 5.17H10.2269C8.89674 5.20956 7.63193 5.75563 6.69097 6.6966C5.75001 7.63756 5.20394 8.90237 5.16437 10.2325V10.5363C5.18898 11.4065 5.43085 12.2567 5.86797 13.0096C6.30508 13.7625 6.92356 14.3941 7.6671 14.847C8.41065 15.2998 9.25564 15.5595 10.1252 15.6024C10.9947 15.6452 11.8611 15.47 12.6456 15.0925L12.8144 15.0025L13.6694 14.5525V17.1513H15.6494Z" fill="#222222"/>
</svg>
