<svg width="18" height="18" viewBox="0 0 18 18" fill="none" xmlns="http://www.w3.org/2000/svg">
<path d="M16.3125 2.8125C16.5968 2.8117 16.8709 2.91858 17.0796 3.11164C17.2883 3.3047 17.4162 3.56962 17.4375 3.85313V14.0625C17.4383 14.3468 17.3314 14.6209 17.1384 14.8296C16.9453 15.0383 16.6804 15.1662 16.3969 15.1875H1.6875C1.40319 15.1883 1.12913 15.0814 0.920414 14.8884C0.711702 14.6953 0.583827 14.4304 0.562504 14.1469V3.9375C0.561704 3.6532 0.668579 3.37913 0.861638 3.17041C1.0547 2.9617 1.31962 2.83383 1.60313 2.8125H1.6875H16.3125ZM16.3125 3.9375H1.6875V14.0625H16.3125V3.9375ZM11.8125 11.25V12.375H6.1875V11.25H11.8125ZM13.5 8.4375C13.6492 8.4375 13.7923 8.49677 13.8978 8.60226C14.0032 8.70775 14.0625 8.85082 14.0625 9C14.0625 9.14919 14.0032 9.29226 13.8978 9.39775C13.7923 9.50324 13.6492 9.5625 13.5 9.5625C13.3508 9.5625 13.2077 9.50324 13.1023 9.39775C12.9968 9.29226 12.9375 9.14919 12.9375 9C12.9375 8.85082 12.9968 8.70775 13.1023 8.60226C13.2077 8.49677 13.3508 8.4375 13.5 8.4375ZM11.25 8.4375C11.3992 8.4375 11.5423 8.49677 11.6478 8.60226C11.7532 8.70775 11.8125 8.85082 11.8125 9C11.8125 9.14919 11.7532 9.29226 11.6478 9.39775C11.5423 9.50324 11.3992 9.5625 11.25 9.5625C11.1008 9.5625 10.9577 9.50324 10.8523 9.39775C10.7468 9.29226 10.6875 9.14919 10.6875 9C10.6875 8.85082 10.7468 8.70775 10.8523 8.60226C10.9577 8.49677 11.1008 8.4375 11.25 8.4375ZM9 8.4375C9.14919 8.4375 9.29226 8.49677 9.39775 8.60226C9.50324 8.70775 9.5625 8.85082 9.5625 9C9.5625 9.14919 9.50324 9.29226 9.39775 9.39775C9.29226 9.50324 9.14919 9.5625 9 9.5625C8.85082 9.5625 8.70775 9.50324 8.60226 9.39775C8.49677 9.29226 8.4375 9.14919 8.4375 9C8.4375 8.85082 8.49677 8.70775 8.60226 8.60226C8.70775 8.49677 8.85082 8.4375 9 8.4375ZM6.75 8.4375C6.89919 8.4375 7.04226 8.49677 7.14775 8.60226C7.25324 8.70775 7.3125 8.85082 7.3125 9C7.3125 9.14919 7.25324 9.29226 7.14775 9.39775C7.04226 9.50324 6.89919 9.5625 6.75 9.5625C6.60082 9.5625 6.45775 9.50324 6.35226 9.39775C6.24677 9.29226 6.1875 9.14919 6.1875 9C6.1875 8.85082 6.24677 8.70775 6.35226 8.60226C6.45775 8.49677 6.60082 8.4375 6.75 8.4375ZM4.5 8.4375C4.64919 8.4375 4.79226 8.49677 4.89775 8.60226C5.00324 8.70775 5.0625 8.85082 5.0625 9C5.0625 9.14919 5.00324 9.29226 4.89775 9.39775C4.79226 9.50324 4.64919 9.5625 4.5 9.5625C4.35082 9.5625 4.20775 9.50324 4.10226 9.39775C3.99677 9.29226 3.9375 9.14919 3.9375 9C3.9375 8.85082 3.99677 8.70775 4.10226 8.60226C4.20775 8.49677 4.35082 8.4375 4.5 8.4375ZM13.5 6.1875C13.6492 6.1875 13.7923 6.24677 13.8978 6.35226C14.0032 6.45775 14.0625 6.60082 14.0625 6.75C14.0625 6.89919 14.0032 7.04226 13.8978 7.14775C13.7923 7.25324 13.6492 7.3125 13.5 7.3125C13.3508 7.3125 13.2077 7.25324 13.1023 7.14775C12.9968 7.04226 12.9375 6.89919 12.9375 6.75C12.9375 6.60082 12.9968 6.45775 13.1023 6.35226C13.2077 6.24677 13.3508 6.1875 13.5 6.1875ZM11.25 6.1875C11.3992 6.1875 11.5423 6.24677 11.6478 6.35226C11.7532 6.45775 11.8125 6.60082 11.8125 6.75C11.8125 6.89919 11.7532 7.04226 11.6478 7.14775C11.5423 7.25324 11.3992 7.3125 11.25 7.3125C11.1008 7.3125 10.9577 7.25324 10.8523 7.14775C10.7468 7.04226 10.6875 6.89919 10.6875 6.75C10.6875 6.60082 10.7468 6.45775 10.8523 6.35226C10.9577 6.24677 11.1008 6.1875 11.25 6.1875ZM9 6.1875C9.14919 6.1875 9.29226 6.24677 9.39775 6.35226C9.50324 6.45775 9.5625 6.60082 9.5625 6.75C9.5625 6.89919 9.50324 7.04226 9.39775 7.14775C9.29226 7.25324 9.14919 7.3125 9 7.3125C8.85082 7.3125 8.70775 7.25324 8.60226 7.14775C8.49677 7.04226 8.4375 6.89919 8.4375 6.75C8.4375 6.60082 8.49677 6.45775 8.60226 6.35226C8.70775 6.24677 8.85082 6.1875 9 6.1875ZM6.75 6.1875C6.89919 6.1875 7.04226 6.24677 7.14775 6.35226C7.25324 6.45775 7.3125 6.60082 7.3125 6.75C7.3125 6.89919 7.25324 7.04226 7.14775 7.14775C7.04226 7.25324 6.89919 7.3125 6.75 7.3125C6.60082 7.3125 6.45775 7.25324 6.35226 7.14775C6.24677 7.04226 6.1875 6.89919 6.1875 6.75C6.1875 6.60082 6.24677 6.45775 6.35226 6.35226C6.45775 6.24677 6.60082 6.1875 6.75 6.1875ZM4.5 6.1875C4.64919 6.1875 4.79226 6.24677 4.89775 6.35226C5.00324 6.45775 5.0625 6.60082 5.0625 6.75C5.0625 6.89919 5.00324 7.04226 4.89775 7.14775C4.79226 7.25324 4.64919 7.3125 4.5 7.3125C4.35082 7.3125 4.20775 7.25324 4.10226 7.14775C3.99677 7.04226 3.9375 6.89919 3.9375 6.75C3.9375 6.60082 3.99677 6.45775 4.10226 6.35226C4.20775 6.24677 4.35082 6.1875 4.5 6.1875Z" fill="#222222"/>
</svg>
