<svg width="18" height="18" viewBox="0 0 18 18" fill="none" xmlns="http://www.w3.org/2000/svg">
<path d="M14.625 0.562501C14.9943 0.562501 15.3601 0.635249 15.7013 0.77659C16.0425 0.917931 16.3526 1.1251 16.6137 1.38626C16.8749 1.64743 17.0821 1.95748 17.2234 2.2987C17.3648 2.63993 17.4375 3.00566 17.4375 3.375C17.4375 6.96938 16.5375 10.7944 15.1875 11.6438V17.4375H14.0625V11.6438C12.735 10.8113 11.8462 7.10438 11.8125 3.56625V3.25125C11.8444 2.52699 12.1547 1.84301 12.6788 1.34204C13.2028 0.841069 13.9 0.561799 14.625 0.562501ZM9.5625 0.562501V10.755C10.8675 11.0644 11.8125 12.4425 11.8125 14.0625C11.8125 15.9019 10.5863 17.4375 9 17.4375C7.41375 17.4375 6.1875 15.9019 6.1875 14.0625C6.1875 12.4481 7.1325 11.0644 8.4375 10.755V0.562501H9.5625ZM1.125 0.562501H1.6875C4.20187 0.562501 5.58563 4.14563 5.625 10.9688V11.8125H2.25V17.4375H1.125V0.562501ZM9 11.8125C8.1 11.8125 7.3125 12.7969 7.3125 14.0625C7.3125 15.3281 8.1 16.3125 9 16.3125C9.9 16.3125 10.6875 15.3281 10.6875 14.0625C10.6875 12.7969 9.9 11.8125 9 11.8125ZM2.25 1.8225V10.6875H4.5L4.48875 10.1475L4.47187 9.61313C4.31437 5.1525 3.51 2.59875 2.37375 1.89L2.30625 1.85625L2.25 1.8225ZM12.9375 3.27375V3.54938C12.9656 5.97938 13.5169 8.685 14.0625 9.95625V1.78313C13.7491 1.89326 13.4751 2.09346 13.275 2.35863C13.0749 2.6238 12.9575 2.94214 12.9375 3.27375ZM15.1875 1.78313V9.95625C15.7444 8.65688 16.3125 5.85 16.3125 3.375C16.3127 3.02588 16.2046 2.6853 16.0031 2.4002C15.8016 2.11509 15.5167 1.8995 15.1875 1.78313Z" fill="#222222"/>
</svg>
