<svg width="32" height="32" viewBox="0 0 32 32" fill="none" xmlns="http://www.w3.org/2000/svg">
<mask id="mask0_108_758" style="mask-type:luminance" maskUnits="userSpaceOnUse" x="7" y="2" width="18" height="29">
<path d="M7.63295 2.00049H24.1035V30.0005H7.63295V2.00049Z" fill="white"/>
</mask>
<g mask="url(#mask0_108_758)">
<path fill-rule="evenodd" clip-rule="evenodd" d="M10.9485 24.2399L11.5276 23.3979L10.0378 22.6931L9.45851 23.5352C8.17094 25.4072 8.79473 27.7135 10.8519 28.6866C11.5038 28.995 12.2513 29.1422 13.0199 29.1137L13.2979 29.1034L13.3633 27.5768L13.0853 27.5871C12.6242 27.6041 12.1756 27.5158 11.7844 27.3308C10.5502 26.7469 10.1758 25.3632 10.9485 24.2399Z" fill="#222222"/>
<path fill-rule="evenodd" clip-rule="evenodd" d="M17.2164 10.9556C15.6786 9.84179 14.9411 8.55183 15.0039 7.08579C15.0666 5.61975 15.9171 4.27084 17.5553 3.03906C19.0931 4.15294 19.8306 5.4429 19.7678 6.90893C19.705 8.37498 18.8546 9.72389 17.2164 10.9556Z" fill="#F7F7F7"/>
<path fill-rule="evenodd" clip-rule="evenodd" d="M18.2056 2.42808C17.888 2.19806 17.4065 2.21593 17.0682 2.47031C15.2794 3.81536 14.2568 5.3685 14.1823 7.11019C14.1077 8.85188 15.0003 10.3339 16.6794 11.5502C16.997 11.7803 17.4786 11.7623 17.8169 11.508C19.6057 10.163 20.6282 8.60981 20.7027 6.86813C20.7773 5.12644 19.8847 3.64438 18.2056 2.42808ZM17.5674 4.07232C18.5682 4.96057 18.9899 5.91296 18.9462 6.93333C18.9025 7.95371 18.3978 8.94049 17.3176 9.906C16.3168 9.01775 15.8951 8.06535 15.9388 7.04498C15.9825 6.02461 16.4872 5.03783 17.5674 4.07232Z" fill="#222222"/>
<path fill-rule="evenodd" clip-rule="evenodd" d="M10.7798 23.0464C12.1354 21.5589 13.6218 20.7853 15.2392 20.7252C16.8566 20.6651 18.2814 21.3308 19.5137 22.7222C18.1581 24.2096 16.6717 24.9833 15.0543 25.0434C13.4369 25.1034 12.0121 24.4378 10.7798 23.0464Z" fill="#F7F7F7"/>
<path fill-rule="evenodd" clip-rule="evenodd" d="M20.2091 23.1562C20.4692 22.8709 20.4858 22.4834 20.2493 22.2164C18.9101 20.7043 17.2603 19.8788 15.2954 19.9517C13.3305 20.0247 11.6045 20.9755 10.1314 22.592C9.87132 22.8774 9.8547 23.265 10.0911 23.5319C11.4304 25.044 13.0802 25.8694 15.0451 25.7965C17.0101 25.7236 18.7359 24.7728 20.2091 23.1562ZM18.3869 22.7547C17.306 23.7706 16.2169 24.2288 15.1105 24.2699C14.004 24.311 12.9508 23.9323 11.9536 22.9936C13.0344 21.9777 14.1236 21.5195 15.23 21.4783C16.3364 21.4373 17.3897 21.8161 18.3869 22.7547Z" fill="#222222"/>
<path fill-rule="evenodd" clip-rule="evenodd" d="M15.1594 20.1162C15.5644 18.2711 16.483 16.9561 17.9151 16.1711C19.3471 15.386 21.0063 15.288 22.8926 15.8771C22.4875 17.7222 21.569 19.0372 20.1369 19.8223C18.7048 20.6073 17.0457 20.7052 15.1594 20.1162Z" fill="#F7F7F7"/>
<path fill-rule="evenodd" clip-rule="evenodd" d="M23.8082 15.9513C23.886 15.5969 23.6749 15.2623 23.2995 15.1452C21.2342 14.5002 19.2762 14.5733 17.5427 15.5235C15.8172 16.4694 14.7875 18.0247 14.3492 20.0212C14.2714 20.3756 14.4825 20.7101 14.8579 20.8273C16.9232 21.4723 18.8812 21.3991 20.6147 20.4489C22.3402 19.503 23.3699 17.9478 23.8082 15.9513ZM21.9168 16.4074C21.4966 17.7457 20.7562 18.6312 19.7646 19.1747C18.7869 19.7106 17.6375 19.8751 16.2405 19.565C16.6608 18.2267 17.4012 17.3413 18.3928 16.7977C19.3705 16.2617 20.5199 16.0974 21.9168 16.4074Z" fill="#222222"/>
<path fill-rule="evenodd" clip-rule="evenodd" d="M17.5807 15.6733C16.9268 13.965 17.0313 12.461 17.8943 11.1614C18.7574 9.86171 20.2063 9.02635 22.2412 8.65527C22.8952 10.3636 22.7906 11.8676 21.9276 13.1673C21.0645 14.4669 19.6156 15.3023 17.5807 15.6733Z" fill="#F7F7F7"/>
<path fill-rule="evenodd" clip-rule="evenodd" d="M23.0484 8.37254C22.9181 8.03219 22.5186 7.84081 22.0985 7.91743C19.865 8.32473 18.1455 9.27446 17.1127 10.8297C16.0841 12.3787 16.0061 14.1222 16.7154 15.975C16.8457 16.3154 17.2451 16.5068 17.6653 16.4301C19.8987 16.0228 21.6183 15.0731 22.651 13.5179C23.6797 11.9688 23.7577 10.2254 23.0484 8.37254ZM21.58 9.5786C21.9284 10.8608 21.7486 11.9282 21.146 12.8355C20.5515 13.7308 19.6004 14.3886 18.1838 14.7689C17.8354 13.4868 18.0152 12.4194 18.6178 11.512C19.2123 10.6167 20.1634 9.95902 21.58 9.5786Z" fill="#222222"/>
</g>
</svg>
