<svg width="32" height="32" viewBox="0 0 32 32" fill="none" xmlns="http://www.w3.org/2000/svg">
<mask id="mask0_108_759" style="mask-type:luminance" maskUnits="userSpaceOnUse" x="7" y="2" width="17" height="29">
<path d="M23.867 2.00049H7.39648V30.0005H23.867V2.00049Z" fill="white"/>
</mask>
<g mask="url(#mask0_108_759)">
<path fill-rule="evenodd" clip-rule="evenodd" d="M20.5515 24.2399L19.9724 23.3979L21.4622 22.6931L22.0415 23.5352C23.3291 25.4072 22.7053 27.7135 20.6481 28.6866C19.9962 28.995 19.2487 29.1422 18.4801 29.1137L18.2021 29.1034L18.1367 27.5768L18.4147 27.5871C18.8758 27.6041 19.3244 27.5158 19.7156 27.3308C20.9498 26.7469 21.3242 25.3632 20.5515 24.2399Z" fill="#222222"/>
<path fill-rule="evenodd" clip-rule="evenodd" d="M14.2836 10.9556C15.8214 9.84179 16.5589 8.55183 16.4961 7.08579C16.4334 5.61975 15.5829 4.27084 13.9447 3.03906C12.4069 4.15294 11.6694 5.4429 11.7322 6.90893C11.795 8.37498 12.6454 9.72389 14.2836 10.9556Z" fill="#F7F7F7"/>
<path fill-rule="evenodd" clip-rule="evenodd" d="M13.2944 2.42808C13.612 2.19806 14.0935 2.21593 14.4318 2.47031C16.2206 3.81536 17.2432 5.3685 17.3177 7.11019C17.3923 8.85188 16.4997 10.3339 14.8206 11.5502C14.503 11.7803 14.0214 11.7623 13.6831 11.508C11.8943 10.163 10.8718 8.60981 10.7973 6.86813C10.7227 5.12644 11.6153 3.64438 13.2944 2.42808ZM13.9326 4.07232C12.9318 4.96057 12.5101 5.91296 12.5538 6.93333C12.5975 7.95371 13.1022 8.94049 14.1824 9.906C15.1832 9.01775 15.6049 8.06535 15.5612 7.04498C15.5175 6.02461 15.0128 5.03783 13.9326 4.07232Z" fill="#222222"/>
<path fill-rule="evenodd" clip-rule="evenodd" d="M20.7202 23.0464C19.3646 21.5589 17.8782 20.7853 16.2608 20.7252C14.6434 20.6651 13.2186 21.3308 11.9863 22.7222C13.3419 24.2096 14.8283 24.9833 16.4457 25.0434C18.0631 25.1034 19.4879 24.4378 20.7202 23.0464Z" fill="#F7F7F7"/>
<path fill-rule="evenodd" clip-rule="evenodd" d="M11.2909 23.1562C11.0308 22.8709 11.0142 22.4834 11.2507 22.2164C12.5899 20.7043 14.2397 19.8788 16.2046 19.9517C18.1695 20.0247 19.8955 20.9755 21.3686 22.592C21.6287 22.8774 21.6453 23.265 21.4089 23.5319C20.0696 25.044 18.4198 25.8694 16.4549 25.7965C14.4899 25.7236 12.7641 24.7728 11.2909 23.1562ZM13.1131 22.7547C14.194 23.7706 15.2831 24.2288 16.3895 24.2699C17.496 24.311 18.5492 23.9323 19.5464 22.9936C18.4656 21.9777 17.3764 21.5195 16.27 21.4783C15.1636 21.4373 14.1103 21.8161 13.1131 22.7547Z" fill="#222222"/>
<path fill-rule="evenodd" clip-rule="evenodd" d="M16.3406 20.1162C15.9356 18.2711 15.017 16.9561 13.5849 16.1711C12.1529 15.386 10.4937 15.288 8.60742 15.8771C9.01246 17.7222 9.93102 19.0372 11.3631 19.8223C12.7952 20.6073 14.4543 20.7052 16.3406 20.1162Z" fill="#F7F7F7"/>
<path fill-rule="evenodd" clip-rule="evenodd" d="M7.69181 15.9513C7.61402 15.5969 7.82512 15.2623 8.20048 15.1452C10.2658 14.5002 12.2238 14.5733 13.9573 15.5235C15.6828 16.4694 16.7125 18.0247 17.1508 20.0212C17.2286 20.3756 17.0175 20.7101 16.6421 20.8273C14.5768 21.4723 12.6188 21.3991 10.8853 20.4489C9.15983 19.503 8.13009 17.9478 7.69181 15.9513ZM9.58315 16.4074C10.0034 17.7457 10.7438 18.6312 11.7354 19.1747C12.7131 19.7106 13.8625 19.8751 15.2595 19.565C14.8392 18.2267 14.0988 17.3413 13.1072 16.7977C12.1295 16.2617 10.9801 16.0974 9.58315 16.4074Z" fill="#222222"/>
<path fill-rule="evenodd" clip-rule="evenodd" d="M13.9193 15.6733C14.5732 13.965 14.4687 12.461 13.6057 11.1614C12.7426 9.86171 11.2937 9.02635 9.25883 8.65527C8.60485 10.3636 8.70938 11.8676 9.57242 13.1673C10.4355 14.4669 11.8844 15.3023 13.9193 15.6733Z" fill="#F7F7F7"/>
<path fill-rule="evenodd" clip-rule="evenodd" d="M8.45163 8.37254C8.58192 8.03219 8.98136 7.84081 9.40154 7.91743C11.635 8.32473 13.3545 9.27446 14.3873 10.8297C15.4159 12.3787 15.4939 14.1222 14.7846 15.975C14.6543 16.3154 14.2549 16.5068 13.8347 16.4301C11.6013 16.0228 9.8817 15.0731 8.84896 13.5179C7.82031 11.9688 7.74234 10.2254 8.45163 8.37254ZM9.91999 9.5786C9.57164 10.8608 9.75145 11.9282 10.354 12.8355C10.9485 13.7308 11.8996 14.3886 13.3162 14.7689C13.6646 13.4868 13.4848 12.4194 12.8822 11.512C12.2877 10.6167 11.3366 9.95902 9.91999 9.5786Z" fill="#222222"/>
</g>
</svg>
