<svg width="24" height="24" viewBox="0 0 24 24" fill="none" xmlns="http://www.w3.org/2000/svg">
<path d="M13 11.5C13 13.433 11.433 15 9.5 15C7.567 15 6 13.433 6 11.5C6 9.567 7.567 8 9.5 8C11.433 8 13 9.567 13 11.5Z" fill="#ED3A25"/>
<path d="M18 11.5C18 13.433 16.433 15 14.5 15C12.567 15 11 13.433 11 11.5C11 9.567 12.567 8 14.5 8C16.433 8 18 9.567 18 11.5Z" fill="#F69E1F"/>
<path d="M12 13.9497C12.6191 13.3184 13 12.4537 13 11.5C13 10.5463 12.6191 9.68158 12 9.05029C11.3809 9.68158 11 10.5463 11 11.5C11 12.4537 11.3809 13.3184 12 13.9497Z" fill="#F26121"/>
</svg>
