<svg width="32" height="32" viewBox="0 0 32 32" fill="none" xmlns="http://www.w3.org/2000/svg">
<rect x="3.5" y="6.5" width="25" height="18" rx="0.5" stroke="#D9D9D9"/>
<path d="M17.5 15.5C17.5 18.5376 15.1495 21 12.25 21C9.35051 21 7 18.5376 7 15.5C7 12.4624 9.35051 10 12.25 10C15.1495 10 17.5 12.4624 17.5 15.5Z" fill="#ED3A25"/>
<path d="M25 15.5C25 18.5376 22.6495 21 19.75 21C16.8505 21 14.5 18.5376 14.5 15.5C14.5 12.4624 16.8505 10 19.75 10C22.6495 10 25 12.4624 25 15.5Z" fill="#F69E1F"/>
<path d="M16 19.3495C16.9287 18.3575 17.5 16.9987 17.5 15.5C17.5 14.0013 16.9287 12.6425 16 11.6505C15.0713 12.6425 14.5 14.0013 14.5 15.5C14.5 16.9987 15.0713 18.3575 16 19.3495Z" fill="#F26121"/>
</svg>
