<svg width="14" height="14" viewBox="0 0 14 14" fill="none" xmlns="http://www.w3.org/2000/svg">
<path d="M10.93 0C11.81 0 12.53 0.67 12.59 1.52L12.6 1.67V3.82C12.6 4.36 12.34 4.87 11.9 5.18L11.77 5.26L8.04 7.43C8.7777 7.71894 9.39133 8.25644 9.77492 8.94965C10.1585 9.64286 10.288 10.4483 10.1409 11.2268C9.99392 12.0053 9.57963 12.708 8.96965 13.2136C8.35966 13.7191 7.59227 13.9958 6.8 13.9958C6.00773 13.9958 5.24034 13.7191 4.63035 13.2136C4.02037 12.708 3.60608 12.0053 3.45906 11.2268C3.31203 10.4483 3.44149 9.64286 3.82508 8.94965C4.20867 8.25644 4.8223 7.71894 5.56 7.43L1.83 5.26C1.59734 5.12599 1.40042 4.93786 1.25593 4.71156C1.11145 4.48526 1.02365 4.22745 1 3.96V3.82V1.67C1 0.79 1.67 0.07 2.52 0H2.67H10.93Z" fill="white"/>
<path d="M6.8 8.2C6.16348 8.17878 5.5446 8.41129 5.07951 8.84638C4.61442 9.28146 4.34122 9.88348 4.32 10.52C4.29878 11.1565 4.53129 11.7754 4.96638 12.2405C5.40146 12.7056 6.00348 12.9788 6.64 13H6.96C7.59652 12.9788 8.19854 12.7056 8.63363 12.2405C9.06871 11.7754 9.30122 11.1565 9.28 10.52C9.25878 9.88348 8.98558 9.28146 8.52049 8.84638C8.0554 8.41129 7.43652 8.17878 6.8 8.2ZM10.93 1H2.67C2.51006 1.0006 2.35562 1.05839 2.23457 1.16292C2.11353 1.26746 2.03387 1.41185 2.01 1.57L2 1.67V3.82C2 4.02 2.1 4.21 2.25 4.34L2.33 4.39L6.46 6.8C6.56 6.86 6.66 6.89 6.75 6.9H6.85L6.95 6.88L7.05 6.85L7.14 6.8L11.27 4.4C11.44 4.3 11.57 4.11 11.59 3.92L11.6 3.82V1.67C11.5994 1.51006 11.5416 1.35562 11.4371 1.23457C11.3325 1.11353 11.1881 1.03387 11.03 1.01L10.93 1Z" fill="url(#paint0_linear_108_995)"/>
<defs>
<linearGradient id="paint0_linear_108_995" x1="11.792" y1="29.8288" x2="108.191" y2="29.8288" gradientUnits="userSpaceOnUse">
<stop stop-color="#E61E4D"/>
<stop offset="0.5" stop-color="#E31C5F"/>
<stop offset="1" stop-color="#D70466"/>
</linearGradient>
</defs>
</svg>
