<svg width="24" height="24" viewBox="0 0 24 24" fill="none" xmlns="http://www.w3.org/2000/svg">
<path d="M3 8H10V15H3V8Z" fill="#02C73C"/>
<path d="M11.492 13.156V8.83H13.04C14.018 8.83 14.474 9.358 14.474 10.066V10.192C14.474 10.894 13.982 11.47 13.04 11.47H12.086V13.156H11.492ZM13.004 9.346H12.086V10.954H12.938C13.562 10.954 13.874 10.702 13.874 10.18V10.072C13.874 9.58 13.562 9.346 13.004 9.346Z" fill="#02C73C"/>
<path d="M15.7552 13.204C15.0952 13.204 14.6752 12.856 14.6752 12.28V12.118C14.6752 11.56 15.0292 11.17 15.8692 11.17H16.7032V10.978C16.7032 10.54 16.5052 10.33 16.0252 10.33C15.6412 10.33 15.3892 10.462 15.0832 10.66L14.7952 10.228C15.1132 10.006 15.5032 9.814 16.0312 9.814C16.7632 9.814 17.2792 10.198 17.2792 10.858V13.156H16.7212V12.76H16.7152C16.6552 12.88 16.5352 12.982 16.4092 13.054C16.2352 13.15 16.0432 13.204 15.7552 13.204ZM16.7032 11.986V11.662H15.8812C15.4252 11.662 15.2452 11.848 15.2452 12.16V12.244C15.2452 12.562 15.5032 12.7 15.8152 12.7C16.1032 12.7 16.3072 12.634 16.4812 12.496C16.6372 12.376 16.7032 12.232 16.7032 11.986Z" fill="#02C73C"/>
<path d="M19.0238 12.496H19.0478L19.9118 9.874H20.5238L18.8198 14.512L18.2918 14.326L18.7178 13.204L17.5238 9.874H18.1538L19.0238 12.496Z" fill="#02C73C"/>
<path d="M8 10V13H7.29153L5.85505 11.239H5.83062V13H5V10H5.71824L7.14007 11.761H7.16938V10H8Z" fill="white"/>
</svg>
