<svg width="32" height="32" viewBox="0 0 32 32" fill="none" xmlns="http://www.w3.org/2000/svg">
<path d="M20.75 7C21.6913 6.99995 22.6089 7.29508 23.3737 7.84385C24.1385 8.39263 24.712 9.16742 25.0134 10.0592C25.3147 10.9509 25.3289 11.9147 25.0538 12.815C24.7788 13.7152 24.2283 14.5065 23.48 15.0775C24.6461 15.5926 25.6426 16.4273 26.354 17.4852C27.0655 18.543 27.4628 19.7807 27.5 21.055V21.25H26C26.0003 19.9873 25.5456 18.7668 24.7191 17.8122C23.8926 16.8576 22.7497 16.2329 21.5 16.0525V14.4025C22.205 14.2182 22.8188 13.7837 23.2269 13.18C23.635 12.5763 23.8094 11.8447 23.7175 11.1218C23.6257 10.399 23.2738 9.73424 22.7278 9.25177C22.1817 8.7693 21.4787 8.50208 20.75 8.5C20.2539 8.49988 19.7655 8.6228 19.3285 8.85775C18.8916 9.0927 18.5197 9.43235 18.2462 9.84628C17.9727 10.2602 17.8062 10.7355 17.7615 11.2296C17.7168 11.7237 17.7953 12.2212 17.99 12.6775C18.5964 12.9951 19.1042 13.4726 19.4585 14.0583C19.8129 14.644 20.0001 15.3155 20 16C20.0009 16.5168 19.8947 17.0282 19.6882 17.5019C19.4816 17.9756 19.1792 18.4014 18.8 18.7525C20.01 19.2455 21.051 20.0791 21.7965 21.1521C22.542 22.2252 22.9601 23.4915 23 24.7975V25H21.5C21.5003 23.7373 21.0456 22.5168 20.2191 21.5622C19.3926 20.6076 18.2497 19.9829 17 19.8025V18.1225C17.5004 17.9456 17.9222 17.5974 18.1907 17.1396C18.4593 16.6818 18.5573 16.1438 18.4676 15.6207C18.3778 15.0976 18.106 14.623 17.7002 14.2809C17.2944 13.9388 16.7808 13.7512 16.25 13.7512C15.7192 13.7512 15.2056 13.9388 14.7998 14.2809C14.394 14.623 14.1222 15.0976 14.0324 15.6207C13.9426 16.1438 14.0407 16.6818 14.3093 17.1396C14.5778 17.5974 14.9996 17.9456 15.5 18.1225V19.8025C14.2804 19.9778 13.1612 20.5765 12.3386 21.4938C11.5159 22.4111 11.042 23.5885 11 24.82V25H9.5C9.49897 23.658 9.89799 22.3461 10.6461 21.232C11.3942 20.1178 12.4574 19.252 13.7 18.745C13.2608 18.3369 12.9258 17.8293 12.7232 17.265C12.5207 16.7007 12.4563 16.0961 12.5357 15.5017C12.615 14.9074 12.8357 14.3408 13.1792 13.8494C13.5228 13.358 13.9791 12.9561 14.51 12.6775C14.7508 12.1142 14.8134 11.4907 14.6894 10.8907C14.5654 10.2908 14.2606 9.74322 13.8161 9.32161C13.3717 8.9 12.8088 8.62457 12.2031 8.53235C11.5975 8.44012 10.9781 8.53553 10.4283 8.80574C9.87852 9.07594 9.42461 9.508 9.12762 10.0438C8.83063 10.5796 8.70481 11.1935 8.76706 11.803C8.82931 12.4125 9.07665 12.9882 9.47584 13.453C9.87502 13.9177 10.4069 14.249 11 14.4025V16.0525C9.78036 16.2278 8.66124 16.8265 7.83856 17.7438C7.01587 18.6611 6.54203 19.8385 6.5 21.07V21.25H5C5.00015 19.9423 5.38015 18.6628 6.09381 17.5671C6.80746 16.4713 7.82404 15.6064 9.02 15.0775C8.43751 14.6321 7.97268 14.0511 7.66597 13.385C7.35926 12.719 7.21996 11.9881 7.26019 11.2559C7.30042 10.5237 7.51897 9.8125 7.89681 9.18407C8.27464 8.55563 8.80033 8.02905 9.42812 7.65015C10.0559 7.27124 10.7668 7.05149 11.4989 7.01001C12.231 6.96853 12.9621 7.10659 13.6287 7.41217C14.2953 7.71774 14.8771 8.18158 15.3235 8.76331C15.7699 9.34505 16.0673 10.0271 16.19 10.75H16.31C16.4873 9.70094 17.0306 8.74863 17.8434 8.06212C18.6563 7.37561 19.6861 6.99931 20.75 7Z" fill="#222222"/>
</svg>
