<svg width="32" height="32" viewBox="0 0 32 32" fill="none" xmlns="http://www.w3.org/2000/svg">
<path d="M8.1225 11.02L9.5325 12.4375V12.475C9.6225 15.8275 11.67 18.625 15.7575 20.875L16.05 21.0325L16.2525 21.1375L16.4775 20.995C16.8225 20.785 17.145 20.5675 17.4525 20.3575L18.5325 21.43C18.1575 21.6925 17.7825 21.955 17.37 22.21L19.02 24.4C19.1126 24.5257 19.1686 24.6746 19.182 24.8301C19.1953 24.9857 19.1654 25.1419 19.0956 25.2816C19.0258 25.4212 18.9187 25.5389 18.7863 25.6215C18.6538 25.7042 18.5011 25.7486 18.345 25.75H17.0325V28H15.5325V25.75H14.22C14.0639 25.7486 13.9112 25.7042 13.7787 25.6215C13.6463 25.5389 13.5392 25.4212 13.4694 25.2816C13.3996 25.1419 13.3697 24.9857 13.383 24.8301C13.3964 24.6746 13.4524 24.5257 13.545 24.4L15.15 22.255C10.4325 19.69 8.0325 16.345 8.0325 12.25C8.0325 11.83 8.0625 11.425 8.1225 11.02ZM7.065 5.72502L26.565 25.225L25.5 26.29L6 6.79002L7.065 5.72502ZM16.2825 23.2525L15.5325 24.25H17.0325L16.2825 23.2525ZM16.2825 4.00002C20.7075 4.00002 24.5325 7.96002 24.5325 12.25C24.5325 14.44 23.655 16.51 21.93 18.4675L20.865 17.4025C22.2075 15.8575 22.92 14.275 23.0175 12.655L23.0325 12.4525V12.25C23.0325 8.77002 19.875 5.50002 16.2825 5.50002C15.3282 5.49959 14.3847 5.70196 13.5145 6.09374C12.6443 6.48552 11.8673 7.05775 11.235 7.77252L10.17 6.70002C10.9433 5.84744 11.8869 5.1666 12.9398 4.70152C13.9927 4.23644 15.1315 3.99745 16.2825 4.00002Z" fill="#999999"/>
</svg>
