<svg width="8" height="8" viewBox="0 0 8 8" fill="none" xmlns="http://www.w3.org/2000/svg">
<g clip-path="url(#clip0_108_757)">
<path fill-rule="evenodd" clip-rule="evenodd" d="M3.83034 1.29628L3.05597 2.96128L1.20722 3.19941C1.17145 3.20388 1.13773 3.21856 1.11009 3.2417C1.08246 3.26485 1.06208 3.29546 1.05139 3.32989C1.04071 3.36431 1.04018 3.40109 1.04985 3.43581C1.05953 3.47053 1.07901 3.50172 1.10597 3.52566L2.47472 4.75753L2.10534 6.60441C2.09838 6.63972 2.10174 6.67629 2.115 6.70974C2.12826 6.7432 2.15087 6.77214 2.18013 6.79309C2.20939 6.81405 2.24406 6.82614 2.28 6.82793C2.31595 6.82971 2.35165 6.82111 2.38284 6.80316L3.99909 5.86566L5.61722 6.80316C5.64841 6.82111 5.68411 6.82971 5.72005 6.82793C5.756 6.82614 5.79067 6.81405 5.81993 6.79309C5.84919 6.77214 5.8718 6.7432 5.88506 6.70974C5.89832 6.67629 5.90167 6.63972 5.89472 6.60441L5.52534 4.75753L6.89409 3.52566C6.9205 3.5015 6.93944 3.47028 6.94868 3.4357C6.95792 3.40112 6.95707 3.36462 6.94622 3.33051C6.93538 3.29639 6.91499 3.2661 6.88748 3.2432C6.85997 3.2203 6.82648 3.20576 6.79097 3.20128L4.94222 2.96128L4.16972 1.29628C4.1548 1.26355 4.13078 1.2358 4.10053 1.21633C4.07028 1.19687 4.03506 1.18652 3.99909 1.18652C3.96312 1.18652 3.9279 1.19687 3.89765 1.21633C3.8674 1.2358 3.84338 1.26355 3.82847 1.29628H3.83034Z" fill="#222222"/>
</g>
<defs>
<clipPath id="clip0_108_757">
<rect width="6" height="6" fill="white" transform="translate(1 1)"/>
</clipPath>
</defs>
</svg>
