<svg width="32" height="32" viewBox="0 0 32 32" fill="none" xmlns="http://www.w3.org/2000/svg">
<path d="M7.02501 6L26.525 25.5L25.475 26.55L5.97501 7.05L7.02501 6ZM15.3275 18.525L16.8275 20.025H6.50001V23.025H19.82L21.32 24.525H6.50001C6.12093 24.5261 5.7555 24.3836 5.47722 24.1262C5.19894 23.8687 5.02844 23.5155 5.00001 23.1375V20.025C4.99894 19.6459 5.14144 19.2805 5.39885 19.0022C5.65626 18.7239 6.00949 18.5534 6.38751 18.525H6.50001H15.3275ZM26.75 18.525V23.595L25.25 22.095V18.525H26.75ZM23.75 18.525V20.595L21.68 18.525H23.75ZM20 6.525C20.5404 6.52415 21.0711 6.66932 21.5358 6.94514C22.0006 7.22097 22.3822 7.61722 22.6403 8.09203C22.8985 8.56683 23.0236 9.10255 23.0024 9.64257C22.9812 10.1826 22.8145 10.7069 22.52 11.16L22.445 11.265L22.5425 11.295C23.7326 11.6687 24.7767 12.4041 25.5295 13.3988C26.2822 14.3935 26.7062 15.5981 26.7425 16.845L26.75 17.025H25.25C25.2508 15.8596 24.7994 14.7393 23.9908 13.9C23.1823 13.0606 22.0797 12.5677 20.915 12.525H20V11.025C20.3978 11.0399 20.7853 10.8962 21.0771 10.6254C21.369 10.3547 21.5413 9.97907 21.5563 9.58125C21.5712 9.18342 21.4274 8.79597 21.1567 8.50411C20.8859 8.21226 20.5103 8.03992 20.1125 8.025H20V6.525ZM20.75 14.025C21.5203 14.024 22.2615 14.3194 22.82 14.85C23.3785 15.3806 23.7115 16.1056 23.75 16.875V17.025H22.25C22.2511 16.6459 22.1086 16.2805 21.8512 16.0022C21.5937 15.7239 21.2405 15.5534 20.8625 15.525H18.68L17.18 14.025H20.75ZM17 6.525V8.025C16.2346 8.02362 15.4976 8.31487 14.9399 8.83911C14.3822 9.36336 14.0459 10.081 14 10.845L12.74 9.5775C13.0328 8.71363 13.5812 7.95913 14.3125 7.41399C15.0438 6.86885 15.9235 6.55883 16.835 6.525H17Z" fill="#999999"/>
</svg>
