<svg width="17" height="17" viewBox="0 0 17 17" fill="none" xmlns="http://www.w3.org/2000/svg">
<path d="M10.5238 10.5239L14.1667 14.1667M7.28571 11.7381C7.8704 11.7381 8.44937 11.623 8.98956 11.3992C9.52975 11.1755 10.0206 10.8475 10.434 10.4341C10.8475 10.0206 11.1754 9.5298 11.3992 8.98961C11.6229 8.44942 11.7381 7.87045 11.7381 7.28576C11.7381 6.70106 11.6229 6.12209 11.3992 5.5819C11.1754 5.04172 10.8475 4.55089 10.434 4.13745C10.0206 3.724 9.52975 3.39604 8.98956 3.17229C8.44937 2.94854 7.8704 2.83337 7.28571 2.83337C6.10486 2.83337 4.97238 3.30246 4.1374 4.13745C3.30242 4.97243 2.83333 6.10491 2.83333 7.28576C2.83333 8.4666 3.30242 9.59908 4.1374 10.4341C4.97238 11.269 6.10486 11.7381 7.28571 11.7381Z" stroke="white" stroke-width="2"/>
</svg>
