<svg width="18" height="18" viewBox="0 0 18 18" fill="none" xmlns="http://www.w3.org/2000/svg">
<path d="M2.08125 1.29395L16.7063 15.9189L15.9187 16.7064L1.29375 2.08145L2.08125 1.29395ZM0.860625 3.2402L1.73812 4.11207C1.71523 4.20438 1.70017 4.29847 1.69313 4.39332V11.2502C1.69235 11.6807 1.85617 12.0953 2.15106 12.409C2.44595 12.7227 2.8496 12.9119 3.27938 12.9377H10.5581L11.8125 14.1977V15.1877H12.8025L12.9375 15.3227V16.3127H5.0625V15.1877H6.1875V14.0627H3.375C2.65003 14.0634 1.9528 13.7841 1.42877 13.2832C0.904738 12.7822 0.594398 12.0982 0.5625 11.3739V4.5002C0.563402 4.06463 0.665459 3.63522 0.860625 3.24582V3.2402ZM10.6875 14.0627H7.3125V15.1877H10.6875V14.0627ZM4.0725 1.6877H14.625C15.35 1.68699 16.0472 1.96626 16.5712 2.46723C17.0953 2.96821 17.4056 3.65218 17.4375 4.37645V11.2502C17.4374 11.7383 17.3103 12.218 17.0687 12.642C16.8271 13.0661 16.4792 13.42 16.0594 13.6689L15.2156 12.8308C15.5221 12.717 15.7889 12.5166 15.9837 12.254C16.1784 11.9913 16.2926 11.6778 16.3125 11.3514V4.5002C16.3133 4.06964 16.1495 3.65508 15.8546 3.34137C15.5597 3.02766 15.156 2.83853 14.7262 2.8127H5.1975L4.0725 1.6877Z" fill="#999999"/>
</svg>
