<svg width="32" height="32" viewBox="0 0 32 32" fill="none" xmlns="http://www.w3.org/2000/svg">
<path d="M10 8H25V16V20L21.25 24H17.5H10V8Z" fill="#FED5DF"/>
<path fill-rule="evenodd" clip-rule="evenodd" d="M22.2857 25.9035V26H21.8571H21.2857H17.5238H9C8.44772 26 8 25.5523 8 25V7C8 6.44772 8.44772 6 9 6H26.0476C26.5999 6 27.0476 6.44772 27.0476 7V16V20V20.6V21H26.9641C26.9178 21.1061 26.853 21.2043 26.7718 21.2897L22.5813 25.6897C22.4958 25.7794 22.3954 25.8515 22.2857 25.9035ZM22.2857 24.55L25.6667 21H23.2857C22.7334 21 22.2857 21.4477 22.2857 22V24.55ZM26.0476 20V16V7H9V25H17.5238H21.2857V22C21.2857 20.8954 22.1811 20 23.2857 20H26.0476Z" fill="#FF385C"/>
<path d="M14 5V8" stroke="#FF385C" stroke-linecap="round" stroke-linejoin="round"/>
<path d="M21 5V8" stroke="#FF385C" stroke-linecap="round" stroke-linejoin="round"/>
<path d="M14.4286 20.5H14.9286V19.5H14.4286V20.5ZM11 20H10.5V20.5H11V20ZM11.5 16.5714V16.0714H10.5V16.5714H11.5ZM16.5 20C16.5 23.0376 14.0376 25.5 11 25.5V26.5C14.5899 26.5 17.5 23.5899 17.5 20H16.5ZM11 25.5C7.96243 25.5 5.5 23.0376 5.5 20H4.5C4.5 23.5899 7.41015 26.5 11 26.5V25.5ZM5.5 20C5.5 16.9624 7.96243 14.5 11 14.5V13.5C7.41015 13.5 4.5 16.4101 4.5 20H5.5ZM11 14.5C14.0376 14.5 16.5 16.9624 16.5 20H17.5C17.5 16.4101 14.5899 13.5 11 13.5V14.5ZM14.4286 19.5H11V20.5H14.4286V19.5ZM11.5 20V16.5714H10.5V20H11.5Z" fill="#222222"/>
</svg>
