<svg width="24" height="24" viewBox="0 0 24 24" fill="none" xmlns="http://www.w3.org/2000/svg">
<path d="M9.834 9.10684L7.4775 14.9104H5.94L4.7805 10.2782C4.71 9.99332 4.64925 9.8888 4.43475 9.7688C4.08525 9.57292 3.50775 9.38943 3 9.27485L3.0345 9.10684H5.5095C5.67124 9.10667 5.8277 9.1662 5.95066 9.27466C6.07361 9.38313 6.15495 9.5334 6.18 9.69834L6.79275 13.0569L8.30625 9.10684H9.834ZM15.8588 13.0159C15.8647 11.4837 13.8068 11.3993 13.821 10.7149C13.8255 10.5066 14.0175 10.2852 14.4375 10.2287C14.9297 10.1804 15.4254 10.2703 15.8722 10.4888L16.1273 9.25781C15.6922 9.08899 15.2315 9.00169 14.7668 9C13.329 9 12.3173 9.7897 12.3083 10.9193C12.2993 11.7547 13.0305 12.22 13.5817 12.4987C14.1488 12.7828 14.3392 12.9655 14.3363 13.2195C14.3325 13.6097 13.8848 13.7808 13.4662 13.7878C12.735 13.7994 12.3113 13.5841 11.9722 13.4216L11.709 14.6928C12.0487 14.8539 12.6757 14.9948 13.326 15.001C14.8537 15.001 15.8535 14.2221 15.8588 13.0159ZM19.6545 14.9104H21L19.8263 9.10684H18.5842C18.4515 9.10557 18.3215 9.14549 18.2111 9.22142C18.1006 9.29734 18.0148 9.40578 17.9647 9.53266L15.783 14.9104H17.31L17.6138 14.0432H19.4797L19.6545 14.9104ZM18.0322 12.8541L18.7972 10.6746L19.2382 12.8541H18.0322ZM11.9123 9.10684L10.71 14.9104H9.255L10.4587 9.10684H11.9123Z" fill="#1A1F71"/>
</svg>
