<svg width="82" height="25" viewBox="0 0 82 25" fill="none" xmlns="http://www.w3.org/2000/svg">
<g clip-path="url(#clip0_115_7657)">
<path d="M43.2161 6.28128C43.2161 7.18218 42.4732 7.90791 41.5509 7.90791C40.6287 7.90791 39.8858 7.18218 39.8858 6.28128C39.8858 5.38038 40.6031 4.65465 41.5509 4.65465C42.4988 4.67968 43.2161 5.40541 43.2161 6.28128ZM36.3507 9.55956C36.3507 9.70971 36.3507 9.95996 36.3507 9.95996C36.3507 9.95996 35.5566 8.95896 33.8658 8.95896C31.0736 8.95896 28.8962 11.036 28.8962 13.9139C28.8962 16.7668 31.048 18.8689 33.8658 18.8689C35.5822 18.8689 36.3507 17.8428 36.3507 17.8428V18.2683C36.3507 18.4685 36.5044 18.6186 36.7093 18.6186H38.7843V9.20921C38.7843 9.20921 36.8887 9.20921 36.7093 9.20921C36.5044 9.20921 36.3507 9.38438 36.3507 9.55956ZM36.3507 15.5906C35.9664 16.1411 35.1979 16.6166 34.2757 16.6166C32.6362 16.6166 31.381 15.6156 31.381 13.9139C31.381 12.2122 32.6362 11.2112 34.2757 11.2112C35.1723 11.2112 35.9921 11.7117 36.3507 12.2372V15.5906ZM40.3213 9.20921H42.7806V18.6186H40.3213V9.20921ZM77.0561 8.95896C75.3654 8.95896 74.5713 9.95996 74.5713 9.95996V4.67968H72.112V18.6186C72.112 18.6186 74.0077 18.6186 74.187 18.6186C74.3919 18.6186 74.5456 18.4434 74.5456 18.2683V17.8428C74.5456 17.8428 75.3398 18.8689 77.0305 18.8689C79.8227 18.8689 82.0002 16.7668 82.0002 13.9139C82.0002 11.0611 79.8227 8.95896 77.0561 8.95896ZM76.6462 16.5916C75.6984 16.5916 74.9555 16.1161 74.5713 15.5656V12.2122C74.9555 11.7117 75.7753 11.1862 76.6462 11.1862C78.2857 11.1862 79.5409 12.1872 79.5409 13.8889C79.5409 15.5906 78.2857 16.5916 76.6462 16.5916ZM70.8312 13.038V18.6436H68.3719V13.3133C68.3719 11.7618 67.8596 11.1361 66.4763 11.1361C65.7334 11.1361 64.9649 11.5115 64.4782 12.0621V18.6186H62.0189V9.20921H63.9658C64.1708 9.20921 64.3245 9.38438 64.3245 9.55956V9.95996C65.0417 9.23423 65.9896 8.95896 66.9374 8.95896C68.0133 8.95896 68.9099 9.25926 69.6272 9.85986C70.4981 10.5606 70.8312 11.4615 70.8312 13.038ZM56.0502 8.95896C54.3594 8.95896 53.5653 9.95996 53.5653 9.95996V4.67968H51.1061V18.6186C51.1061 18.6186 53.0017 18.6186 53.1811 18.6186C53.386 18.6186 53.5397 18.4434 53.5397 18.2683V17.8428C53.5397 17.8428 54.3338 18.8689 56.0245 18.8689C58.8168 18.8689 60.9942 16.7668 60.9942 13.9139C61.0199 11.0611 58.8424 8.95896 56.0502 8.95896ZM55.6403 16.5916C54.6925 16.5916 53.9496 16.1161 53.5653 15.5656V12.2122C53.9496 11.7117 54.7693 11.1862 55.6403 11.1862C57.2798 11.1862 58.535 12.1872 58.535 13.8889C58.535 15.5906 57.2798 16.5916 55.6403 16.5916ZM48.9799 8.95896C49.7228 8.95896 50.107 9.08408 50.107 9.08408V11.3113C50.107 11.3113 48.0577 10.6356 46.7768 12.0621V18.6436H44.3176V9.20921C44.3176 9.20921 46.2132 9.20921 46.3926 9.20921C46.5975 9.20921 46.7512 9.38438 46.7512 9.55956V9.95996C47.2123 9.43443 48.2114 8.95896 48.9799 8.95896ZM23.4397 17.7678C23.3116 17.4675 23.1836 17.1421 23.0555 16.8669C22.8505 16.4164 22.6456 15.991 22.4663 15.5906L22.4407 15.5656C20.6731 11.8118 18.7774 8.00801 16.7793 4.25425L16.7025 4.1041C16.4975 3.72873 16.2926 3.32833 16.0877 2.92793C15.8315 2.47748 15.5753 2.002 15.1654 1.55155C14.3457 0.550551 13.1673 0 11.9121 0C10.6312 0 9.47847 0.550551 8.63311 1.5015C8.24885 1.95195 7.96707 2.42743 7.7109 2.87788C7.50596 3.27828 7.30103 3.67868 7.09609 4.05405L7.01924 4.2042C5.04673 7.95796 3.12545 11.7618 1.35788 15.5155L1.33227 15.5656C1.15295 15.966 0.94801 16.3914 0.743075 16.8418C0.61499 17.1171 0.486905 17.4174 0.35882 17.7427C0.0257986 18.6687 -0.0766694 19.5445 0.0514156 20.4454C0.333203 22.3223 1.61405 23.8989 3.38162 24.5996C4.04767 24.8749 4.73933 25 5.4566 25C5.66154 25 5.91771 24.975 6.12264 24.9499C6.968 24.8498 7.83898 24.5746 8.68434 24.0991C9.73464 23.5235 10.7337 22.6977 11.8609 21.4965C12.988 22.6977 14.0127 23.5235 15.0374 24.0991C15.8827 24.5746 16.7537 24.8498 17.5991 24.9499C17.804 24.975 18.0602 25 18.2651 25C18.9824 25 19.6997 24.8749 20.3401 24.5996C22.1333 23.8989 23.3885 22.2973 23.6703 20.4454C23.8752 19.5696 23.7728 18.6937 23.4397 17.7678ZM11.8865 19.0691C10.5032 17.3674 9.60655 15.7658 9.29915 14.4144C9.17107 13.8388 9.14545 13.3383 9.2223 12.8879C9.27353 12.4875 9.42724 12.1371 9.63217 11.8368C10.1189 11.1612 10.9386 10.7357 11.8865 10.7357C12.8343 10.7357 13.6797 11.1361 14.1408 11.8368C14.3457 12.1371 14.4994 12.4875 14.5506 12.8879C14.6275 13.3383 14.6019 13.8639 14.4738 14.4144C14.1664 15.7407 13.2698 17.3423 11.8865 19.0691ZM22.1076 20.2452C21.9283 21.5465 21.0317 22.6727 19.7765 23.1732C19.1617 23.4234 18.4957 23.4985 17.8296 23.4234C17.1892 23.3483 16.5488 23.1481 15.8827 22.7728C14.9605 22.2723 14.0383 21.4965 12.9624 20.3453C14.6531 18.3183 15.6778 16.4665 16.062 14.8148C16.2414 14.039 16.267 13.3383 16.1901 12.6877C16.0877 12.0621 15.8571 11.4865 15.4985 10.986C14.7043 9.85986 13.3723 9.20921 11.8865 9.20921C10.4007 9.20921 9.0686 9.88489 8.27447 10.986C7.91583 11.4865 7.68528 12.0621 7.58281 12.6877C7.48034 13.3383 7.50596 14.0641 7.7109 14.8148C8.09515 16.4665 9.14545 18.3433 10.8106 20.3704C9.76026 21.5215 8.81243 22.2973 7.89022 22.7978C7.22417 23.1732 6.58375 23.3734 5.94332 23.4484C5.25167 23.5235 4.58562 23.4234 3.99643 23.1982C2.7412 22.6977 1.84461 21.5716 1.66529 20.2703C1.58844 19.6446 1.63967 19.019 1.89584 18.3183C1.97269 18.0681 2.10078 17.8178 2.22886 17.5175C2.40818 17.1171 2.61312 16.6917 2.81805 16.2663L2.84367 16.2162C4.61124 12.4875 6.5069 8.68368 8.47941 4.97998L8.55626 4.82983C8.76119 4.45445 8.96613 4.05405 9.17107 3.67868C9.376 3.27828 9.60655 2.9029 9.88834 2.57758C10.4263 1.97698 11.1436 1.65165 11.9377 1.65165C12.7318 1.65165 13.4491 1.97698 13.9871 2.57758C14.2688 2.9029 14.4994 3.27828 14.7043 3.67868C14.9093 4.05405 15.1142 4.45445 15.3191 4.82983L15.396 4.97998C17.3429 8.70871 19.2385 12.5125 21.0061 16.2412V16.2663C21.2111 16.6667 21.3904 17.1171 21.5953 17.5175C21.7234 17.8178 21.8515 18.0681 21.9283 18.3183C22.1333 18.969 22.2101 19.5946 22.1076 20.2452Z" fill="#FF385C"/>
</g>
<defs>
<clipPath id="clip0_115_7657">
<rect width="82" height="25" fill="white"/>
</clipPath>
</defs>
</svg>
