<svg width="436" height="18" viewBox="0 0 436 18" fill="none" xmlns="http://www.w3.org/2000/svg">
<path d="M9.3756 1.875L9.59485 1.87694C11.2038 1.90535 12.9089 2.24569 14.7117 2.90327L15.0006 3.01125V13.2752L14.9974 13.324C14.9827 13.4363 14.9178 13.5361 14.8212 13.5951L14.7779 13.6179L10.4941 15.5219C10.5175 15.2422 10.4778 14.9615 10.3737 14.6675C10.2802 14.4033 10.0862 13.9998 9.98305 13.7694C9.267 12.2108 8.49843 10.631 7.69882 9.07394L7.57441 8.83509C7.39868 8.49324 7.26508 8.22392 7.08137 8.00812C6.80259 7.68047 6.41879 7.5 6.00056 7.5C5.58226 7.5 5.19839 7.68061 4.91948 8.0084C4.6926 8.2752 4.53299 8.63912 4.30231 9.07387C4.11643 9.43587 3.93224 9.79908 3.75 10.1629L3.7506 3.01088L4.039 2.90345C5.83841 2.24706 7.54051 1.9067 9.14678 1.87711L9.3756 1.875Z" fill="#FED5DF"/>
<path d="M9.37543 0.375C11.4749 0.375 13.6945 0.853027 16.0335 1.80616C16.297 1.91357 16.4754 2.1599 16.498 2.44016L16.5004 2.5007V13.2752C16.5004 13.9877 16.097 14.6359 15.464 14.9522L15.3869 14.9886L9.74589 17.4957C9.57286 17.5726 9.0476 17.6186 8.69756 17.6244L8.62543 17.625L8.62577 17.2498C8.8689 17.2472 9.10739 17.1999 9.33017 17.1093C9.64246 16.9822 9.90983 16.774 10.1098 16.5136L15.0823 14.3032C15.466 14.1327 15.7209 13.7639 15.748 13.3489L15.7504 13.2752V2.5007L15.491 2.39681C13.3341 1.54807 11.2958 1.125 9.37543 1.125C7.455 1.125 5.41671 1.54807 3.25982 2.39681L3.00043 2.50071L3.00031 11.6859C2.74506 12.2139 2.49468 12.7416 2.25 13.2674L2.25043 2.50071C2.25043 2.19579 2.43502 1.92122 2.71739 1.80615C5.05636 0.853026 7.27598 0.375 9.37543 0.375Z" fill="#FF385C"/>
<path d="M5.99997 15.6349L6.25749 15.3029C6.85589 14.5406 7.22948 13.8452 7.36797 13.236C7.47313 12.774 7.45491 12.2922 7.1878 11.9013C6.93276 11.5281 6.48872 11.3052 6.00003 11.3052C5.51128 11.3052 5.06717 11.528 4.8122 11.9011C4.54599 12.2908 4.52653 12.7712 4.63183 13.2354C4.77018 13.8447 5.14384 14.5403 5.74244 15.3029L5.99997 15.6349ZM5.99997 15.6349L6.24176 15.9046C6.67282 16.3771 7.05683 16.7006 7.45029 16.9227C7.75597 17.0953 8.06532 17.2007 8.36983 17.2362C8.70029 17.2749 9.0293 17.2315 9.32974 17.1093C9.9456 16.8587 10.3867 16.2927 10.481 15.6323C10.5262 15.3158 10.4909 15.0002 10.3732 14.6675C10.2796 14.4033 10.0856 13.9998 9.98245 13.7694C9.2664 12.2108 8.49783 10.631 7.69822 9.07394C7.45498 8.61559 7.30531 8.27188 7.08077 8.00812C6.802 7.68047 6.4182 7.5 5.99997 7.5C5.58166 7.5 5.1978 7.68061 4.91888 8.0084C4.692 8.2752 4.53239 8.63912 4.30171 9.07387C3.50196 10.6314 2.73346 12.2111 2.01748 13.7693C1.91163 14.0058 1.72007 14.4043 1.62685 14.6674C1.50906 15.0001 1.4738 15.3157 1.519 15.6323C1.61319 16.2927 2.05426 16.8586 2.67012 17.1093C2.97739 17.2343 3.30544 17.2742 3.62996 17.2362C3.93482 17.2007 4.24423 17.0952 4.54964 16.9227C4.9431 16.7006 5.32711 16.3771 5.75818 15.9046L5.99997 15.6349Z" stroke="#222222"/>
<path d="M35.4248 4.89844V7.28027H36.6025V7.86035H35.4248V10.6641H34.7393V4.89844H35.4248ZM35.7852 11.9648V12.5449H30.5381V10.0664H31.2148V11.9648H35.7852ZM31.5137 5.45215C32.6826 5.45215 33.5615 6.24316 33.5703 7.37695C33.5615 8.51074 32.6826 9.30176 31.5137 9.30176C30.3447 9.30176 29.457 8.51074 29.4658 7.37695C29.457 6.24316 30.3447 5.45215 31.5137 5.45215ZM31.5137 6.05859C30.7402 6.05859 30.1338 6.60352 30.1426 7.37695C30.1338 8.15039 30.7402 8.69531 31.5137 8.69531C32.3047 8.69531 32.8936 8.15039 32.8936 7.37695C32.8936 6.60352 32.3047 6.05859 31.5137 6.05859ZM43.5723 4.90723V10.6377H42.8779V7.64062H41.2695V7.06934H42.8779V4.90723H43.5723ZM43.792 11.9648V12.5449H38.5537V10.1191H39.248V11.9648H43.792ZM39.8105 6.51562C39.8105 7.52637 40.5928 8.51074 41.7354 8.89746L41.375 9.45117C40.4917 9.13477 39.8105 8.47559 39.4766 7.66699C39.1382 8.56787 38.4175 9.28857 37.4902 9.63574L37.1299 9.07324C38.2812 8.66895 39.1162 7.64062 39.1162 6.51562V6.11133H37.3496V5.54004H41.5596V6.11133H39.8105V6.51562ZM50.9814 4.90723V7.48242H52.1592V8.0625H50.9814V10.7607H50.2959V4.90723H50.9814ZM49.5488 5.86523V6.42773H44.8906V5.86523H46.877V4.90723H47.5625V5.86523H49.5488ZM47.2197 6.8584C48.3359 6.8584 49.0918 7.42969 49.1006 8.31738C49.0918 9.19629 48.3359 9.75879 47.2197 9.75879C46.0947 9.75879 45.3301 9.19629 45.3389 8.31738C45.3301 7.42969 46.0947 6.8584 47.2197 6.8584ZM47.2197 7.40332C46.4814 7.40332 45.9893 7.76367 45.998 8.31738C45.9893 8.87109 46.4814 9.22266 47.2197 9.21387C47.9492 9.22266 48.4414 8.87109 48.4502 8.31738C48.4414 7.76367 47.9492 7.40332 47.2197 7.40332ZM51.3418 11.9648V12.5449H46.0947V10.2949H46.7715V11.9648H51.3418ZM61.3877 4.89844V8.89746H60.6934V8.08008H58.6104V7.53516H60.6934V6.59473H58.7246C58.2324 7.82959 57.0195 8.66016 55.2881 9.07324L55.042 8.50195C56.958 8.05811 58.0742 7.12207 58.2061 5.86523H55.4375V5.29395H58.9619C58.9619 5.55322 58.9355 5.80371 58.8916 6.04102H60.6934V4.89844H61.3877ZM61.3877 9.24902V11.1562H57.0283V12.0703H61.6514V12.6416H56.3428V10.6289H60.6934V9.81152H56.3252V9.24902H61.3877ZM69.3682 4.89844V12.7119H68.709V4.89844H69.3682ZM67.7861 5.0918V12.3076H67.1357V8.28223H65.8174V7.71973H67.1357V5.0918H67.7861ZM64.9824 7.13086C64.9824 8.48438 65.5889 9.8291 66.6699 10.4531L66.248 10.9629C65.479 10.5015 64.9341 9.65771 64.666 8.66016C64.3804 9.73682 63.8135 10.6553 63.0312 11.1475L62.5918 10.6289C63.6816 9.97852 64.3145 8.55469 64.3145 7.13086V6.39258H62.8115V5.82129H66.415V6.39258H64.9824V7.13086ZM77.6123 8.52832V9.07324H70.458V8.52832H77.6123ZM76.7158 9.69727V11.3584H72.0225V12.1055H76.9707V12.6064H71.3281V10.8838H76.0303V10.2158H71.3193V9.69727H76.7158ZM76.6895 5.13574V6.75293H72.0752V7.43848H76.8301V7.93945H71.3896V6.27832H75.9951V5.63672H71.3633V5.13574H76.6895ZM83.0791 5.28516C84.248 5.27637 85.083 5.91797 85.083 6.87598C85.083 7.8252 84.248 8.48438 83.0791 8.47559C81.9102 8.48438 81.0752 7.8252 81.0752 6.87598C81.0752 5.91797 81.9102 5.27637 83.0791 5.28516ZM83.0791 5.84766C82.2969 5.83887 81.7432 6.26953 81.752 6.87598C81.7432 7.49121 82.2969 7.91309 83.0791 7.9043C83.8701 7.91309 84.4238 7.49121 84.4238 6.87598C84.4238 6.26953 83.8701 5.83887 83.0791 5.84766ZM86.9463 4.90723V12.7207H86.2695V4.90723H86.9463ZM80.4863 9.14355C81.9541 9.14355 83.958 9.11719 85.6982 8.8623L85.7422 9.38086C84.9951 9.51709 84.2173 9.60059 83.4658 9.64453V12.4746H82.7803V9.68848C81.9849 9.72363 81.2334 9.72803 80.583 9.73242L80.4863 9.14355ZM92.1846 6.25195V6.81445H88.2646V6.25195H89.8906V5.13574H90.5762V6.25195H92.1846ZM90.2246 7.3418C91.209 7.3418 91.9121 8.08008 91.9209 9.11719C91.9121 10.1631 91.209 10.9102 90.2246 10.9102C89.249 10.9102 88.5459 10.1631 88.5459 9.11719C88.5459 8.08008 89.249 7.3418 90.2246 7.3418ZM90.2246 7.92188C89.6094 7.93066 89.1611 8.43164 89.1611 9.11719C89.1611 9.81152 89.6094 10.3125 90.2246 10.3037C90.8486 10.3125 91.3057 9.81152 91.3057 9.11719C91.3057 8.43164 90.8486 7.93066 90.2246 7.92188ZM94.9355 4.89844V12.7119H94.2764V8.76562H93.2393V12.3252H92.5889V5.0918H93.2393V8.19434H94.2764V4.89844H94.9355ZM105.017 4.89844V12.7119H104.349V4.89844H105.017ZM103.443 5.06543V12.3164H102.784V8.51953H101.782C101.708 10.04 101.062 10.9893 100.095 10.9893C99.0752 10.9893 98.416 9.93457 98.416 8.27344C98.416 6.6123 99.0752 5.55762 100.095 5.55762C101.044 5.55762 101.686 6.47607 101.773 7.94824H102.784V5.06543H103.443ZM100.095 6.20801C99.4619 6.20801 99.0576 6.99902 99.0664 8.27344C99.0576 9.53906 99.4619 10.3389 100.095 10.3301C100.728 10.3389 101.132 9.53906 101.132 8.27344C101.132 6.99902 100.728 6.20801 100.095 6.20801ZM108.198 5.50488C109.262 5.51367 110.026 6.42334 110.141 7.88672H111.89V4.89844H112.575V12.7295H111.89V8.45801H110.149C110.066 9.9873 109.288 10.9453 108.198 10.9453C107.047 10.9453 106.238 9.89062 106.238 8.22949C106.238 6.56836 107.047 5.51367 108.198 5.50488ZM108.198 6.12012C107.425 6.12891 106.897 6.95508 106.897 8.22949C106.897 9.50391 107.425 10.3301 108.198 10.3301C108.963 10.3301 109.499 9.50391 109.499 8.22949C109.499 6.95508 108.963 6.12891 108.198 6.12012ZM120.318 4.89844V12.7295H119.624V4.89844H120.318ZM115.019 5.56641V7.63184H117.348V5.56641H118.024V10.8398H114.333V5.56641H115.019ZM115.019 10.2598H117.348V8.18555H115.019V10.2598ZM123.526 5.51367C124.555 5.51367 125.319 6.30469 125.319 7.41211C125.319 8.52832 124.555 9.30176 123.526 9.29297C122.48 9.30176 121.733 8.52832 121.742 7.41211C121.733 6.30469 122.48 5.51367 123.526 5.51367ZM123.526 6.11133C122.858 6.11133 122.357 6.65625 122.366 7.41211C122.357 8.16797 122.858 8.71289 123.526 8.71289C124.194 8.71289 124.678 8.16797 124.687 7.41211C124.678 6.65625 124.194 6.11133 123.526 6.11133ZM128.29 4.90723V10.7783H127.631V7.76367H126.594V10.4971H125.943V5.05664H126.594V7.19238H127.631V4.90723H128.29ZM128.527 11.9648V12.5449H123.166V9.99609H123.852V11.9648H128.527ZM135.875 4.89844V12.7295H135.181V4.89844H135.875ZM130.575 5.56641V7.63184H132.904V5.56641H133.581V10.8398H129.89V5.56641H130.575ZM130.575 10.2598H132.904V8.18555H130.575V10.2598ZM146.088 4.89844V9.74121H145.429V4.89844H146.088ZM144.673 5.03906V9.71484H144.014V9.2666H142.625V8.76562H144.014V5.03906H144.673ZM139.426 7.93945C140.507 7.93945 142.273 7.92188 143.583 7.71973L143.636 8.18555C143.095 8.2998 142.498 8.37012 141.904 8.41406V9.71484H141.236V8.44922C140.595 8.47998 139.988 8.48438 139.505 8.48438L139.426 7.93945ZM141.5 10.0225V10.7607H145.402V10.0225H146.088V12.6064H140.823V10.0225H141.5ZM141.5 12.0527H145.402V11.3145H141.5V12.0527ZM141.544 5.17969C142.563 5.17969 143.258 5.61914 143.258 6.33984C143.258 7.04297 142.563 7.49121 141.544 7.49121C140.524 7.49121 139.839 7.04297 139.839 6.33984C139.839 5.61914 140.524 5.17969 141.544 5.17969ZM141.544 5.68066C140.885 5.67188 140.472 5.92676 140.472 6.33984C140.472 6.74414 140.885 6.99023 141.544 6.99023C142.203 6.99023 142.625 6.74414 142.634 6.33984C142.625 5.92676 142.203 5.67188 141.544 5.68066ZM149.867 6.99902C149.867 8.37891 150.781 9.79395 151.889 10.3389L151.467 10.8926C150.605 10.4399 149.885 9.51709 149.542 8.43164C149.19 9.5874 148.452 10.5718 147.573 11.042L147.134 10.4883C148.276 9.92578 149.182 8.42285 149.19 6.99902V5.5752H149.867V6.99902ZM153.295 4.89844V8.07129H154.604V8.66895H153.295V12.7119H152.609V4.89844H153.295ZM161.469 4.89844V12.7295H160.774V4.89844H161.469ZM157.312 5.50488C158.472 5.51367 159.307 6.56836 159.307 8.22949C159.307 9.89062 158.472 10.9453 157.312 10.9453C156.143 10.9453 155.316 9.89062 155.316 8.22949C155.316 6.56836 156.143 5.51367 157.312 5.50488ZM157.312 6.12012C156.529 6.12891 155.984 6.95508 155.984 8.22949C155.984 9.50391 156.529 10.3301 157.312 10.3301C158.094 10.3301 158.639 9.50391 158.639 8.22949C158.639 6.95508 158.094 6.12891 157.312 6.12012ZM169.133 9.12598V9.68848H163.728V5.5752H169.045V6.15527H164.431V7.31543H168.878V7.86914H164.431V9.12598H169.133ZM169.959 11.1211V11.6924H162.805V11.1211H169.959ZM177.896 8.01855V8.59863H176.63V12.7119H175.944V4.89844H176.63V8.01855H177.896ZM171.594 5.67188V10.1455C172.736 10.1411 173.901 10.0532 175.188 9.78516L175.276 10.374C173.932 10.6465 172.719 10.7256 171.532 10.7256H170.908V5.67188H171.594ZM182.492 5.33789C183.538 5.3291 184.285 6.05859 184.285 7.10449C184.285 8.15039 183.538 8.87109 182.492 8.87109C181.438 8.87109 180.699 8.15039 180.708 7.10449C180.699 6.05859 181.438 5.3291 182.492 5.33789ZM182.492 5.90039C181.824 5.90039 181.323 6.40137 181.332 7.10449C181.323 7.79883 181.824 8.2998 182.492 8.2998C183.16 8.2998 183.644 7.79883 183.652 7.10449C183.644 6.40137 183.16 5.90039 182.492 5.90039ZM187.256 4.90723V9.16113H186.597V7.28027H185.56V9.09961H184.909V5.05664H185.56V6.7002H186.597V4.90723H187.256ZM182.791 9.5127V10.4443H186.579V9.5127H187.256V12.6064H182.105V9.5127H182.791ZM182.791 12.0439H186.579V11.0156H182.791V12.0439ZM193.215 5.4082C194.445 5.41699 195.315 6.15527 195.315 7.24512C195.315 8.22949 194.604 8.92822 193.558 9.04688V10.3828C194.331 10.3433 195.118 10.2773 195.86 10.1631L195.913 10.6729C194.129 11.0068 192.204 11.0156 190.798 11.0156L190.701 10.4355C191.338 10.4355 192.081 10.4355 192.863 10.4092V9.04688C191.817 8.92383 191.097 8.22949 191.105 7.24512C191.097 6.15527 191.984 5.41699 193.215 5.4082ZM193.215 6.01465C192.38 6.01465 191.773 6.51562 191.782 7.24512C191.773 7.97461 192.38 8.48438 193.215 8.47559C194.041 8.48438 194.639 7.97461 194.639 7.24512C194.639 6.51562 194.041 6.01465 193.215 6.01465ZM197.064 4.89844V12.7295H196.379V4.89844H197.064ZM205.581 9.53906V10.1016H202.32V12.7119H201.644V10.1016H198.427V9.53906H205.581ZM200.026 5.22363V6.30469H203.964V5.22363H204.658V8.58984H199.341V5.22363H200.026ZM200.026 8.02734H203.964V6.86719H200.026V8.02734ZM212.911 4.89844V12.7119H212.243V4.89844H212.911ZM211.338 5.06543V12.3164H210.679V8.51953H209.677C209.602 10.04 208.956 10.9893 207.989 10.9893C206.97 10.9893 206.311 9.93457 206.311 8.27344C206.311 6.6123 206.97 5.55762 207.989 5.55762C208.938 5.55762 209.58 6.47607 209.668 7.94824H210.679V5.06543H211.338ZM207.989 6.20801C207.356 6.20801 206.952 6.99902 206.961 8.27344C206.952 9.53906 207.356 10.3389 207.989 10.3301C208.622 10.3389 209.026 9.53906 209.026 8.27344C209.026 6.99902 208.622 6.20801 207.989 6.20801ZM216.743 6.99902C216.743 8.41406 217.648 9.83789 218.782 10.3564L218.369 10.9189C217.481 10.4619 216.748 9.52588 216.4 8.41406C216.053 9.58301 215.319 10.585 214.432 11.0596L213.983 10.5059C215.126 9.94336 216.04 8.44043 216.04 6.99902V5.5752H216.743V6.99902ZM220.47 4.89844V12.7295H219.784V8.13281H217.93V7.57031H219.784V4.89844H220.47ZM227.923 7.63184V8.7832H231.148V9.3457H224.029V8.7832H227.246V7.63184H227.923ZM227.932 5.39062C227.932 6.42773 229.338 7.29785 230.718 7.49121L230.437 8.04492C229.25 7.83838 228.077 7.20996 227.589 6.30469C227.097 7.21436 225.919 7.83838 224.724 8.04492L224.46 7.49121C225.84 7.29785 227.237 6.42773 227.237 5.39062V5.02148H227.932V5.39062ZM227.589 9.99609C229.268 9.99609 230.27 10.4795 230.278 11.3496C230.27 12.2197 229.268 12.6943 227.589 12.6943C225.893 12.6943 224.891 12.2197 224.891 11.3496C224.891 10.4795 225.893 9.99609 227.589 9.99609ZM227.589 10.541C226.323 10.541 225.585 10.8311 225.594 11.3496C225.585 11.8594 226.323 12.1582 227.589 12.1582C228.837 12.1582 229.584 11.8594 229.584 11.3496C229.584 10.8311 228.837 10.541 227.589 10.541ZM238.021 5.32031V5.90039C238.021 6.50684 238.021 7.21875 237.819 8.19434H238.962V8.76562H231.808V8.19434H237.125C237.336 7.21436 237.336 6.50684 237.336 5.90039V5.8916H232.713V5.32031H238.021ZM238.057 9.84668V12.6064H232.687V9.84668H238.057ZM233.372 10.3916V12.0439H237.371V10.3916H233.372ZM245.633 4.89844V8.12402H246.942V8.69531H245.633V12.7119H244.947V4.89844H245.633ZM244.191 6.15527V6.72656H239.542V6.15527H241.555V4.99512H242.24V6.15527H244.191ZM241.906 7.37695C243.014 7.37695 243.813 8.11523 243.822 9.16992C243.813 10.2246 243.014 10.9629 241.906 10.9629C240.79 10.9629 239.981 10.2246 239.99 9.16992C239.981 8.11523 240.79 7.37695 241.906 7.37695ZM241.906 7.95703C241.177 7.95703 240.641 8.4668 240.649 9.16992C240.641 9.88184 241.177 10.3828 241.906 10.374C242.627 10.3828 243.154 9.88184 243.163 9.16992C243.154 8.4668 242.627 7.95703 241.906 7.95703ZM253.833 4.89844V12.7119H253.147V8.61621H251.284V8.04492H253.147V4.89844H253.833ZM251.302 5.75098C251.302 7.96582 250.361 9.93457 247.751 11.2266L247.373 10.6729C249.491 9.64893 250.471 8.146 250.607 6.31348H247.716V5.75098H251.302ZM262.455 8.01855V8.59863H261.189V12.7119H260.504V4.89844H261.189V8.01855H262.455ZM256.153 5.67188V10.1455C257.296 10.1411 258.46 10.0532 259.748 9.78516L259.836 10.374C258.491 10.6465 257.278 10.7256 256.092 10.7256H255.468V5.67188H256.153ZM271.859 4.89844V12.7119H271.2V8.61621H270.049V12.3076H269.416V5.07422H270.049V8.04492H271.2V4.89844H271.859ZM268.396 5.85645V6.42773H266.155V10.1895C267.232 10.1851 267.979 10.1455 268.845 9.96973L268.906 10.5498C267.966 10.7432 267.166 10.7783 265.971 10.7783H265.47V5.85645H268.396ZM279.022 4.89844V8.22949H280.271V8.80957H279.022V12.7119H278.328V4.89844H279.022ZM272.861 10.6289C273.499 10.6289 274.241 10.6289 275.015 10.6025V9.73242C274.105 9.63135 273.512 9.09961 273.521 8.32617C273.512 7.44727 274.259 6.87598 275.366 6.87598C276.456 6.87598 277.212 7.44727 277.221 8.32617C277.212 9.09961 276.61 9.63135 275.709 9.74121V10.5762C276.438 10.541 277.172 10.4839 277.854 10.3828L277.897 10.9102C276.192 11.2002 274.347 11.2178 272.976 11.2178L272.861 10.6289ZM277.713 5.85645V6.41895H273.002V5.85645H275.015V4.91602H275.709V5.85645H277.713ZM275.366 7.41211C274.646 7.41211 274.162 7.78125 274.162 8.32617C274.162 8.87109 274.646 9.22266 275.366 9.21387C276.078 9.22266 276.562 8.87109 276.562 8.32617C276.562 7.78125 276.078 7.41211 275.366 7.41211ZM287.882 8.52832V9.07324H280.728V8.52832H287.882ZM286.985 9.69727V11.3584H282.292V12.1055H287.24V12.6064H281.598V10.8838H286.3V10.2158H281.589V9.69727H286.985ZM286.959 5.13574V6.75293H282.345V7.43848H287.1V7.93945H281.659V6.27832H286.265V5.63672H281.633V5.13574H286.959ZM298.086 8.01855V8.59863H296.82V12.7119H296.135V4.89844H296.82V8.01855H298.086ZM291.784 5.67188V10.1455C292.927 10.1411 294.091 10.0532 295.379 9.78516L295.467 10.374C294.122 10.6465 292.909 10.7256 291.723 10.7256H291.099V5.67188H291.784ZM304.862 7.53516V8.10645H299.475V5.30273H300.16V7.53516H304.862ZM305.706 9.28418V9.86426H302.437V12.7119H301.751V9.86426H298.552V9.28418H305.706ZM309.125 7.29785C309.125 8.625 310.092 9.96973 311.243 10.4707L310.856 11.0156C309.942 10.5981 309.151 9.69727 308.791 8.61621C308.422 9.76318 307.635 10.7607 306.743 11.209L306.33 10.6641C307.446 10.1279 308.422 8.65137 308.431 7.29785V6.27832H306.585V5.70703H310.988V6.27832H309.125V7.29785ZM312.772 4.89844V12.7119H312.078V4.89844H312.772ZM320.296 5.68945V10.7256H316.692V5.68945H320.296ZM317.36 6.24316V10.1631H319.61V6.24316H317.36ZM322.414 4.89844V8.01855H323.724V8.61621H322.414V12.7119H321.729V4.89844H322.414ZM326.466 7.12207C326.466 8.36133 327.072 9.70605 328.109 10.3213L327.714 10.8574C326.962 10.4004 326.422 9.56543 326.149 8.61621C325.859 9.65332 325.279 10.5454 324.497 11.0244L324.058 10.5059C325.139 9.87305 325.798 8.48438 325.798 7.14844V5.63672H326.466V7.12207ZM330.843 4.89844V12.7119H330.175V4.89844H330.843ZM329.226 5.06543V12.3164H328.575V8.29102H327.248V7.70215H328.575V5.06543H329.226ZM339.078 11.1299V11.71H331.924V11.1299H333.699V9.02051C333.031 8.67334 332.627 8.11084 332.627 7.40332C332.627 6.19043 333.813 5.39941 335.483 5.39062C337.153 5.39941 338.34 6.19043 338.34 7.40332C338.34 8.09766 337.949 8.65576 337.303 9.00293V11.1299H339.078ZM335.483 5.96191C334.2 5.95312 333.295 6.5332 333.295 7.40332C333.295 8.27344 334.2 8.8623 335.483 8.8623C336.758 8.8623 337.672 8.27344 337.672 7.40332C337.672 6.5332 336.758 5.95312 335.483 5.96191ZM334.376 11.1299H336.608V9.2666C336.27 9.35889 335.892 9.40723 335.483 9.40723C335.083 9.40723 334.71 9.36328 334.376 9.27539V11.1299ZM340.528 12.0527C340.221 12.0527 339.957 11.7979 339.966 11.4814C339.957 11.1738 340.221 10.9189 340.528 10.9189C340.836 10.9189 341.091 11.1738 341.091 11.4814C341.091 11.7979 340.836 12.0527 340.528 12.0527Z" fill="#222222"/>
</svg>
