<svg width="854" height="78" viewBox="0 0 854 78" fill="none" xmlns="http://www.w3.org/2000/svg">
<path d="M8.37891 0.298828V7.3457H7.3584V3.72559H5.52148V2.89844H7.3584V0.298828H8.37891ZM8.63672 8.88184V9.70898H2.12695V6.71191H3.14746V8.88184H8.63672ZM3.80273 2.24316C3.80273 3.44629 4.67285 4.64941 6.12305 5.13281L5.59668 5.94922C4.51709 5.56787 3.7168 4.79443 3.29785 3.84375C2.87891 4.90186 2.03564 5.75586 0.891602 6.16406L0.365234 5.33691C1.84766 4.83203 2.76074 3.56445 2.76074 2.24316V1.86719H0.676758V1.0293H5.86523V1.86719H3.80273V2.24316ZM12.7402 3.24219C12.7402 4.75684 13.4385 6.30371 14.7705 7.0127L14.2012 7.76465C13.272 7.27051 12.6221 6.34668 12.2783 5.25098C11.9292 6.42725 11.2847 7.43701 10.3555 7.99023L9.75391 7.2168C11.0859 6.44336 11.7734 4.7998 11.7842 3.24219V2.85547H10.0439V2.01758H11.7842V0.631836H12.7402V2.01758H14.4482V2.85547H12.7402V3.24219ZM18.1221 0.288086V9.91309H17.1445V0.288086H18.1221ZM16.167 0.492188V9.42969H15.2002V4.88574H13.8145V4.03711H15.2002V0.492188H16.167ZM27.4463 0.986328V1.81348H26.5225V4.72461C26.9307 4.69238 27.3228 4.65479 27.7041 4.60645L27.7471 5.37988C25.8994 5.66992 23.7402 5.70215 22.1934 5.70215L22.0645 4.85352L23.2354 4.84277V1.81348H22.333V0.986328H27.4463ZM30.0781 0.288086V6.20703H29.0576V4.53125H27.5859V3.71484H29.0576V2.78027H27.5859V1.96387H29.0576V0.288086H30.0781ZM26.8555 6.38965C28.8857 6.38965 30.1104 7.02344 30.1104 8.15137C30.1104 9.24707 28.8857 9.90234 26.8555 9.8916C24.8252 9.90234 23.5898 9.24707 23.6006 8.15137C23.5898 7.02344 24.8252 6.38965 26.8555 6.38965ZM26.8555 7.18457C25.4375 7.18457 24.6104 7.52832 24.6104 8.15137C24.6104 8.76367 25.4375 9.10742 26.8555 9.10742C28.2627 9.10742 29.1006 8.76367 29.1006 8.15137C29.1006 7.52832 28.2627 7.18457 26.8555 7.18457ZM24.2236 4.83203C24.6587 4.82129 25.0991 4.80518 25.5449 4.77832V1.81348H24.2236V4.83203ZM39.585 0.288086V5.89551H38.5645V3.47852H36.7598V2.62988H38.5645V0.288086H39.585ZM39.585 6.34668V9.79492H33.2363V6.34668H39.585ZM34.2461 7.15234V8.96777H38.5859V7.15234H34.2461ZM35.0088 1.93164C35.0088 3.13477 35.8789 4.32715 37.3291 4.83203L36.8027 5.6377C35.7231 5.25635 34.9229 4.48291 34.5039 3.53223C34.085 4.59033 33.2417 5.43896 32.0977 5.8418L31.5713 5.03613C33.0537 4.53125 33.9668 3.25293 33.9668 1.93164V1.70605H31.8828V0.868164H37.0713V1.70605H35.0088V1.93164Z" fill="#222222"/>
<path d="M2.42188 28.0781C1.35156 28.0781 0.546875 27.4219 0.507812 26.5234H1.34375C1.39062 27.0078 1.85156 27.3594 2.42188 27.3594C3.10938 27.3594 3.60156 26.8594 3.60156 26.1875C3.60156 25.5 3.09375 25 2.38281 24.9922C1.92969 24.9922 1.58594 25.1406 1.39062 25.4922H0.578125L0.945312 22.3438H4.14844V23.0781H1.65625L1.46875 24.6641H1.52344C1.75781 24.4375 2.15625 24.2812 2.58594 24.2812C3.64844 24.2812 4.4375 25.0703 4.4375 26.1641C4.4375 27.2812 3.60156 28.0781 2.42188 28.0781Z" fill="#222222"/>
<path d="M11 25H105" stroke="#E7E7E7" stroke-width="3" stroke-linecap="round"/>
<path d="M11 25H101" stroke="#222222" stroke-width="3" stroke-linecap="round"/>
<path d="M0.375 38.8984V38.2031L2.875 34.3438H3.9375V38.1719H4.71094V38.8984H3.9375V40H3.125V38.8984H0.375ZM1.28125 38.1719H3.125V35.3672H3.0625L1.28125 38.125V38.1719Z" fill="#222222"/>
<path d="M11 37H105" stroke="#E7E7E7" stroke-width="3" stroke-linecap="round"/>
<path d="M11 37H17" stroke="#222222" stroke-width="3" stroke-linecap="round"/>
<path d="M2.50781 52.0781C1.33594 52.0781 0.5 51.4453 0.46875 50.5234H1.34375C1.375 51.0234 1.86719 51.3359 2.5 51.3359C3.17969 51.3359 3.67969 50.9609 3.67969 50.4141C3.67969 49.8594 3.21094 49.4531 2.40625 49.4531H1.92188V48.75H2.40625C3.04688 48.75 3.5 48.3906 3.5 47.8516C3.5 47.3359 3.11719 46.9844 2.51562 46.9844C1.94531 46.9844 1.44531 47.2969 1.42188 47.8125H0.59375C0.617188 46.8906 1.46875 46.2656 2.52344 46.2656C3.63281 46.2656 4.33594 46.9688 4.32812 47.8047C4.33594 48.4453 3.9375 48.9141 3.32812 49.0625V49.1016C4.10156 49.2109 4.54688 49.7266 4.54688 50.4453C4.54688 51.3906 3.67969 52.0781 2.50781 52.0781Z" fill="#222222"/>
<path d="M11 49H105" stroke="#E7E7E7" stroke-width="3" stroke-linecap="round"/>
<path d="M0.5 64V63.375L2.46094 61.3984C3.07812 60.75 3.39062 60.3906 3.39062 59.8984C3.39062 59.3438 2.9375 58.9844 2.34375 58.9844C1.71875 58.9844 1.3125 59.3828 1.3125 59.9844H0.5C0.492188 58.9531 1.28125 58.2656 2.35938 58.2656C3.45312 58.2656 4.20312 58.9531 4.21094 59.875C4.20312 60.5078 3.90625 61.0078 2.84375 62.0547L1.69531 63.2188V63.2656H4.30469V64H0.5Z" fill="#222222"/>
<path d="M11 61H105" stroke="#E7E7E7" stroke-width="3" stroke-linecap="round"/>
<path d="M2.64844 70.3438V76H1.78125V71.2031H1.75L0.398438 72.0859V71.2656L1.80469 70.3438H2.64844Z" fill="#222222"/>
<path d="M11 73H105" stroke="#E7E7E7" stroke-width="3" stroke-linecap="round"/>
<line x1="128.5" y1="1" x2="128.5" y2="78" stroke="#E7E7E7"/>
<path d="M149.389 1.94531C149.389 2.9707 150.238 3.9375 151.566 4.30859L151.127 5.03125C150.116 4.74316 149.35 4.11816 148.949 3.3125C148.568 4.21582 147.807 4.92871 146.762 5.25586L146.322 4.54297C147.65 4.11328 148.471 3.06836 148.471 1.94531V1.83789H146.566V1.0957H148.471V0.0410156H149.398V1.0957H151.293V1.83789H149.389V1.94531ZM153.617 0.0800781V5.38281H152.689V3.29297H151.02V2.53125H152.689V0.0800781H153.617ZM150.688 5.57812C152.514 5.57812 153.646 6.16406 153.646 7.18945C153.646 8.22461 152.514 8.82031 150.688 8.81055C148.852 8.82031 147.719 8.22461 147.729 7.18945C147.719 6.16406 148.852 5.57812 150.688 5.57812ZM150.688 6.30078C149.408 6.30078 148.646 6.62305 148.646 7.18945C148.646 7.75586 149.408 8.09766 150.688 8.09766C151.977 8.09766 152.729 7.75586 152.729 7.18945C152.729 6.62305 151.977 6.30078 150.688 6.30078ZM162.26 0.0800781V4.5332H161.332V3.69336H159.115V2.9707H161.332V2.02344H159.223C158.681 3.38086 157.362 4.27441 155.424 4.72852L155.102 3.9668C157.201 3.50293 158.339 2.53125 158.49 1.24219H155.561V0.480469H159.506C159.506 0.763672 159.481 1.03223 159.438 1.29102H161.332V0.0800781H162.26ZM162.26 4.9043V7.12109H157.475V8H162.523V8.74219H156.557V6.41797H161.332V5.63672H156.537V4.9043H162.26ZM170.697 4.11328V4.85547H168.051V6.99414H171.615V7.75586H163.607V6.99414H167.133V4.85547H164.604V0.753906H170.619V1.50586H165.531V4.11328H170.697Z" fill="#222222"/>
<path d="M149.715 26.1172C148.016 26.1172 146.773 25.1094 146.727 23.7031H148.215C148.262 24.3945 148.906 24.8867 149.715 24.8867C150.664 24.8867 151.344 24.1953 151.344 23.2578C151.344 22.2852 150.641 21.5938 149.668 21.5938C149.012 21.582 148.531 21.8164 148.262 22.3203H146.844L147.359 17.5156H152.375V18.793H148.613L148.355 21.043H148.438C148.766 20.668 149.387 20.3984 150.078 20.3984C151.66 20.3984 152.82 21.582 152.82 23.2109C152.82 24.9102 151.543 26.1172 149.715 26.1172ZM154.766 26.0938C154.262 26.0938 153.852 25.6836 153.852 25.1797C153.852 24.6875 154.262 24.2773 154.766 24.2773C155.246 24.2773 155.668 24.6875 155.668 25.1797C155.668 25.6836 155.246 26.0938 154.766 26.0938ZM159.887 26.1172C157.848 26.1172 156.629 24.5352 156.629 21.7578C156.629 18.9922 157.848 17.3984 159.887 17.3984C161.914 17.3984 163.145 18.9922 163.145 21.7578C163.145 24.5352 161.926 26.1172 159.887 26.1172ZM159.887 24.8398C160.953 24.8398 161.609 23.7969 161.609 21.7578C161.609 19.7305 160.941 18.6641 159.887 18.6641C158.832 18.6641 158.164 19.7305 158.164 21.7578C158.164 23.7969 158.82 24.8398 159.887 24.8398Z" fill="#222222"/>
<path d="M167 50V54.5H163.775C163.873 55.55 164.277 56.54 164.915 57.335L165.065 57.5L163.94 58.4975C163.006 57.431 162.429 56.0987 162.29 54.6875C161.667 54.9725 161.3 55.5425 161.255 56.3375V59.6825L164.36 62.6975C164.997 63.3129 165.395 64.1339 165.485 65.015L165.493 65.2025L165.5 65.39V71.8625C165.5 72.4127 165.299 72.9439 164.934 73.3558C164.569 73.7676 164.066 74.0315 163.52 74.0975L163.385 74.105L163.227 74.1125L154.227 74.015C153.657 74.0103 153.11 73.7893 152.697 73.3967C152.283 73.0041 152.034 72.4692 152 71.9V71.765V65.54C152 64.5766 152.37 63.65 153.035 62.9525L153.178 62.8175L156.5 59.675V56.6375L153.492 54.0875L153.508 53.5625C153.553 52.6299 153.945 51.7479 154.607 51.089C155.269 50.4302 156.152 50.0418 157.085 50H157.25H167ZM163.227 69.2675C161.521 69.2691 159.878 68.6231 158.63 67.46L158.457 67.2875C157.821 66.6481 157.03 66.1843 156.161 65.9412C155.293 65.6981 154.376 65.6839 153.5 65.9V71.765C153.5 72.1475 153.785 72.4625 154.152 72.515H154.25L163.22 72.6125H163.318C163.49 72.5981 163.652 72.5245 163.776 72.4042C163.901 72.284 163.98 72.1244 164 71.9525L164.007 71.8625V69.2225C163.753 69.2525 163.49 69.2675 163.235 69.2675H163.227ZM162.253 51.5H157.25C156.744 51.4995 156.253 51.6695 155.856 51.9825C155.458 52.2954 155.178 52.7332 155.06 53.225L155.03 53.36L155.022 53.42L157.775 55.745H159.815L159.83 55.67C159.943 55.0557 160.232 54.4875 160.662 54.0347C161.092 53.5819 161.645 53.2641 162.253 53.12V51.5ZM171.5 53C171.699 53 171.89 53.079 172.03 53.2197C172.171 53.3603 172.25 53.5511 172.25 53.75C172.25 53.9489 172.171 54.1397 172.03 54.2803C171.89 54.421 171.699 54.5 171.5 54.5C171.301 54.5 171.11 54.421 170.97 54.2803C170.829 54.1397 170.75 53.9489 170.75 53.75C170.75 53.5511 170.829 53.3603 170.97 53.2197C171.11 53.079 171.301 53 171.5 53ZM169.25 51.5C169.449 51.5 169.64 51.579 169.78 51.7197C169.921 51.8603 170 52.0511 170 52.25C170 52.4489 169.921 52.6397 169.78 52.7803C169.64 52.921 169.449 53 169.25 53C169.051 53 168.86 52.921 168.72 52.7803C168.579 52.6397 168.5 52.4489 168.5 52.25C168.5 52.0511 168.579 51.8603 168.72 51.7197C168.86 51.579 169.051 51.5 169.25 51.5ZM165.5 51.5H163.753V53H165.5V51.5ZM171.5 50C171.699 50 171.89 50.079 172.03 50.2197C172.171 50.3603 172.25 50.5511 172.25 50.75C172.25 50.9489 172.171 51.1397 172.03 51.2803C171.89 51.421 171.699 51.5 171.5 51.5C171.301 51.5 171.11 51.421 170.97 51.2803C170.829 51.1397 170.75 50.9489 170.75 50.75C170.75 50.5511 170.829 50.3603 170.97 50.2197C171.11 50.079 171.301 50 171.5 50ZM164 65.39C163.999 64.836 163.793 64.3018 163.422 63.89L163.318 63.7775L159.747 60.32V57.245H158V60.32L154.205 63.905C154.077 64.024 153.964 64.1574 153.867 64.3025C154.853 64.1755 155.854 64.2669 156.8 64.5702C157.747 64.8735 158.615 65.3813 159.342 66.0575L159.515 66.23C160.095 66.8091 160.803 67.2438 161.582 67.4991C162.361 67.7544 163.19 67.8233 164 67.7V65.39Z" fill="#222222"/>
<line x1="249.5" y1="1" x2="249.5" y2="78" stroke="#E7E7E7"/>
<path d="M274.617 0.0800781V5.28516H273.689V3.06836H272.059V2.30664H273.689V0.0800781H274.617ZM271.688 5.5293C273.523 5.5293 274.646 6.13477 274.646 7.17969C274.646 8.22461 273.523 8.82031 271.688 8.83008C269.852 8.82031 268.719 8.22461 268.729 7.17969C268.719 6.13477 269.852 5.5293 271.688 5.5293ZM271.688 6.25195C270.408 6.25195 269.646 6.58398 269.646 7.17969C269.646 7.76562 270.408 8.10742 271.688 8.09766C272.967 8.10742 273.729 7.76562 273.729 7.17969C273.729 6.58398 272.967 6.25195 271.688 6.25195ZM270.457 1.62305C270.457 2.73633 271.248 3.81055 272.566 4.25977L272.088 4.99219C271.106 4.65039 270.384 3.95215 270.008 3.08789C269.622 4.06934 268.855 4.85547 267.811 5.23633L267.322 4.49414C268.68 4.02539 269.51 2.84375 269.51 1.63281V1.4375H267.615V0.685547H272.332V1.4375H270.457V1.62305ZM282.85 0.0898438V2.6875H284.1V3.44922H282.85V5.97852H281.922V0.0898438H282.85ZM275.906 5.00195C276.585 5.00195 277.371 5.00195 278.191 4.97266V4.38672C277.195 4.28418 276.561 3.81543 276.57 3.10742C276.561 2.30664 277.391 1.80859 278.65 1.81836C279.9 1.80859 280.73 2.30664 280.73 3.10742C280.73 3.81055 280.105 4.2793 279.119 4.38672V4.94336C279.9 4.9043 280.691 4.84082 281.424 4.73828L281.502 5.40234C279.617 5.73438 277.547 5.74414 276.004 5.74414L275.906 5.00195ZM282.85 6.38867V8.83008H281.922V7.11133H277V6.38867H282.85ZM281.18 0.832031V1.52539H276.131V0.832031H278.191V0.0117188H279.119V0.832031H281.18ZM278.65 2.45312C277.898 2.44336 277.449 2.6875 277.449 3.10742C277.449 3.51758 277.898 3.78125 278.65 3.78125C279.393 3.78125 279.842 3.51758 279.842 3.10742C279.842 2.6875 279.393 2.44336 278.65 2.45312ZM291.697 4.11328V4.85547H289.051V6.99414H292.615V7.75586H284.607V6.99414H288.133V4.85547H285.604V0.753906H291.619V1.50586H286.531V4.11328H291.697Z" fill="#222222"/>
<path d="M267.551 24.418V23.1992L271.219 17.5156H273.117V23.1641H274.23V24.418H273.117V26H271.664V24.418H267.551ZM269.109 23.1641H271.688V19.25H271.594L269.109 23.1055V23.1641ZM276.141 26.0938C275.637 26.0938 275.227 25.6836 275.227 25.1797C275.227 24.6875 275.637 24.2773 276.141 24.2773C276.621 24.2773 277.043 24.6875 277.043 25.1797C277.043 25.6836 276.621 26.0938 276.141 26.0938ZM281.344 17.3984C283.008 17.4102 284.648 18.3945 284.66 21.5C284.66 24.4297 283.336 26.1172 281.25 26.1172C279.609 26.1172 278.484 25.0977 278.297 23.6914H279.809C279.961 24.3594 280.477 24.793 281.25 24.793C282.48 24.793 283.172 23.7031 283.184 21.8867H283.09C282.656 22.625 281.848 23.0586 280.91 23.0586C279.398 23.0586 278.227 21.9102 278.215 20.3047C278.215 18.6406 279.457 17.3867 281.344 17.3984ZM281.355 18.6289C280.406 18.6289 279.691 19.3672 279.703 20.2695C279.703 21.1836 280.383 21.8984 281.332 21.8984C282.27 21.8984 283.008 21.1367 282.996 20.2578C282.996 19.3906 282.305 18.6289 281.355 18.6289Z" fill="#222222"/>
<path d="M283.25 51C284.727 51 286.19 51.291 287.555 51.8564C288.92 52.4217 290.16 53.2504 291.205 54.295C292.25 55.3397 293.078 56.5799 293.644 57.9448C294.209 59.3097 294.5 60.7726 294.5 62.25C294.5 63.7274 294.209 65.1903 293.644 66.5552C293.078 67.9201 292.25 69.1603 291.205 70.205C290.16 71.2496 288.92 72.0783 287.555 72.6436C286.19 73.209 284.727 73.5 283.25 73.5C280.266 73.5 277.405 72.3147 275.295 70.205C273.185 68.0952 272 65.2337 272 62.25C272 59.2663 273.185 56.4048 275.295 54.295C277.405 52.1853 280.266 51 283.25 51ZM283.25 52.5C280.664 52.5 278.184 53.5272 276.356 55.3557C274.527 57.1842 273.5 59.6641 273.5 62.25C273.5 64.8359 274.527 67.3158 276.356 69.1443C278.184 70.9728 280.664 72 283.25 72C285.836 72 288.316 70.9728 290.144 69.1443C291.973 67.3158 293 64.8359 293 62.25C293 59.6641 291.973 57.1842 290.144 55.3557C288.316 53.5272 285.836 52.5 283.25 52.5ZM288.5 58.1925L289.557 59.25L281.375 67.4325L276.943 63L278 61.9425L281.375 65.3175L288.5 58.1925Z" fill="#222222"/>
<line x1="370.5" y1="1" x2="370.5" y2="78" stroke="#E7E7E7"/>
<path d="M390.939 2.76562C390.939 4.14258 391.574 5.54883 392.785 6.19336L392.268 6.87695C391.423 6.42773 390.832 5.58789 390.52 4.5918C390.202 5.66113 389.616 6.5791 388.771 7.08203L388.225 6.37891C389.436 5.67578 390.061 4.18164 390.07 2.76562V2.41406H388.488V1.65234H390.07V0.392578H390.939V1.65234H392.492V2.41406H390.939V2.76562ZM395.832 0.0800781V8.83008H394.943V0.0800781H395.832ZM394.055 0.265625V8.39062H393.176V4.25977H391.916V3.48828H393.176V0.265625H394.055ZM404.006 0.929688V1.99414C404.006 3.27344 404.006 4.47461 403.625 6.29102L402.707 6.20312C402.893 5.40234 402.99 4.69922 403.039 4.04492L397.785 4.32812L397.668 3.56641L403.088 3.36133C403.103 2.89258 403.103 2.44336 403.107 1.99414V1.69141H397.912V0.929688H404.006ZM404.943 6.89648V7.6582H396.965V6.89648H404.943ZM412.863 0.0898438V6.44727H411.936V0.0898438H412.863ZM413.127 7.89258V8.64453H407.141V5.80273H408.078V7.89258H413.127ZM408.117 0.675781C409.436 0.675781 410.441 1.57422 410.441 2.84375C410.441 4.13281 409.436 5.02148 408.117 5.02148C406.799 5.02148 405.783 4.13281 405.783 2.84375C405.783 1.57422 406.799 0.675781 408.117 0.675781ZM408.117 1.48633C407.297 1.48633 406.691 2.04297 406.691 2.84375C406.691 3.66406 407.297 4.21094 408.117 4.21094C408.918 4.21094 409.533 3.66406 409.533 2.84375C409.533 2.04297 408.918 1.48633 408.117 1.48633Z" fill="#222222"/>
<path d="M391.715 26.1172C390.016 26.1172 388.773 25.1094 388.727 23.7031H390.215C390.262 24.3945 390.906 24.8867 391.715 24.8867C392.664 24.8867 393.344 24.1953 393.344 23.2578C393.344 22.2852 392.641 21.5938 391.668 21.5938C391.012 21.582 390.531 21.8164 390.262 22.3203H388.844L389.359 17.5156H394.375V18.793H390.613L390.355 21.043H390.438C390.766 20.668 391.387 20.3984 392.078 20.3984C393.66 20.3984 394.82 21.582 394.82 23.2109C394.82 24.9102 393.543 26.1172 391.715 26.1172ZM396.766 26.0938C396.262 26.0938 395.852 25.6836 395.852 25.1797C395.852 24.6875 396.262 24.2773 396.766 24.2773C397.246 24.2773 397.668 24.6875 397.668 25.1797C397.668 25.6836 397.246 26.0938 396.766 26.0938ZM401.887 26.1172C399.848 26.1172 398.629 24.5352 398.629 21.7578C398.629 18.9922 399.848 17.3984 401.887 17.3984C403.914 17.3984 405.145 18.9922 405.145 21.7578C405.145 24.5352 403.926 26.1172 401.887 26.1172ZM401.887 24.8398C402.953 24.8398 403.609 23.7969 403.609 21.7578C403.609 19.7305 402.941 18.6641 401.887 18.6641C400.832 18.6641 400.164 19.7305 400.164 21.7578C400.164 23.7969 400.82 24.8398 401.887 24.8398Z" fill="#222222"/>
<path d="M404.629 70.37V67.82L404.434 67.8875C403.699 68.1275 402.912 68.27 402.102 68.3H401.577C399.397 68.245 397.322 67.3552 395.78 65.8144C394.238 64.2736 393.346 62.1994 393.289 60.02V59.5775C393.344 57.3969 394.235 55.3208 395.777 53.7784C397.32 52.236 399.396 51.3451 401.577 51.29H402.019C406.542 51.41 410.187 55.055 410.299 59.5775V60.0875C410.263 61.1305 410.034 62.1577 409.624 63.1175L409.527 63.3425L415.459 69.2675V73.4675H411.274L408.177 70.37H404.629ZM399.732 55.415C400.047 55.3971 400.364 55.4438 400.661 55.5523C400.958 55.6609 401.23 55.8289 401.46 56.0462C401.69 56.2636 401.873 56.5255 401.999 56.8161C402.124 57.1067 402.189 57.4198 402.189 57.7363C402.189 58.0527 402.124 58.3658 401.999 58.6564C401.873 58.947 401.69 59.209 401.46 59.4263C401.23 59.6436 400.958 59.8117 400.661 59.9203C400.364 60.0288 400.047 60.0755 399.732 60.0575C399.115 60.0575 398.524 59.8126 398.088 59.3766C397.652 58.9405 397.407 58.3492 397.407 57.7325C397.407 57.1159 397.652 56.5245 398.088 56.0885C398.524 55.6525 399.115 55.4075 399.732 55.4075V55.415ZM399.732 56.96C399.527 56.96 399.33 57.0414 399.185 57.1863C399.04 57.3312 398.959 57.5277 398.959 57.7325C398.959 57.9374 399.04 58.1339 399.185 58.2788C399.33 58.4236 399.527 58.505 399.732 58.505C399.936 58.505 400.133 58.4236 400.278 58.2788C400.423 58.1339 400.504 57.9374 400.504 57.7325C400.504 57.5277 400.423 57.3312 400.278 57.1863C400.133 57.0414 399.936 56.96 399.732 56.96ZM408.822 68.825L411.912 71.9225H413.914V69.92L407.637 63.6425L407.914 63.1325L408.034 62.9075C408.454 62.045 408.709 61.0925 408.754 60.08V59.6C408.701 57.8265 407.973 56.1401 406.719 54.8855C405.464 53.6309 403.778 52.9028 402.004 52.85H401.592C399.818 52.9028 398.132 53.6309 396.877 54.8855C395.622 56.1401 394.894 57.8265 394.842 59.6V60.005C394.874 61.1654 395.197 62.299 395.78 63.3029C396.363 64.3067 397.187 65.1489 398.179 65.7527C399.17 66.3564 400.297 66.7027 401.456 66.7599C402.615 66.817 403.771 66.5833 404.817 66.08L405.042 65.96L406.182 65.36V68.825H408.822Z" fill="#222222"/>
<line x1="491.5" y1="1" x2="491.5" y2="78" stroke="#E7E7E7"/>
<path d="M512.174 0.705078C513.561 0.695312 514.547 1.55469 514.557 2.78516C514.547 4.01562 513.561 4.875 512.174 4.875C510.797 4.875 509.781 4.01562 509.791 2.78516C509.781 1.55469 510.797 0.695312 512.174 0.705078ZM512.174 1.50586C511.324 1.50586 510.699 2.01367 510.709 2.78516C510.699 3.55664 511.324 4.06445 512.174 4.06445C513.023 4.06445 513.648 3.55664 513.648 2.78516C513.648 2.01367 513.023 1.50586 512.174 1.50586ZM516.559 0.0800781V8.84961H515.631V0.0800781H516.559ZM509.371 6.19336C510.963 6.19336 513.17 6.17383 515.084 5.90039L515.152 6.57422C513.17 6.95508 511.051 6.96484 509.488 6.96484L509.371 6.19336ZM521.002 2.30664C520.992 3.85938 521.891 5.44141 523.199 6.07617L522.623 6.81836C521.671 6.3252 520.934 5.34375 520.553 4.17188C520.157 5.42188 519.391 6.4668 518.395 6.98438L517.818 6.23242C519.166 5.58789 520.074 3.9082 520.074 2.30664V0.8125H521.002V2.30664ZM524.781 0.0800781V3.56641H526.188V4.35742H524.781V8.83008H523.854V0.0800781H524.781ZM534.615 6.95508V7.7168H526.607V6.95508H530.113V4.875H531.031V6.95508H534.615ZM531.051 1.30078C531.051 2.6875 532.574 3.98633 534.264 4.26953L533.863 5.03125C532.447 4.74805 531.144 3.87402 530.562 2.66797C529.986 3.86914 528.697 4.75781 527.291 5.03125L526.881 4.26953C528.561 3.98633 530.074 2.6875 530.074 1.30078V0.636719H531.051V1.30078ZM543.229 4.67969V5.41211H535.23V4.67969H538.766V3.91797H536.275V0.314453H542.252V1.04688H537.213V1.75977H542.027V2.45312H537.213V3.19531H542.311V3.91797H539.693V4.67969H543.229ZM539.234 5.98828C541.158 5.97852 542.252 6.48633 542.252 7.4043C542.252 8.33203 541.158 8.82031 539.234 8.81055C537.291 8.82031 536.197 8.33203 536.197 7.4043C536.197 6.48633 537.291 5.97852 539.234 5.98828ZM539.234 6.68164C537.857 6.68164 537.115 6.93555 537.125 7.4043C537.115 7.87305 537.857 8.11719 539.234 8.10742C540.592 8.11719 541.324 7.87305 541.324 7.4043C541.324 6.93555 540.592 6.68164 539.234 6.68164Z" fill="#222222"/>
<path d="M512.715 26.1172C511.016 26.1172 509.773 25.1094 509.727 23.7031H511.215C511.262 24.3945 511.906 24.8867 512.715 24.8867C513.664 24.8867 514.344 24.1953 514.344 23.2578C514.344 22.2852 513.641 21.5938 512.668 21.5938C512.012 21.582 511.531 21.8164 511.262 22.3203H509.844L510.359 17.5156H515.375V18.793H511.613L511.355 21.043H511.438C511.766 20.668 512.387 20.3984 513.078 20.3984C514.66 20.3984 515.82 21.582 515.82 23.2109C515.82 24.9102 514.543 26.1172 512.715 26.1172ZM517.766 26.0938C517.262 26.0938 516.852 25.6836 516.852 25.1797C516.852 24.6875 517.262 24.2773 517.766 24.2773C518.246 24.2773 518.668 24.6875 518.668 25.1797C518.668 25.6836 518.246 26.0938 517.766 26.0938ZM522.887 26.1172C520.848 26.1172 519.629 24.5352 519.629 21.7578C519.629 18.9922 520.848 17.3984 522.887 17.3984C524.914 17.3984 526.145 18.9922 526.145 21.7578C526.145 24.5352 524.926 26.1172 522.887 26.1172ZM522.887 24.8398C523.953 24.8398 524.609 23.7969 524.609 21.7578C524.609 19.7305 523.941 18.6641 522.887 18.6641C521.832 18.6641 521.164 19.7305 521.164 21.7578C521.164 23.7969 521.82 24.8398 522.887 24.8398Z" fill="#222222"/>
<path d="M532.5 52.25C533.296 52.25 534.059 52.5661 534.621 53.1287C535.184 53.6913 535.5 54.4544 535.5 55.25V65.75C535.5 66.5456 535.184 67.3087 534.621 67.8713C534.059 68.4339 533.296 68.75 532.5 68.75H527.76L525 72.125L522.24 68.75H517.5C516.704 68.75 515.941 68.4339 515.379 67.8713C514.816 67.3087 514.5 66.5456 514.5 65.75V55.25C514.5 54.4544 514.816 53.6913 515.379 53.1287C515.941 52.5661 516.704 52.25 517.5 52.25H532.5Z" stroke="#222222" stroke-width="1.6"/>
<line x1="612.5" y1="1" x2="612.5" y2="78" stroke="#E7E7E7"/>
<path d="M633.193 0.480469C634.512 0.480469 635.469 1.21289 635.469 2.29688C635.469 3.37109 634.512 4.11328 633.193 4.10352C631.875 4.11328 630.938 3.37109 630.938 2.29688C630.938 1.21289 631.875 0.480469 633.193 0.480469ZM633.193 1.23242C632.402 1.23242 631.826 1.65234 631.836 2.29688C631.826 2.93164 632.402 3.35156 633.193 3.3418C634.004 3.35156 634.58 2.93164 634.58 2.29688C634.58 1.65234 634.004 1.23242 633.193 1.23242ZM637.598 0.0898438V8.83008H636.68V0.0898438H637.598ZM630.312 4.78711C631.924 4.78711 634.16 4.74805 636.074 4.46484L636.143 5.1582C635.347 5.30957 634.517 5.40234 633.711 5.46094V8.55664H632.783V5.50977C631.934 5.54883 631.133 5.55371 630.439 5.55859L630.312 4.78711ZM646.211 0.0800781V8.83008H645.283V0.0800781H646.211ZM642.256 2.89258C642.256 4.28906 643.184 5.71484 644.541 6.29102L644.033 7.00391C643.027 6.56445 642.222 5.65625 641.816 4.55273C641.421 5.71973 640.63 6.69141 639.609 7.15039L639.092 6.4375C640.449 5.83203 641.348 4.35742 641.348 2.89258V2.31641H639.355V1.57422H641.338V0.255859H642.256V1.57422H644.219V2.31641H642.256V2.89258Z" fill="#222222"/>
<path d="M630.551 24.418V23.1992L634.219 17.5156H636.117V23.1641H637.23V24.418H636.117V26H634.664V24.418H630.551ZM632.109 23.1641H634.688V19.25H634.594L632.109 23.1055V23.1641ZM639.141 26.0938C638.637 26.0938 638.227 25.6836 638.227 25.1797C638.227 24.6875 638.637 24.2773 639.141 24.2773C639.621 24.2773 640.043 24.6875 640.043 25.1797C640.043 25.6836 639.621 26.0938 639.141 26.0938ZM644.238 26.1172C642.352 26.1172 641.016 25.1094 641.016 23.7266C641.016 22.6484 641.812 21.7695 642.832 21.6055V21.5586C641.941 21.3711 641.332 20.5977 641.332 19.6719C641.332 18.3594 642.562 17.3984 644.238 17.3984C645.902 17.3984 647.133 18.3594 647.133 19.6719C647.133 20.5977 646.512 21.3711 645.633 21.5586V21.6055C646.652 21.7695 647.461 22.6484 647.461 23.7266C647.461 25.1094 646.113 26.1172 644.238 26.1172ZM644.238 24.9102C645.234 24.9102 645.891 24.3711 645.891 23.5859C645.891 22.7891 645.188 22.2031 644.238 22.2031C643.277 22.2031 642.574 22.7891 642.586 23.5859C642.574 24.3711 643.23 24.9102 644.238 24.9102ZM644.238 21.0664C645.059 21.0664 645.645 20.5508 645.645 19.8125C645.645 19.0977 645.07 18.5938 644.238 18.5938C643.395 18.5938 642.82 19.0859 642.82 19.8125C642.82 20.5508 643.406 21.0664 644.238 21.0664Z" fill="#222222"/>
<path d="M657.213 52.8574C657.126 52.4698 656.89 52.1322 656.556 51.9185C656.221 51.7048 655.815 51.6325 655.428 51.7174L649.743 52.9849L642.243 51.4849L635.928 52.8874C635.593 52.9595 635.294 53.1441 635.08 53.4103C634.866 53.6764 634.749 54.0081 634.75 54.3499V70.8124C634.75 70.9234 634.763 71.0341 634.788 71.1424C634.874 71.5299 635.11 71.8675 635.444 72.0812C635.779 72.2949 636.185 72.3672 636.573 72.2824L642.258 71.0149L649.758 72.5149L656.073 71.1124C656.407 71.0402 656.706 70.8557 656.92 70.5895C657.134 70.3233 657.251 69.9916 657.25 69.6499V53.1874C657.25 53.0763 657.237 52.9656 657.213 52.8574ZM643 53.1649L649 54.3649V70.8349L643 69.6349V53.1649ZM636.25 70.8124V54.3499L641.5 53.1874V69.6499L636.25 70.8124ZM655.75 69.6499L650.5 70.8124V54.3499L655.75 53.1874V69.6499Z" fill="#222222"/>
<line x1="733.5" y1="1" x2="733.5" y2="78" stroke="#E7E7E7"/>
<path d="M758.139 0.0800781V3.56641H759.496V4.33789H758.139V8.82031H757.211V0.0800781H758.139ZM755.854 0.998047C755.844 3.52734 754.73 5.7832 751.85 7.20898L751.332 6.48633C753.524 5.39258 754.716 3.81055 754.906 1.76953H751.771V0.998047H755.854ZM764.604 0.65625C764.604 0.988281 764.569 1.30078 764.506 1.60352H766.332V0.0898438H767.26V5.29492H766.332V4.20117H764.125V3.44922H766.332V2.3457H764.271C763.681 3.71777 762.338 4.69922 760.443 5.20703L760.092 4.47461C762.172 3.91309 763.437 2.7998 763.607 1.4082H760.551V0.65625H764.604ZM767.26 5.67578V8.81055H766.332V6.4082H761.332V5.67578H767.26ZM778.559 0.0800781V8.83008H777.67V4.30859H776.537V8.38086H775.688V0.255859H776.537V3.54688H777.67V0.0800781H778.559ZM774.623 1.13477V1.88672H772.27V5.93945C773.344 5.92969 774.154 5.88086 775.092 5.70508L775.16 6.4668C774.105 6.68164 773.207 6.7207 771.928 6.73047H771.342V1.13477H774.623ZM786.938 0.0800781V8.84961H786.01V0.0800781H786.938ZM781.107 0.8125V3.05859H783.461V0.8125H784.379V6.75H780.18V0.8125H781.107ZM781.107 5.98828H783.461V3.79102H781.107V5.98828ZM795.209 0.851562V4.93359H791.117V0.851562H795.209ZM792.025 1.60352V4.20117H794.301V1.60352H792.025ZM797.65 0.0703125V2.6875H798.92V3.46875H797.65V6.48633H796.723V0.0703125H797.65ZM798.021 7.89258V8.64453H792.104V5.87109H793.031V7.89258H798.021ZM806.684 0.421875V1.17383H804.027C804.12 2.04297 805.375 2.77051 806.986 2.94141L806.645 3.67383C805.136 3.49805 803.886 2.8584 803.412 1.92578C802.924 2.8584 801.679 3.49805 800.17 3.67383L799.838 2.94141C801.435 2.77051 802.685 2.03809 802.787 1.17383H800.15V0.421875H806.684ZM807.416 4.43555V5.1875H799.418V4.43555H802.943V3.16602H803.861V4.43555H807.416ZM806.42 5.96875V8.83008H805.482V6.71094H800.307V5.96875H806.42ZM815.15 4.11328V4.85547H812.504V6.99414H816.068V7.75586H808.061V6.99414H811.586V4.85547H809.057V0.753906H815.072V1.50586H809.984V4.11328H815.15Z" fill="#222222"/>
<path d="M751.551 24.418V23.1992L755.219 17.5156H757.117V23.1641H758.23V24.418H757.117V26H755.664V24.418H751.551ZM753.109 23.1641H755.688V19.25H755.594L753.109 23.1055V23.1641ZM760.141 26.0938C759.637 26.0938 759.227 25.6836 759.227 25.1797C759.227 24.6875 759.637 24.2773 760.141 24.2773C760.621 24.2773 761.043 24.6875 761.043 25.1797C761.043 25.6836 760.621 26.0938 760.141 26.0938ZM765.344 17.3984C767.008 17.4102 768.648 18.3945 768.66 21.5C768.66 24.4297 767.336 26.1172 765.25 26.1172C763.609 26.1172 762.484 25.0977 762.297 23.6914H763.809C763.961 24.3594 764.477 24.793 765.25 24.793C766.48 24.793 767.172 23.7031 767.184 21.8867H767.09C766.656 22.625 765.848 23.0586 764.91 23.0586C763.398 23.0586 762.227 21.9102 762.215 20.3047C762.215 18.6406 763.457 17.3867 765.344 17.3984ZM765.355 18.6289C764.406 18.6289 763.691 19.3672 763.703 20.2695C763.703 21.1836 764.383 21.8984 765.332 21.8984C766.27 21.8984 767.008 21.1367 766.996 20.2578C766.996 19.3906 766.305 18.6289 765.355 18.6289Z" fill="#222222"/>
<path d="M766.635 51C767.181 50.9987 767.709 51.196 768.12 51.555L768.225 51.66L776.475 59.91C776.88 60.3134 777.116 60.8557 777.135 61.4268C777.155 61.9978 776.956 62.5549 776.58 62.985L776.475 63.09L768.098 71.475C767.694 71.8797 767.152 72.1157 766.581 72.1353C766.01 72.1548 765.453 71.9562 765.023 71.58L764.918 71.475L756.668 63.225C756.279 62.839 756.044 62.3243 756.008 61.7775L756 61.6275V53.25C755.999 52.6759 756.217 52.1232 756.611 51.7049C757.004 51.2866 757.542 51.0344 758.115 51H766.628H766.635ZM766.635 52.5H758.258C758.073 52.4987 757.895 52.5652 757.757 52.687C757.618 52.8087 757.53 52.9771 757.508 53.16V61.6275C757.506 61.7923 757.559 61.9531 757.658 62.085L757.733 62.16L765.983 70.41C766.112 70.5368 766.282 70.6127 766.463 70.6237C766.643 70.6348 766.822 70.5802 766.965 70.47L767.04 70.41L775.418 62.025C775.546 61.8956 775.623 61.7236 775.635 61.5413C775.646 61.3591 775.59 61.179 775.478 61.035L775.418 60.96L767.168 52.71C767.05 52.594 766.897 52.5201 766.733 52.5H766.635ZM761.258 54C761.854 54 762.427 54.2371 762.848 54.659C763.27 55.081 763.508 55.6533 763.508 56.25C763.508 56.8467 763.27 57.419 762.848 57.841C762.427 58.263 761.854 58.5 761.258 58.5C760.661 58.5 760.088 58.263 759.667 57.841C759.245 57.419 759.008 56.8467 759.008 56.25C759.008 55.6533 759.245 55.081 759.667 54.659C760.088 54.2371 760.661 54 761.258 54ZM761.258 55.5C761.059 55.5 760.868 55.579 760.727 55.7197C760.587 55.8603 760.508 56.0511 760.508 56.25C760.508 56.4489 760.587 56.6397 760.727 56.7803C760.868 56.921 761.059 57 761.258 57C761.456 57 761.647 56.921 761.788 56.7803C761.928 56.6397 762.008 56.4489 762.008 56.25C762.008 56.0511 761.928 55.8603 761.788 55.7197C761.647 55.579 761.456 55.5 761.258 55.5Z" fill="#222222"/>
</svg>
