<svg width="10" height="10" viewBox="0 0 10 10" fill="none" xmlns="http://www.w3.org/2000/svg">
<g clip-path="url(#clip0_1130_4200)">
<path fill-rule="evenodd" clip-rule="evenodd" d="M4.71789 0.49397L3.42726 3.26897L0.346011 3.66584C0.2864 3.67329 0.2302 3.69777 0.18414 3.73634C0.138081 3.77491 0.104114 3.82593 0.0863081 3.88331C0.068502 3.94068 0.067611 4.00197 0.083742 4.05984C0.0998729 4.11771 0.132342 4.1697 0.177261 4.20959L2.45851 6.26272L1.84289 9.34084C1.83129 9.3997 1.83688 9.46064 1.85898 9.5164C1.88108 9.57217 1.91876 9.62039 1.96753 9.65532C2.0163 9.69024 2.07408 9.7104 2.13399 9.71337C2.1939 9.71635 2.2534 9.70202 2.30539 9.67209L4.99914 8.10959L7.69601 9.67209C7.748 9.70202 7.8075 9.71635 7.86741 9.71337C7.92732 9.7104 7.9851 9.69024 8.03387 9.65532C8.08263 9.62039 8.12032 9.57217 8.14242 9.5164C8.16452 9.46064 8.17011 9.3997 8.15851 9.34084L7.54289 6.26272L9.82414 4.20959C9.86815 4.16933 9.89973 4.1173 9.91512 4.05967C9.93052 4.00203 9.92909 3.94119 9.91102 3.88434C9.89294 3.82749 9.85897 3.777 9.81312 3.73883C9.76727 3.70067 9.71145 3.67643 9.65226 3.66897L6.57101 3.26897L5.28351 0.49397C5.25865 0.439411 5.21863 0.393155 5.1682 0.360718C5.11778 0.328282 5.05909 0.311035 4.99914 0.311035C4.93918 0.311035 4.88049 0.328282 4.83007 0.360718C4.77965 0.393155 4.73962 0.439411 4.71476 0.49397H4.71789Z" fill="#222222"/>
</g>
<defs>
<clipPath id="clip0_1130_4200">
<rect width="10" height="10" fill="white"/>
</clipPath>
</defs>
</svg>
